<svg width="1348" height="530" viewBox="0 0 1348 530" fill="none" xmlns="http://www.w3.org/2000/svg"><mask id="a" style="mask-type:alpha" maskUnits="userSpaceOnUse" x="0" y="0" width="1348" height="530"><path fill="#D9D9D9" d="M0 0h1348v530H0z"/></mask><g mask="url(#a)"><path d="M1111-8.485L1009.46 312.07H93V-8.485h1018z" fill="url(#paint0_linear_655_32663)"/><path d="M1112 631.685l-73.21-320.557H378v320.557h734z" fill="url(#paint1_linear_655_32663)"/><path fill="url(#paint2_linear_655_32663)" d="M-15-8.485h727v642.056H-15z"/><path d="M273.725 178.473c-44.744 0-89.051 8.327-130.389 24.507-41.339 16.179-78.9 39.893-110.54 69.788-31.638 29.895-56.736 65.386-73.859 104.446-17.123 39.06-25.936 80.924-25.936 123.203 0 42.278 8.813 84.142 25.936 123.202 17.123 39.06 42.22 74.551 73.86 104.446 31.639 29.895 69.2 53.61 110.539 69.789 41.338 16.179 85.645 24.506 130.389 24.506V178.473z" fill="url(#paint3_angular_655_32663)"/><path d="M275.22 822.36c44.744 0 89.051-8.327 130.389-24.506 41.339-16.179 78.9-39.893 110.539-69.789 31.64-29.895 56.737-65.386 73.86-104.446 17.123-39.06 25.936-80.924 25.936-123.202 0-42.278-8.813-84.143-25.936-123.203-17.123-39.06-42.22-74.551-73.86-104.446-31.639-29.895-69.2-53.609-110.538-69.788-41.339-16.18-85.645-24.507-130.39-24.507V822.36z" fill="url(#paint4_radial_655_32663)"/><path d="M273.725 822.361c29.045 0 57.805-8.328 84.639-24.507 26.834-16.179 51.215-39.893 71.753-69.789 20.538-29.895 36.829-65.386 47.944-104.446 11.115-39.06 16.836-80.924 16.836-123.202 0-42.278-5.721-84.143-16.836-123.203-11.115-39.06-27.406-74.551-47.944-104.446-20.538-29.895-44.919-53.609-71.753-69.788-26.834-16.18-55.594-24.507-84.639-24.507v643.888z" fill="#FCA5B4"/><path d="M275.219 822.334c44.745 0 89.051-8.327 130.39-24.506 41.338-16.18 78.899-39.894 110.539-69.789 31.639-29.895 56.736-65.386 73.859-104.446 17.123-39.06 25.936-80.924 25.936-123.203 0-42.278-8.813-84.142-25.936-123.202-17.123-39.06-42.22-74.551-73.859-104.446-31.64-29.895-69.201-53.61-110.539-69.789-41.339-16.179-85.645-24.506-130.39-24.506v643.887z" fill="url(#paint5_angular_655_32663)"/><path d="M275.219 822.334c44.745 0 89.051-8.327 130.39-24.506 41.338-16.18 78.899-39.894 110.539-69.789 31.639-29.895 56.736-65.386 73.859-104.446 17.123-39.06 25.936-80.924 25.936-123.203 0-42.278-8.813-84.142-25.936-123.202-17.123-39.06-42.22-74.551-73.859-104.446-31.64-29.895-69.201-53.61-110.539-69.789-41.339-16.179-85.645-24.506-130.39-24.506v643.887z" fill="url(#paint6_linear_655_32663)"/><path d="M273.725 178.447c-44.745 0-89.051 8.327-130.39 24.507-41.338 16.179-78.9 39.893-110.539 69.788-31.639 29.895-56.736 65.386-73.86 104.446-17.122 39.06-25.935 80.925-25.935 123.203 0 42.278 8.813 84.142 25.936 123.202 17.123 39.06 42.22 74.551 73.86 104.446 31.639 29.896 69.2 53.61 110.538 69.789 41.339 16.179 85.645 24.507 130.39 24.507V178.447z" fill="url(#paint7_radial_655_32663)"/><path d="M275.46 178.393c-32.434 0-64.55 8.328-94.515 24.508-29.965 16.181-57.191 39.897-80.125 69.795-22.934 29.898-41.127 65.391-53.538 104.455-12.412 39.063-18.8 80.931-18.8 123.213s6.388 84.15 18.8 123.213c12.411 39.063 30.604 74.557 53.538 104.455 22.934 29.898 50.16 53.614 80.125 69.794 29.965 16.181 62.081 24.509 94.514 24.509V500.364l.001-321.971z" fill="url(#paint8_radial_655_32663)"/><path d="M275.459 178.393c-23.891 0-47.549 8.328-69.622 24.508-22.072 16.181-42.128 39.897-59.022 69.795-16.894 29.898-30.295 65.391-39.438 104.455-9.142 39.063-13.848 80.931-13.848 123.213s4.706 84.15 13.848 123.213c9.143 39.063 22.544 74.557 39.438 104.455 16.894 29.898 36.95 53.614 59.022 69.794 22.073 16.181 45.731 24.509 69.622 24.509V178.393z" fill="url(#paint9_radial_655_32663)"/><path d="M275.459 178.393c-16.15 0-32.142 8.328-47.062 24.508-14.921 16.181-28.478 39.897-39.898 69.795-11.42 29.898-20.479 65.391-26.659 104.455-6.18 39.063-9.361 80.931-9.361 123.213s3.181 84.15 9.361 123.213c6.18 39.063 15.239 74.557 26.659 104.455 11.42 29.898 24.977 53.614 39.898 69.794 14.92 16.181 30.912 24.509 47.062 24.509V178.393z" fill="url(#paint10_linear_655_32663)"/><path opacity=".9" fill-rule="evenodd" clip-rule="evenodd" d="M1114-8.48L642 312.078h336.781L1114-8.479z" fill="url(#paint11_linear_655_32663)"/><path d="M976.286 312.076L1114.46-8.48l137.83 320.556-137.83 320.557-138.174-320.557z" fill="#FFE27D"/><path d="M976.286 312.076L1114.46-8.48l137.83 320.556-137.83 320.557-138.174-320.557z" fill="url(#paint12_linear_655_32663)" fill-opacity=".7"/><mask id="b" style="mask-type:alpha" maskUnits="userSpaceOnUse" x="976" y="-9" width="277" height="642"><path d="M976.286 312.076L1114.46-8.48l137.83 320.556-137.83 320.557-138.174-320.557z" fill="#FFE27D"/><path d="M976.286 312.076L1114.46-8.48l137.83 320.556-137.83 320.557-138.174-320.557z" fill="url(#paint13_linear_655_32663)" fill-opacity=".7"/></mask><g filter="url(#filter0_f_655_32663)" mask="url(#b)"><path d="M1134.11 28.232l130.84 284.447-52 117.397-78.84-401.845z" fill="#DE7226" fill-opacity=".8"/></g><path opacity=".9" fill-rule="evenodd" clip-rule="evenodd" d="M1114-8.48l472 320.556h-336.78L1114-8.48z" fill="url(#paint14_radial_655_32663)"/><g opacity=".9" fill-rule="evenodd" clip-rule="evenodd"><path d="M1114 632.633L642 312.076h336.781L1114 632.633z" fill="url(#paint15_linear_655_32663)"/><path d="M1114 632.633L642 312.076h336.781L1114 632.633z" fill="url(#paint16_linear_655_32663)" fill-opacity=".1"/></g><path opacity=".9" fill-rule="evenodd" clip-rule="evenodd" d="M1114 632.633l472-320.557h-336.78L1114 632.633z" fill="url(#paint17_radial_655_32663)"/><path d="M439.227-12.687L1091.8-8.562 890.804 319.67l-652.577-4.125 201-328.233z" fill="url(#paint18_linear_655_32663)"/><path d="M234.452 306.966l657.325 3.443 202.653 326.683-656.128-1.158-203.85-328.968z" fill="url(#paint19_linear_655_32663)"/><path d="M1092.94-18.817l397.58 4.125-201 328.233-397.581-4.125L1092.94-18.817z" fill="url(#paint20_linear_655_32663)"/><path d="M890.265 309.321l402.325 3.443 202.65 326.682-401.12-1.157-203.855-328.968z" fill="#343359"/><path d="M1488.52-12.806l206.47 324.682-407.47 3.551 201-328.233z" fill="url(#paint21_linear_655_32663)"/><path d="M1694.99 311.875l-201.75 329.458-202.92-327.648 404.67-1.81z" fill="url(#paint22_linear_655_32663)"/><path d="M1109.77 434.004l436.69-2.76-134.5-219.647-436.697 2.76 134.507 219.647z" fill="url(#paint23_linear_655_32663)"/><path d="M935.002 212.905l439.868-2.304 135.61-218.61-439.07.775-136.408 220.139z" fill="url(#paint24_linear_655_32663)"/><path d="M1358.66 201.237l268.21 2.295 135.11 217.789-267.42-.772-135.9-219.312z" fill="#083552"/></g><defs><linearGradient id="paint0_linear_655_32663" x1="1111" y1=".943" x2="-78.333" y2="262.941" gradientUnits="userSpaceOnUse"><stop stop-color="#F5BE9E"/><stop offset=".392" stop-color="#EA9A6B" stop-opacity=".686"/><stop offset=".835" stop-color="#D9D9D9" stop-opacity="0"/></linearGradient><linearGradient id="paint1_linear_655_32663" x1="911.225" y1="596.8" x2="234.417" y2="486.038" gradientUnits="userSpaceOnUse"><stop stop-color="#A13E3F"/><stop offset=".552" stop-color="#EA9A6B" stop-opacity=".686"/><stop offset=".807" stop-color="#D9D9D9" stop-opacity="0"/></linearGradient><linearGradient id="paint2_linear_655_32663" x1="79.136" y1="278.241" x2="677.975" y2="278.241" gradientUnits="userSpaceOnUse"><stop stop-color="#4F1240"/><stop offset="1" stop-color="#D9D9D9" stop-opacity="0"/></linearGradient><linearGradient id="paint6_linear_655_32663" x1="942.256" y1="472.574" x2="275.518" y2="472.016" gradientUnits="userSpaceOnUse"><stop offset=".566" stop-color="#FDA8B5"/><stop offset=".989" stop-color="#ED78A5"/></linearGradient><linearGradient id="paint10_linear_655_32663" x1="152.479" y1="500.364" x2="398.44" y2="500.364" gradientUnits="userSpaceOnUse"><stop stop-color="#E3729D"/><stop offset="1" stop-color="#FDABCA"/></linearGradient><linearGradient id="paint11_linear_655_32663" x1="1174.96" y1="43.867" x2="968.115" y2="375.185" gradientUnits="userSpaceOnUse"><stop stop-color="#EBA67C"/><stop offset=".526" stop-color="#FCCAAE"/><stop offset="1" stop-color="#E5846D"/></linearGradient><linearGradient id="paint12_linear_655_32663" x1="1202.29" y1="219.934" x2="1000.08" y2="410.904" gradientUnits="userSpaceOnUse"><stop offset=".017" stop-color="#FFA24D"/><stop offset="1" stop-color="#F7D5AC"/></linearGradient><linearGradient id="paint13_linear_655_32663" x1="1202.29" y1="219.934" x2="1000.08" y2="410.904" gradientUnits="userSpaceOnUse"><stop offset=".017" stop-color="#FFA24D"/><stop offset="1" stop-color="#FDF5EA"/></linearGradient><linearGradient id="paint15_linear_655_32663" x1="692.256" y1="860.263" x2="1130.06" y2="692.222" gradientUnits="userSpaceOnUse"><stop offset=".426" stop-color="#C54A4F"/><stop offset="1" stop-color="#953134"/></linearGradient><linearGradient id="paint16_linear_655_32663" x1="813.295" y1="329.724" x2="1231.64" y2="419.825" gradientUnits="userSpaceOnUse"><stop/><stop offset="1" stop-opacity="0"/></linearGradient><linearGradient id="paint18_linear_655_32663" x1="521.806" y1="53.912" x2="810.468" y2="348.221" gradientUnits="userSpaceOnUse"><stop stop-color="#F8A851" stop-opacity="0"/><stop offset="1" stop-color="#7F33E3"/></linearGradient><linearGradient id="paint19_linear_655_32663" x1="417.806" y1="473.464" x2="946.234" y2="759.574" gradientUnits="userSpaceOnUse"><stop stop-color="#FBCF8B" stop-opacity="0"/><stop offset="1" stop-color="#3C1D66"/></linearGradient><linearGradient id="paint20_linear_655_32663" x1="1284.88" y1="-4.154" x2="1110.7" y2="315.82" gradientUnits="userSpaceOnUse"><stop stop-color="#5B289F"/><stop offset="1" stop-color="#7233C7"/></linearGradient><linearGradient id="paint21_linear_655_32663" x1="1480.27" y1=".667" x2="1314.32" y2="305.524" gradientUnits="userSpaceOnUse"><stop stop-color="#C0DAF2"/><stop offset="1" stop-color="#5D5870"/></linearGradient><linearGradient id="paint22_linear_655_32663" x1="1615.64" y1="449.944" x2="1294.32" y2="303.633" gradientUnits="userSpaceOnUse"><stop stop-color="#DFF6FD"/><stop offset="1" stop-color="#708192"/></linearGradient><linearGradient id="paint23_linear_655_32663" x1="1067.98" y1="362.469" x2="1591.98" y2="362.469" gradientUnits="userSpaceOnUse"><stop stop-color="#E5E5E5" stop-opacity="0"/><stop offset=".749" stop-color="#083552"/></linearGradient><linearGradient id="paint24_linear_655_32663" x1="1090.25" y1="66.797" x2="1413.66" y2="-87.346" gradientUnits="userSpaceOnUse"><stop stop-color="#E5E5E5" stop-opacity="0"/><stop offset="1" stop-color="#4BF2C6"/></linearGradient><radialGradient id="paint3_angular_655_32663" cx="0" cy="0" r="1" gradientUnits="userSpaceOnUse" gradientTransform="matrix(71.73168 361.30826 -426.50676 84.67575 273.725 500.417)"><stop stop-color="#BF3A86"/><stop offset="1" stop-color="#651A45"/></radialGradient><radialGradient id="paint4_radial_655_32663" cx="0" cy="0" r="1" gradientUnits="userSpaceOnUse" gradientTransform="matrix(1403.25 0 0 1325.9 275.22 500.417)"><stop offset=".162" stop-color="#360F24"/><stop offset=".277" stop-color="#8E1A58" stop-opacity=".71"/></radialGradient><radialGradient id="paint5_angular_655_32663" cx="0" cy="0" r="1" gradientUnits="userSpaceOnUse" gradientTransform="rotate(-117.972 288.025 167.465) scale(294.065 340.078)"><stop stop-color="#BF3A86"/><stop offset="1" stop-color="#651A45"/></radialGradient><radialGradient id="paint7_radial_655_32663" cx="0" cy="0" r="1" gradientUnits="userSpaceOnUse" gradientTransform="matrix(-1403.25 0 0 -1325.9 273.725 500.391)"><stop offset=".162" stop-color="#360F24"/><stop offset=".277" stop-color="#7A1262"/></radialGradient><radialGradient id="paint8_radial_655_32663" cx="0" cy="0" r="1" gradientUnits="userSpaceOnUse" gradientTransform="matrix(-1017.16 0 0 -1326.01 275.46 500.364)"><stop offset=".115" stop-color="#360F24"/><stop offset=".277" stop-color="#AB2E80"/></radialGradient><radialGradient id="paint9_radial_655_32663" cx="0" cy="0" r="1" gradientUnits="userSpaceOnUse" gradientTransform="matrix(-749.265 0 0 -1326.01 275.459 500.364)"><stop offset=".115" stop-color="#360F24"/><stop offset=".237" stop-color="#D24F90"/></radialGradient><radialGradient id="paint14_radial_655_32663" cx="0" cy="0" r="1" gradientUnits="userSpaceOnUse" gradientTransform="matrix(33.47982 -1040.81167 1273.3414 40.95962 1244.21 299.484)"><stop stop-color="#EE995B"/><stop offset=".385" stop-color="#FFD9C7"/></radialGradient><radialGradient id="paint17_radial_655_32663" cx="0" cy="0" r="1" gradientUnits="userSpaceOnUse" gradientTransform="rotate(57.174 324.201 1303.974) scale(604.698 876.622)"><stop stop-color="#F9C1A3"/><stop offset=".385" stop-color="#E6B18A"/></radialGradient><filter id="filter0_f_655_32663" x="1089.11" y="-16.769" width="220.841" height="491.845" filterUnits="userSpaceOnUse" color-interpolation-filters="sRGB"><feFlood flood-opacity="0" result="BackgroundImageFix"/><feBlend in="SourceGraphic" in2="BackgroundImageFix" result="shape"/><feGaussianBlur stdDeviation="22.5" result="effect1_foregroundBlur_655_32663"/></filter></defs></svg>