<svg width="1348" height="535" viewBox="0 0 1348 535" fill="none" xmlns="http://www.w3.org/2000/svg"><mask id="a" style="mask-type:alpha" maskUnits="userSpaceOnUse" x="0" y="0" width="1348" height="535"><path fill="#fff" d="M0 0h1348v535H0z"/></mask><g style="mix-blend-mode:darken" mask="url(#a)"><path d="M1111 1l-101.54 340H93V1h1018z" fill="url(#paint0_linear_738_32612)"/><path d="M1112 680l-73.21-340H378v340h734z" fill="url(#paint1_linear_738_32612)"/><path fill="url(#paint2_linear_738_32612)" d="M-15 1h727v681H-15z"/><path d="M273.725 178.085a340.085 340.085 0 00-130.389 25.993A340.689 340.689 0 0032.796 278.1a341.528 341.528 0 00-73.859 110.781 342.126 342.126 0 00-25.936 130.676c0 44.843 8.813 89.246 25.936 130.675a341.522 341.522 0 0073.86 110.782 340.67 340.67 0 00110.539 74.021 340.066 340.066 0 00130.389 25.993V178.085z" fill="url(#paint3_angular_738_32612)"/><path d="M275.219 861.028c44.745 0 89.051-8.832 130.39-25.993a340.668 340.668 0 00110.539-74.021 341.525 341.525 0 0073.86-110.782 342.117 342.117 0 0025.936-130.675c0-44.843-8.813-89.246-25.936-130.676a341.532 341.532 0 00-73.86-110.781 340.686 340.686 0 00-110.539-74.022 340.085 340.085 0 00-130.389-25.993l-.001 341.472v341.471z" fill="url(#paint4_radial_738_32612)"/><path d="M273.725 861.028c29.045 0 57.805-8.832 84.639-25.993 26.834-17.16 51.215-42.313 71.753-74.021 20.538-31.709 36.829-69.352 47.944-110.782 11.115-41.429 16.836-85.832 16.836-130.675 0-44.843-5.721-89.246-16.836-130.676-11.115-41.429-27.406-79.072-47.944-110.781-20.538-31.708-44.919-56.861-71.753-74.022-26.834-17.16-55.594-25.993-84.639-25.993v682.943z" fill="#FCA5B4"/><path d="M275.219 861.001c44.744 0 89.051-8.832 130.389-25.993a340.67 340.67 0 00110.539-74.022 341.521 341.521 0 0073.86-110.781 342.12 342.12 0 0025.936-130.675c0-44.843-8.813-89.247-25.936-130.676a341.521 341.521 0 00-73.86-110.781 340.67 340.67 0 00-110.539-74.022 340.085 340.085 0 00-130.389-25.993v682.943z" fill="url(#paint5_angular_738_32612)"/><path d="M275.219 861.001c44.744 0 89.051-8.832 130.389-25.993a340.67 340.67 0 00110.539-74.022 341.521 341.521 0 0073.86-110.781 342.12 342.12 0 0025.936-130.675c0-44.843-8.813-89.247-25.936-130.676a341.521 341.521 0 00-73.86-110.781 340.67 340.67 0 00-110.539-74.022 340.085 340.085 0 00-130.389-25.993v682.943z" fill="url(#paint6_linear_738_32612)"/><path d="M273.724 178.059a340.066 340.066 0 00-130.389 25.993 340.67 340.67 0 00-110.54 74.021 341.522 341.522 0 00-73.859 110.782A342.117 342.117 0 00-67 519.53c0 44.843 8.813 89.246 25.936 130.676a341.528 341.528 0 0073.86 110.781 340.688 340.688 0 00110.539 74.022 340.085 340.085 0 00130.389 25.993V178.059z" fill="url(#paint7_radial_738_32612)"/><path d="M275.459 178.001c-32.434 0-64.55 8.833-94.514 25.995-29.965 17.162-57.192 42.317-80.126 74.028-22.934 31.711-41.126 69.358-53.538 110.791-12.412 41.433-18.8 85.84-18.8 130.686 0 44.847 6.388 89.254 18.8 130.687 12.412 41.433 30.604 79.08 53.538 110.791 22.934 31.711 50.161 56.866 80.126 74.028 29.964 17.162 62.08 25.995 94.514 25.995V178.001z" fill="url(#paint8_radial_738_32612)"/><path d="M275.459 178.001c-23.891 0-47.549 8.833-69.622 25.995-22.072 17.162-42.128 42.317-59.022 74.028-16.894 31.711-30.295 69.358-39.438 110.791-9.142 41.433-13.848 85.84-13.848 130.686 0 44.847 4.706 89.254 13.848 130.687 9.143 41.433 22.544 79.08 39.438 110.791 16.894 31.711 36.95 56.866 59.022 74.028 22.073 17.162 45.731 25.995 69.622 25.995V178.001z" fill="url(#paint9_radial_738_32612)"/><path d="M275.459 178.001c-16.15 0-32.142 8.833-47.063 25.995s-28.478 42.317-39.898 74.028c-11.419 31.711-20.478 69.358-26.659 110.791-6.18 41.433-9.361 85.84-9.361 130.686 0 44.847 3.181 89.254 9.361 130.687 6.181 41.433 15.239 79.08 26.659 110.791 11.42 31.711 24.977 56.866 39.898 74.028 14.921 17.162 30.913 25.995 47.063 25.995V178.001z" fill="url(#paint10_linear_738_32612)"/><path opacity=".9" fill-rule="evenodd" clip-rule="evenodd" d="M1114 1.006l-472 340h336.781L1114 1.006z" fill="url(#paint11_linear_738_32612)"/><path d="M976.286 341.006l138.174-340 137.83 340-137.83 340-138.174-340z" fill="#FFE27D"/><path d="M976.286 341.006l138.174-340 137.83 340-137.83 340-138.174-340z" fill="url(#paint12_linear_738_32612)" fill-opacity=".7"/><mask id="b" style="mask-type:alpha" maskUnits="userSpaceOnUse" x="976" y="1" width="277" height="681"><path d="M976.287 341.006l138.173-340 137.83 340-137.83 340-138.173-340z" fill="#FFE27D"/><path d="M976.287 341.006l138.173-340 137.83 340-137.83 340-138.173-340z" fill="url(#paint13_linear_738_32612)" fill-opacity=".7"/></mask><g filter="url(#filter0_f_738_32612)" mask="url(#b)"><path d="M1134.11 39.944l130.84 301.701-52 124.518-78.84-426.219z" fill="#DE7226" fill-opacity=".8"/></g><path opacity=".9" fill-rule="evenodd" clip-rule="evenodd" d="M1114 1.006l472 340h-336.78L1114 1.006z" fill="url(#paint14_radial_738_32612)"/><g opacity=".9" fill-rule="evenodd" clip-rule="evenodd"><path d="M1114 681.006l-472-340h336.781l135.219 340z" fill="url(#paint15_linear_738_32612)"/><path d="M1114 681.006l-472-340h336.781l135.219 340z" fill="url(#paint16_linear_738_32612)" fill-opacity=".1"/></g><path opacity=".9" fill-rule="evenodd" clip-rule="evenodd" d="M1114 681.006l472-340h-336.78l-135.22 340z" fill="url(#paint17_radial_738_32612)"/><path d="M439.227-3.456L1091.8.919 890.805 349.06l-652.578-4.375 201-348.142z" fill="url(#paint18_linear_738_32612)"/><path d="M234.453 335.586l657.325 3.652 202.652 346.497-656.127-1.228-203.85-348.921z" fill="url(#paint19_linear_738_32612)"/><path d="M1092.94-9.959l397.58 4.375-201 348.143-397.581-4.375L1092.94-9.959z" fill="url(#paint20_linear_738_32612)"/><path d="M890.265 338.083l402.325 3.652 202.65 346.497-401.12-1.228-203.855-348.921z" fill="#343359"/><path d="M1488.52-3.583l206.47 344.375-407.47 3.768 201-348.143z" fill="url(#paint21_linear_738_32612)"/><path d="M1694.99 340.792l-201.75 349.442-202.92-347.522 404.67-1.92z" fill="url(#paint22_linear_738_32612)"/><path d="M1109.77 470.329l436.69-2.928-134.51-232.97-436.688 2.928 134.508 232.97z" fill="url(#paint23_linear_738_32612)"/><path d="M935.002 235.819l439.868-2.444 135.61-231.87-439.07.822L935.002 235.82z" fill="url(#paint24_linear_738_32612)"/><path d="M1358.66 223.443l268.21 2.435 135.11 230.998-267.42-.818-135.9-232.615z" fill="#083552"/></g><defs><linearGradient id="paint0_linear_738_32612" x1="1111" y1="11" x2="-84.48" y2="259.292" gradientUnits="userSpaceOnUse"><stop stop-color="#F5BE9E"/><stop offset=".392" stop-color="#EA9A6B" stop-opacity=".686"/><stop offset=".835" stop-color="#D9D9D9" stop-opacity="0"/></linearGradient><linearGradient id="paint1_linear_738_32612" x1="911.225" y1="643" x2="232.45" y2="538.268" gradientUnits="userSpaceOnUse"><stop stop-color="#A13E3F"/><stop offset=".552" stop-color="#EA9A6B" stop-opacity=".686"/><stop offset=".807" stop-color="#D9D9D9" stop-opacity="0"/></linearGradient><linearGradient id="paint2_linear_738_32612" x1="79.136" y1="305.118" x2="677.975" y2="305.118" gradientUnits="userSpaceOnUse"><stop stop-color="#F69AE1"/><stop offset="1" stop-color="#D9D9D9" stop-opacity="0"/></linearGradient><linearGradient id="paint6_linear_738_32612" x1="942.256" y1="490.026" x2="275.517" y2="489.5" gradientUnits="userSpaceOnUse"><stop offset=".566" stop-color="#FDA8B5"/><stop offset=".989" stop-color="#ED78A5"/></linearGradient><linearGradient id="paint10_linear_738_32612" x1="152.478" y1="519.501" x2="398.44" y2="519.501" gradientUnits="userSpaceOnUse"><stop stop-color="#E3729D"/><stop offset="1" stop-color="#FDABCA"/></linearGradient><linearGradient id="paint11_linear_738_32612" x1="1174.96" y1="56.527" x2="950.142" y2="396.04" gradientUnits="userSpaceOnUse"><stop stop-color="#EBA67C"/><stop offset=".526" stop-color="#FCCAAE"/><stop offset="1" stop-color="#E5846D"/></linearGradient><linearGradient id="paint12_linear_738_32612" x1="1202.29" y1="243.275" x2="988.9" y2="433.276" gradientUnits="userSpaceOnUse"><stop offset=".017" stop-color="#FFA24D"/><stop offset="1" stop-color="#F7D5AC"/></linearGradient><linearGradient id="paint13_linear_738_32612" x1="1202.29" y1="243.275" x2="988.9" y2="433.276" gradientUnits="userSpaceOnUse"><stop offset=".017" stop-color="#FFA24D"/><stop offset="1" stop-color="#FDF5EA"/></linearGradient><linearGradient id="paint15_linear_738_32612" x1="692.256" y1="922.443" x2="1136.39" y2="761.719" gradientUnits="userSpaceOnUse"><stop offset=".426" stop-color="#C54A4F"/><stop offset="1" stop-color="#953134"/></linearGradient><linearGradient id="paint16_linear_738_32612" x1="813.295" y1="359.724" x2="1233.71" y2="445.093" gradientUnits="userSpaceOnUse"><stop/><stop offset="1" stop-opacity="0"/></linearGradient><linearGradient id="paint18_linear_738_32612" x1="521.806" y1="67.182" x2="827.796" y2="361.317" gradientUnits="userSpaceOnUse"><stop stop-color="#F8A851" stop-opacity="0"/><stop offset="1" stop-color="#7F33E3"/></linearGradient><linearGradient id="paint19_linear_738_32612" x1="417.807" y1="512.183" x2="959.888" y2="788.9" gradientUnits="userSpaceOnUse"><stop stop-color="#FBCF8B" stop-opacity="0"/><stop offset="1" stop-color="#3C1D66"/></linearGradient><linearGradient id="paint20_linear_738_32612" x1="1284.88" y1="5.594" x2="1094.38" y2="335.55" gradientUnits="userSpaceOnUse"><stop stop-color="#5B289F"/><stop offset="1" stop-color="#7233C7"/></linearGradient><linearGradient id="paint21_linear_738_32612" x1="1480.27" y1="10.707" x2="1298.77" y2="325.074" gradientUnits="userSpaceOnUse"><stop stop-color="#C0DAF2"/><stop offset="1" stop-color="#5D5870"/></linearGradient><linearGradient id="paint22_linear_738_32612" x1="1615.64" y1="487.236" x2="1288.07" y2="346.609" gradientUnits="userSpaceOnUse"><stop stop-color="#DFF6FD"/><stop offset="1" stop-color="#708192"/></linearGradient><linearGradient id="paint23_linear_738_32612" x1="1067.98" y1="394.455" x2="1591.98" y2="394.455" gradientUnits="userSpaceOnUse"><stop stop-color="#E5E5E5" stop-opacity="0"/><stop offset=".749" stop-color="#083552"/></linearGradient><linearGradient id="paint24_linear_738_32612" x1="1090.25" y1="80.849" x2="1420.45" y2="-67.53" gradientUnits="userSpaceOnUse"><stop stop-color="#E5E5E5" stop-opacity="0"/><stop offset="1" stop-color="#4BF2C6"/></linearGradient><radialGradient id="paint3_angular_738_32612" cx="0" cy="0" r="1" gradientUnits="userSpaceOnUse" gradientTransform="matrix(71.73148 383.22347 -428.31142 80.171 273.725 519.557)"><stop stop-color="#BF3A86"/><stop offset="1" stop-color="#651A45"/></radialGradient><radialGradient id="paint4_radial_738_32612" cx="0" cy="0" r="1" gradientUnits="userSpaceOnUse" gradientTransform="matrix(1403.25 0 0 1406.32 275.219 519.557)"><stop offset=".162" stop-color="#360F24"/><stop offset=".277" stop-color="#8E1A58" stop-opacity=".71"/></radialGradient><radialGradient id="paint5_angular_738_32612" cx="0" cy="0" r="1" gradientUnits="userSpaceOnUse" gradientTransform="rotate(-116.598 298.05 174.772) scale(308.067 344.312)"><stop stop-color="#BF3A86"/><stop offset="1" stop-color="#651A45"/></radialGradient><radialGradient id="paint7_radial_738_32612" cx="0" cy="0" r="1" gradientUnits="userSpaceOnUse" gradientTransform="matrix(-1403.25 0 0 -1406.32 273.724 519.53)"><stop offset=".162" stop-color="#360F24"/><stop offset=".277" stop-color="#7A1262"/></radialGradient><radialGradient id="paint8_radial_738_32612" cx="0" cy="0" r="1" gradientUnits="userSpaceOnUse" gradientTransform="matrix(-1017.16 0 0 -1406.44 275.459 519.501)"><stop offset=".115" stop-color="#360F24"/><stop offset=".277" stop-color="#AB2E80"/></radialGradient><radialGradient id="paint9_radial_738_32612" cx="0" cy="0" r="1" gradientUnits="userSpaceOnUse" gradientTransform="matrix(-749.265 0 0 -1406.44 275.459 519.501)"><stop offset=".115" stop-color="#360F24"/><stop offset=".237" stop-color="#D24F90"/></radialGradient><radialGradient id="paint14_radial_738_32612" cx="0" cy="0" r="1" gradientUnits="userSpaceOnUse" gradientTransform="matrix(33.47779 -1103.9425 1273.48456 38.61926 1244.21 327.648)"><stop stop-color="#EE995B"/><stop offset=".385" stop-color="#FFD9C7"/></radialGradient><radialGradient id="paint17_radial_738_32612" cx="0" cy="0" r="1" gradientUnits="userSpaceOnUse" gradientTransform="rotate(58.692 306.963 1283.683) scale(630.82 891.293)"><stop stop-color="#F9C1A3"/><stop offset=".385" stop-color="#E6B18A"/></radialGradient><filter id="filter0_f_738_32612" x="1089.11" y="-5.056" width="220.841" height="516.219" filterUnits="userSpaceOnUse" color-interpolation-filters="sRGB"><feFlood flood-opacity="0" result="BackgroundImageFix"/><feBlend in="SourceGraphic" in2="BackgroundImageFix" result="shape"/><feGaussianBlur stdDeviation="22.5" result="effect1_foregroundBlur_738_32612"/></filter></defs></svg>