<svg width="432" height="86" viewBox="0 0 432 86" fill="none" xmlns="http://www.w3.org/2000/svg"><g clip-path="url(#clip0_302_24486)"><mask id="a" style="mask-type:alpha" maskUnits="userSpaceOnUse" x="157" y="-65" width="275" height="216"><path d="M158.252-44.349c0-10.77 8.73-19.5 19.5-19.5H412c10.77 0 19.5 8.73 19.5 19.5V130.35c0 10.769-8.73 19.5-19.5 19.5H177.752c-10.77 0-19.5-8.731-19.5-19.5V-44.349z" fill="#16181D" stroke="#5D5F65"/></mask><g mask="url(#a)"><path d="M395.444 10.236L352.061-7.203l43.25-17.724L438.694-7.53l-43.25 17.767z" fill="#FFE27D"/><path d="M395.444 10.236L352.061-7.203l43.25-17.724L438.694-7.53l-43.25 17.767z" fill="url(#paint0_linear_302_24486)" fill-opacity=".7"/><mask id="b" style="mask-type:alpha" maskUnits="userSpaceOnUse" x="352" y="-25" width="87" height="36"><path d="M395.442 10.236l-43.383-17.44 43.25-17.723 43.383 17.396-43.25 17.767z" fill="#FFE27D"/><path d="M395.442 10.236l-43.383-17.44 43.25-17.723 43.383 17.396-43.25 17.767z" fill="url(#paint1_linear_302_24486)" fill-opacity=".7"/></mask><g mask="url(#b)"><path d="M357.01-9.726l38.374-16.815 15.889 6.565-54.263 10.25z" fill="#DE7226" fill-opacity=".8"/></g><g opacity=".9" fill-rule="evenodd" clip-rule="evenodd"><path d="M438.694-7.472l-43.089 60.297-.162-42.906 43.251-17.39z" fill="url(#paint2_linear_302_24486)"/><path d="M438.694-7.472l-43.089 60.297-.162-42.906 43.251-17.39z" fill="url(#paint3_linear_302_24486)" fill-opacity=".1"/></g><path opacity=".9" fill-rule="evenodd" clip-rule="evenodd" d="M352.062-7.144l43.544 59.97-.163-42.907-43.381-17.063z" fill="url(#paint4_linear_302_24486)"/><path d="M352.507 70.485l-43.418-17.353 43.215-17.81 43.417 17.31-43.214 17.853z" fill="#FFE27D"/><path d="M352.507 70.485l-43.418-17.353 43.215-17.81 43.417 17.31-43.214 17.853z" fill="url(#paint5_linear_302_24486)" fill-opacity=".7"/><mask id="c" style="mask-type:alpha" maskUnits="userSpaceOnUse" x="309" y="35" width="87" height="36"><path d="M352.506 70.485l-43.417-17.353 43.214-17.81 43.418 17.31-43.215 17.853z" fill="#FFE27D"/><path d="M352.506 70.485l-43.417-17.353 43.214-17.81 43.418 17.31-43.215 17.853z" fill="url(#paint6_linear_302_24486)" fill-opacity=".7"/></mask><g filter="url(#filter1_f_302_24486)" mask="url(#c)"><path d="M314.036 50.598l38.34-16.89 15.902 6.532-54.242 10.358z" fill="#F24C53"/></g><path opacity=".9" fill-rule="evenodd" clip-rule="evenodd" d="M309.088 53.19l42.969-60.382.248 42.906-43.217 17.477z" fill="url(#paint7_radial_302_24486)"/><g opacity=".9" fill-rule="evenodd" clip-rule="evenodd"><path d="M395.722 52.69l-42.969 60.383-.248-42.906 43.217-17.477z" fill="url(#paint8_linear_302_24486)"/><path d="M395.722 52.69l-42.969 60.383-.248-42.906 43.217-17.477z" fill="url(#paint9_linear_302_24486)" fill-opacity=".1"/></g><path opacity=".9" fill-rule="evenodd" clip-rule="evenodd" d="M395.721 52.69L352.057-7.191l.248 42.906 43.416 16.977z" fill="url(#paint10_radial_302_24486)"/><path opacity=".9" fill-rule="evenodd" clip-rule="evenodd" d="M309.089 53.19l43.663 59.883-.247-42.906-43.416-16.977z" fill="url(#paint11_linear_302_24486)"/><path d="M234.486.288l-43.418-17.353 43.215-17.81 43.417 17.31L234.486.288z" fill="#FFE27D"/><path d="M234.486.288l-43.418-17.353 43.215-17.81 43.417 17.31L234.486.288z" fill="url(#paint12_linear_302_24486)" fill-opacity=".7"/><g opacity=".9" fill-rule="evenodd" clip-rule="evenodd"><path d="M277.701-17.507l-42.969 60.383-.248-42.906 43.217-17.477z" fill="url(#paint13_linear_302_24486)"/><path d="M277.701-17.507l-42.969 60.383-.248-42.906 43.217-17.477z" fill="url(#paint14_linear_302_24486)" fill-opacity=".1"/></g><path opacity=".9" fill-rule="evenodd" clip-rule="evenodd" d="M191.069-17.008l43.663 59.883-.248-42.906-43.415-16.977z" fill="url(#paint15_linear_302_24486)"/><path opacity=".9" fill-rule="evenodd" clip-rule="evenodd" d="M266.321 113.648L309.41 53.35l.162 42.907-43.251 17.391z" fill="url(#paint16_radial_302_24486)"/><path opacity=".9" fill-rule="evenodd" clip-rule="evenodd" d="M352.953 113.32L309.41 53.35l.162 42.907 43.381 17.063z" fill="url(#paint17_radial_302_24486)"/></g></g><defs><linearGradient id="paint0_linear_302_24486" x1="382.884" y1="-18.509" x2="407.193" y2="8.585" gradientUnits="userSpaceOnUse"><stop offset=".017" stop-color="#FFA24D"/><stop offset="1" stop-color="#F7D5AC"/></linearGradient><linearGradient id="paint1_linear_302_24486" x1="382.882" y1="-18.51" x2="407.191" y2="8.584" gradientUnits="userSpaceOnUse"><stop offset=".017" stop-color="#FFA24D"/><stop offset="1" stop-color="#FDF5EA"/></linearGradient><linearGradient id="paint2_linear_302_24486" x1="469.657" y1="46.143" x2="448.967" y2="-10.364" gradientUnits="userSpaceOnUse"><stop offset=".426" stop-color="#C54A4F"/><stop offset="1" stop-color="#953134"/></linearGradient><linearGradient id="paint3_linear_302_24486" x1="397.908" y1="30.993" x2="408.581" y2="-22.61" gradientUnits="userSpaceOnUse"><stop/><stop offset="1" stop-opacity="0"/></linearGradient><linearGradient id="paint4_linear_302_24486" x1="359.106" y1="-14.938" x2="402.468" y2="13.541" gradientUnits="userSpaceOnUse"><stop stop-color="#EBA67C"/><stop offset=".526" stop-color="#FCCAAE"/><stop offset="1" stop-color="#E5846D"/></linearGradient><linearGradient id="paint5_linear_302_24486" x1="339.89" y1="41.765" x2="364.253" y2="68.811" gradientUnits="userSpaceOnUse"><stop offset=".017" stop-color="#FF4D62"/><stop offset="1" stop-color="#F7ACBE"/></linearGradient><linearGradient id="paint6_linear_302_24486" x1="339.889" y1="41.765" x2="364.252" y2="68.811" gradientUnits="userSpaceOnUse"><stop offset=".017" stop-color="#FFA24D"/><stop offset="1" stop-color="#FDF5EA"/></linearGradient><linearGradient id="paint8_linear_302_24486" x1="426.791" y1="106.243" x2="405.988" y2="49.778" gradientUnits="userSpaceOnUse"><stop offset=".426" stop-color="#C5854A"/><stop offset="1" stop-color="#953731"/></linearGradient><linearGradient id="paint9_linear_302_24486" x1="355.011" y1="91.236" x2="365.578" y2="37.613" gradientUnits="userSpaceOnUse"><stop/><stop offset="1" stop-opacity="0"/></linearGradient><linearGradient id="paint11_linear_302_24486" x1="316.118" y1="45.382" x2="359.537" y2="73.775" gradientUnits="userSpaceOnUse"><stop stop-color="#FC8E6B"/><stop offset=".526" stop-color="#FFC081"/><stop offset="1" stop-color="#FBC471"/></linearGradient><linearGradient id="paint12_linear_302_24486" x1="221.869" y1="-28.433" x2="246.232" y2="-1.387" gradientUnits="userSpaceOnUse"><stop offset=".017" stop-color="#FFA24D"/><stop offset="1" stop-color="#F7D5AC"/></linearGradient><linearGradient id="paint13_linear_302_24486" x1="308.77" y1="36.046" x2="287.968" y2="-20.419" gradientUnits="userSpaceOnUse"><stop offset=".426" stop-color="#C54A4F"/><stop offset="1" stop-color="#953134"/></linearGradient><linearGradient id="paint14_linear_302_24486" x1="236.991" y1="21.039" x2="247.558" y2="-32.585" gradientUnits="userSpaceOnUse"><stop/><stop offset="1" stop-opacity="0"/></linearGradient><linearGradient id="paint15_linear_302_24486" x1="198.097" y1="-24.815" x2="241.516" y2="3.577" gradientUnits="userSpaceOnUse"><stop stop-color="#EBA67C"/><stop offset=".526" stop-color="#FCCAAE"/><stop offset="1" stop-color="#E5846D"/></linearGradient><radialGradient id="paint7_radial_302_24486" cx="0" cy="0" r="1" gradientUnits="userSpaceOnUse" gradientTransform="rotate(-178.594 175.527 16.03) scale(140.71 162.32)"><stop stop-color="#EE995B"/><stop offset=".385" stop-color="#FFD9C7"/></radialGradient><radialGradient id="paint10_radial_302_24486" cx="0" cy="0" r="1" gradientUnits="userSpaceOnUse" gradientTransform="rotate(-31.639 241.137 -606.54) scale(80.3679 113.553)"><stop stop-color="#F9C1A3"/><stop offset=".385" stop-color="#E6B18A"/></radialGradient><radialGradient id="paint16_radial_302_24486" cx="0" cy="0" r="1" gradientUnits="userSpaceOnUse" gradientTransform="rotate(-178.48 154.58 46.409) scale(140.71 162.32)"><stop stop-color="#EE995B"/><stop offset=".385" stop-color="#FFD9C7"/></radialGradient><radialGradient id="paint17_radial_302_24486" cx="0" cy="0" r="1" gradientUnits="userSpaceOnUse" gradientTransform="rotate(-31.525 327.266 -502.946) scale(80.3679 113.553)"><stop stop-color="#F9C1A3"/><stop offset=".385" stop-color="#E6B18A"/></radialGradient><clipPath id="clip0_302_24486"><path fill="#fff" d="M0 0h432v86H0z"/></clipPath><filter id="filter1_f_302_24486" x="308.204" y="27.875" width="65.907" height="28.555" filterUnits="userSpaceOnUse" color-interpolation-filters="sRGB"><feFlood flood-opacity="0" result="BackgroundImageFix"/><feBlend in="SourceGraphic" in2="BackgroundImageFix" result="shape"/><feGaussianBlur stdDeviation="2.916" result="effect1_foregroundBlur_302_24486"/></filter></defs></svg>