<svg width="432" height="86" viewBox="0 0 432 86" fill="none" xmlns="http://www.w3.org/2000/svg"><g clip-path="url(#clip0_302_23373)"><mask id="a" style="mask-type:alpha" maskUnits="userSpaceOnUse" x="33" y="-81" width="399" height="248"><path d="M33.45-75.5A4.55 4.55 0 0138-80.05h389a4.55 4.55 0 014.55 4.55v237a4.55 4.55 0 01-4.55 4.55H38a4.55 4.55 0 01-4.55-4.55v-237z" fill="#16181D" stroke="#5D5F65" stroke-width=".9"/></mask><g mask="url(#a)"><path d="M438.826-6.388a42.89 42.89 0 00-13.96-9.475 42.382 42.382 0 00-16.474-3.314 42.498 42.498 0 00-16.482 3.351 43.142 43.142 0 00-13.979 9.506 43.973 43.973 0 00-9.35 14.215 44.504 44.504 0 00-3.296 16.758 44.375 44.375 0 003.26 16.751 43.706 43.706 0 009.319 14.194l30.481-30.993 30.481-30.993z" fill="url(#paint0_angular_302_23373)"/><path d="M438.826-6.388a42.89 42.89 0 00-13.96-9.475 42.382 42.382 0 00-16.474-3.314 42.498 42.498 0 00-16.482 3.351 43.142 43.142 0 00-13.979 9.506 43.973 43.973 0 00-9.35 14.215 44.504 44.504 0 00-3.296 16.758 44.375 44.375 0 003.26 16.751 43.706 43.706 0 009.319 14.194l30.481-30.993 30.481-30.993z" fill="url(#paint1_linear_302_23373)"/><path d="M377.997 55.733a42.886 42.886 0 0013.959 9.475 42.39 42.39 0 0032.956-.036 43.146 43.146 0 0013.98-9.507c4.003-4.07 7.18-8.9 9.35-14.214a44.484 44.484 0 00.036-33.51 43.722 43.722 0 00-9.319-14.193l-30.481 30.993-30.481 30.992z" fill="url(#paint2_radial_302_23373)"/><path d="M377.837 55.581c2.895 2.944 6.55 5.057 10.757 6.22 4.206 1.161 8.882 1.35 13.76.553s9.862-2.563 14.668-5.197c4.807-2.633 9.341-6.084 13.344-10.154s7.397-8.681 9.987-13.568c2.591-4.887 4.328-9.955 5.111-14.915.784-4.96.599-9.714-.544-13.991-1.143-4.277-3.221-7.994-6.116-10.938L408.32 24.586l-30.483 30.995z" fill="url(#paint3_radial_302_23373)"/><path d="M377.837 55.581c2.132 2.168 5.033 3.514 8.535 3.96 3.502.445 7.538-.017 11.876-1.362 4.339-1.345 8.896-3.546 13.41-6.476 4.515-2.931 8.899-6.534 12.902-10.605 4.003-4.07 7.547-8.528 10.429-13.118 2.883-4.59 5.047-9.224 6.37-13.635 1.322-4.412 1.777-8.515 1.339-12.076-.438-3.561-1.762-6.51-3.894-8.678L408.32 24.586 377.837 55.58z" fill="url(#paint4_radial_302_23373)"/><path d="M377.837 55.581c1.442 1.466 3.658 2.116 6.521 1.912 2.864-.203 6.32-1.256 10.17-3.097 3.85-1.842 8.019-4.437 12.269-7.636 4.25-3.2 8.498-6.941 12.501-11.012 4.003-4.07 7.683-8.39 10.83-12.71 3.147-4.322 5.699-8.561 7.51-12.476 1.811-3.915 2.847-7.428 3.047-10.34.2-2.912-.439-5.165-1.881-6.631l-30.483 30.995-30.484 30.995z" fill="url(#paint5_linear_302_23373)"/><path d="M256.008 55.726a42.891 42.891 0 0013.96 9.476 42.384 42.384 0 0016.474 3.314 42.498 42.498 0 0016.482-3.351 43.144 43.144 0 0013.979-9.506c4.003-4.07 7.18-8.9 9.35-14.215a44.504 44.504 0 003.296-16.758 44.375 44.375 0 00-3.26-16.751A43.706 43.706 0 00316.97-6.26l-30.481 30.993-30.481 30.992z" fill="url(#paint6_angular_302_23373)"/><path d="M256.008 55.726a42.891 42.891 0 0013.96 9.476 42.384 42.384 0 0016.474 3.314 42.498 42.498 0 0016.482-3.351 43.144 43.144 0 0013.979-9.506c4.003-4.07 7.18-8.9 9.35-14.215a44.504 44.504 0 003.296-16.758 44.375 44.375 0 00-3.26-16.751A43.706 43.706 0 00316.97-6.26l-30.481 30.993-30.481 30.992z" fill="url(#paint7_linear_302_23373)"/><path d="M316.837-6.395a42.886 42.886 0 00-13.959-9.475 42.39 42.39 0 00-32.956.037 43.147 43.147 0 00-13.98 9.506 43.954 43.954 0 00-9.349 14.214 44.465 44.465 0 00-.036 33.51 43.703 43.703 0 009.318 14.193l30.481-30.992 30.481-30.993z" fill="url(#paint8_radial_302_23373)"/><path d="M316.997-6.242c-2.895-2.944-6.55-5.057-10.757-6.22-4.206-1.161-8.882-1.35-13.76-.553s-9.862 2.563-14.668 5.197c-4.807 2.634-9.341 6.084-13.344 10.155-4.003 4.07-7.397 8.68-9.988 13.568-2.59 4.886-4.327 9.955-5.11 14.914-.784 4.96-.599 9.714.544 13.991 1.143 4.278 3.221 7.994 6.116 10.938l30.484-30.995 30.483-30.995z" fill="url(#paint9_radial_302_23373)"/><path d="M316.997-6.242c-2.132-2.169-5.033-3.514-8.535-3.96-3.502-.446-7.538.017-11.876 1.362-4.339 1.345-8.896 3.546-13.41 6.476-4.515 2.93-8.899 6.534-12.902 10.605-4.003 4.07-7.547 8.528-10.429 13.118-2.883 4.59-5.047 9.223-6.37 13.635-1.322 4.411-1.777 8.515-1.339 12.076.438 3.56 1.762 6.51 3.894 8.678l30.484-30.995 30.483-30.995z" fill="url(#paint10_radial_302_23373)"/><path d="M316.997-6.242c-1.442-1.466-3.658-2.116-6.522-1.913-2.863.204-6.319 1.256-10.169 3.098-3.85 1.842-8.019 4.436-12.269 7.636s-8.498 6.941-12.501 11.012c-4.003 4.07-7.683 8.39-10.83 12.71-3.147 4.322-5.699 8.561-7.51 12.476-1.811 3.915-2.847 7.428-3.047 10.34-.2 2.912.439 5.165 1.881 6.63l30.483-30.994 30.484-30.995z" fill="url(#paint11_linear_302_23373)"/><path d="M377.941 117.611a43.699 43.699 0 009.318-14.194 44.465 44.465 0 00-.036-33.509 43.955 43.955 0 00-9.349-14.214 43.148 43.148 0 00-13.98-9.507 42.392 42.392 0 00-32.956-.037 42.886 42.886 0 00-13.959 9.476l30.481 30.992 30.481 30.993z" fill="url(#paint12_angular_302_23373)"/><path d="M377.941 117.611a43.699 43.699 0 009.318-14.194 44.465 44.465 0 00-.036-33.509 43.955 43.955 0 00-9.349-14.214 43.148 43.148 0 00-13.98-9.507 42.392 42.392 0 00-32.956-.037 42.886 42.886 0 00-13.959 9.476l30.481 30.992 30.481 30.993z" fill="url(#paint13_linear_302_23373)"/><path d="M316.845 55.761a43.703 43.703 0 00-9.318 14.194 44.465 44.465 0 00.036 33.51 43.956 43.956 0 009.349 14.213 43.149 43.149 0 0013.98 9.507 42.386 42.386 0 0032.956.036 42.88 42.88 0 0013.959-9.475l-30.481-30.992-30.481-30.993z" fill="url(#paint14_radial_302_23373)"/><path d="M316.995 55.599c-2.895 2.944-4.973 6.66-6.116 10.938-1.143 4.277-1.328 9.031-.544 13.99.783 4.96 2.52 10.028 5.11 14.915 2.591 4.888 5.984 9.498 9.988 13.568 4.003 4.071 8.537 7.521 13.343 10.155 4.807 2.634 9.791 4.4 14.669 5.197 4.878.796 9.553.608 13.76-.554 4.207-1.162 7.862-3.275 10.757-6.219l-30.483-30.995-30.484-30.995z" fill="url(#paint15_radial_302_23373)"/><path d="M316.994 55.599c-2.132 2.168-3.455 5.117-3.894 8.678-.438 3.561.017 7.665 1.34 12.076 1.322 4.412 3.487 9.045 6.369 13.635 2.882 4.59 6.426 9.048 10.429 13.118 4.003 4.071 8.387 7.674 12.902 10.605 4.514 2.93 9.071 5.131 13.41 6.476 4.338 1.345 8.374 1.808 11.876 1.362 3.503-.446 6.403-1.791 8.535-3.96l-30.483-30.995L316.994 55.6z" fill="url(#paint16_radial_302_23373)"/><path d="M316.995 55.6c-1.442 1.465-2.081 3.718-1.88 6.63.2 2.912 1.235 6.425 3.046 10.34 1.811 3.915 4.363 8.154 7.51 12.475 3.147 4.322 6.827 8.64 10.83 12.711s8.251 7.812 12.501 11.012 8.419 5.794 12.269 7.636c3.85 1.842 7.306 2.894 10.17 3.098 2.863.203 5.079-.447 6.521-1.912l-30.483-30.996L316.995 55.6z" fill="url(#paint17_linear_302_23373)"/></g></g><defs><radialGradient id="paint0_angular_302_23373" cx="0" cy="0" r="1" gradientUnits="userSpaceOnUse" gradientTransform="rotate(108.119 195.254 160.319) scale(39.4778 43.5362)"><stop stop-color="#BF3A86"/><stop offset="1" stop-color="#651A45"/></radialGradient><radialGradient id="paint2_radial_302_23373" cx="0" cy="0" r="1" gradientUnits="userSpaceOnUse" gradientTransform="matrix(125.25828 127.361 -127.62266 125.51562 408.478 24.74)"><stop offset=".162" stop-color="#360F24"/><stop offset=".277" stop-color="#7A1262"/></radialGradient><radialGradient id="paint3_radial_302_23373" cx="0" cy="0" r="1" gradientUnits="userSpaceOnUse" gradientTransform="matrix(90.795 92.3195 -127.63358 125.52592 408.32 24.587)"><stop offset=".115" stop-color="#360F24"/><stop offset=".277" stop-color="#AB2E80"/></radialGradient><radialGradient id="paint4_radial_302_23373" cx="0" cy="0" r="1" gradientUnits="userSpaceOnUse" gradientTransform="rotate(45.477 174.828 499.435) scale(95.3825 179.017)"><stop offset=".115" stop-color="#360F24"/><stop offset=".237" stop-color="#D24F90"/></radialGradient><radialGradient id="paint6_angular_302_23373" cx="0" cy="0" r="1" gradientUnits="userSpaceOnUse" gradientTransform="matrix(12.27726 -37.5202 41.37736 13.5394 286.487 24.734)"><stop stop-color="#BF3A86"/><stop offset="1" stop-color="#651A45"/></radialGradient><radialGradient id="paint8_radial_302_23373" cx="0" cy="0" r="1" gradientUnits="userSpaceOnUse" gradientTransform="rotate(-134.523 148.332 -47.707) scale(178.635 179.002)"><stop offset=".162" stop-color="#360F24"/><stop offset=".277" stop-color="#7A1262"/></radialGradient><radialGradient id="paint9_radial_302_23373" cx="0" cy="0" r="1" gradientUnits="userSpaceOnUse" gradientTransform="rotate(-134.523 148.444 -47.662) scale(129.486 179.017)"><stop offset=".115" stop-color="#360F24"/><stop offset=".277" stop-color="#AB2E80"/></radialGradient><radialGradient id="paint10_radial_302_23373" cx="0" cy="0" r="1" gradientUnits="userSpaceOnUse" gradientTransform="rotate(-134.523 148.444 -47.662) scale(95.3825 179.017)"><stop offset=".115" stop-color="#360F24"/><stop offset=".237" stop-color="#D24F90"/></radialGradient><radialGradient id="paint12_angular_302_23373" cx="0" cy="0" r="1" gradientUnits="userSpaceOnUse" gradientTransform="rotate(-161.31 180.857 14.72) scale(38.9551 44.1204)"><stop stop-color="#BF3A86"/><stop offset="1" stop-color="#651A45"/></radialGradient><radialGradient id="paint14_radial_302_23373" cx="0" cy="0" r="1" gradientUnits="userSpaceOnUse" gradientTransform="rotate(134.523 155.484 116.159) scale(178.635 179.002)"><stop offset=".162" stop-color="#360F24"/><stop offset=".277" stop-color="#7A1262"/></radialGradient><radialGradient id="paint15_radial_302_23373" cx="0" cy="0" r="1" gradientUnits="userSpaceOnUse" gradientTransform="rotate(134.523 155.594 116.111) scale(129.486 179.017)"><stop offset=".115" stop-color="#360F24"/><stop offset=".277" stop-color="#AB2E80"/></radialGradient><radialGradient id="paint16_radial_302_23373" cx="0" cy="0" r="1" gradientUnits="userSpaceOnUse" gradientTransform="rotate(134.523 155.593 116.11) scale(95.3825 179.017)"><stop offset=".115" stop-color="#360F24"/><stop offset=".237" stop-color="#D24F90"/></radialGradient><linearGradient id="paint1_linear_302_23373" x1="346.169" y1="-33.259" x2="406.629" y2="26.297" gradientUnits="userSpaceOnUse"><stop offset=".566" stop-color="#AC2E80"/><stop offset=".989" stop-color="#360832"/></linearGradient><linearGradient id="paint5_linear_302_23373" x1="419.298" y1="35.748" x2="396.977" y2="13.796" gradientUnits="userSpaceOnUse"><stop stop-color="#E3729D"/><stop offset="1" stop-color="#FDABCA"/></linearGradient><linearGradient id="paint7_linear_302_23373" x1="348.665" y1="82.597" x2="288.205" y2="23.042" gradientUnits="userSpaceOnUse"><stop offset=".566" stop-color="#AC2E80"/><stop offset=".989" stop-color="#360832"/></linearGradient><linearGradient id="paint11_linear_302_23373" x1="275.536" y1="13.591" x2="297.857" y2="35.543" gradientUnits="userSpaceOnUse"><stop stop-color="#E3729D"/><stop offset="1" stop-color="#FDABCA"/></linearGradient><linearGradient id="paint13_linear_302_23373" x1="404.368" y1="23.399" x2="343.816" y2="82.858" gradientUnits="userSpaceOnUse"><stop offset=".566" stop-color="#FDA8B5"/><stop offset=".989" stop-color="#ED78A5"/></linearGradient><linearGradient id="paint17_linear_302_23373" x1="336.501" y1="97.756" x2="358.822" y2="75.804" gradientUnits="userSpaceOnUse"><stop stop-color="#E3729D"/><stop offset="1" stop-color="#FDABCA"/></linearGradient><clipPath id="clip0_302_23373"><path fill="#fff" d="M0 0h432v86H0z"/></clipPath></defs></svg>