<svg width="2480" height="606" viewBox="0 0 2480 606" fill="none" xmlns="http://www.w3.org/2000/svg"><mask id="a" style="mask-type:alpha" maskUnits="userSpaceOnUse" x="1534" y="0" width="946" height="606"><path d="M1534 606V0h946v606h-946z" fill="#121C31"/></mask><g mask="url(#a)"><g opacity=".75" fill="#000" stroke-width="1.701"><path d="M2354.78 162.858l73-11.294.17-.027c3.22-.498 5.04-.779 6.58-1.293 2.06-.687 3.77-1.673 4.96-2.862.89-.891 1.38-1.939 2.24-3.797l.04-.1 19.57-42.14.04-.1c.87-1.858 1.35-2.906 1.35-3.936 0-1.372-.62-2.72-1.81-3.909-.89-.892-2.22-1.659-4.58-3.02l-.12-.072-93.67-54.074-.03-.017c-1.69-.976-3-1.731-4.12-2.297-1.14-.573-2.15-.982-3.25-1.246a19.347 19.347 0 00-8.77 0c-1.11.264-2.11.673-3.25 1.246-1.12.566-2.43 1.32-4.12 2.298l-.03.016L2242 92.22l-.03.016c-1.69.977-3 1.732-3.98 2.381-.99.656-1.7 1.237-2.16 1.875-1.16 1.62-1.16 3.442 0 5.063.46.638 1.17 1.218 2.16 1.875.98.649 2.29 1.404 3.98 2.381l.03.016 93.67 54.074.12.073c2.36 1.36 3.69 2.127 5.23 2.642 2.06.687 4.4 1.048 6.77 1.048 1.79 0 3.6-.281 6.82-.779l.14-.022.03-.005z" stroke="url(#paint0_linear_83_11984)"/><path d="M2540.01 269.788h0l73-11.294.17-.028c3.22-.498 5.03-.778 6.58-1.292 2.06-.686 3.77-1.674 4.95-2.862.9-.892 1.38-1.94 2.24-3.798l.05-.1 19.56-42.14.05-.1c.86-1.858 1.35-2.906 1.35-3.936 0-1.372-.63-2.72-1.81-3.908-.9-.892-2.22-1.659-4.58-3.02l-.13-.073-93.66-54.073-.03-.017c-1.7-.977-3-1.732-4.13-2.298-1.13-.572-2.14-.981-3.24-1.245-2.81-.672-5.97-.672-8.77 0-1.11.264-2.12.673-3.25 1.245-1.13.567-2.43 1.321-4.13 2.298l-.03.017-96.97 55.986-.03.016c-1.69.976-3 1.732-3.98 2.38-.99.658-1.7 1.238-2.16 1.876-1.16 1.62-1.16 3.442 0 5.062.46.638 1.17 1.22 2.16 1.876.98.648 2.29 1.404 3.98 2.38l.03.016 93.66 54.074.13.074c2.36 1.36 3.68 2.128 5.23 2.642 2.06.686 4.39 1.048 6.77 1.048 1.78 0 3.6-.282 6.82-.78l.14-.022h0l.03-.004z" stroke="url(#paint1_linear_83_11984)"/><path d="M2187.6 259.374h0l72.99-11.294.18-.028c3.21-.498 5.03-.778 6.57-1.292 2.06-.686 3.77-1.674 4.96-2.862.89-.892 1.38-1.94 2.24-3.798l.05-.1 19.56-42.14.05-.099c.86-1.859 1.35-2.907 1.35-3.936 0-1.373-.63-2.721-1.82-3.909-.89-.892-2.22-1.659-4.58-3.02l-.12-.073-93.67-54.073-.03-.017c-1.69-.977-3-1.732-4.12-2.298-1.14-.572-2.14-.981-3.25-1.246a19.342 19.342 0 00-8.77.001c-1.1.264-2.11.673-3.25 1.245-1.12.566-2.43 1.321-4.12 2.298l-.03.017-96.98 55.986-.03.016c-1.69.977-3 1.732-3.98 2.381-.99.656-1.7 1.237-2.15 1.875-1.17 1.62-1.17 3.442 0 5.062.45.639 1.16 1.219 2.15 1.876.98.648 2.29 1.404 3.98 2.38l.03.016 93.67 54.074.13.074c2.35 1.36 3.68 2.128 5.23 2.642 2.05.686 4.39 1.048 6.77 1.048 1.78 0 3.6-.282 6.81-.78l.15-.022.03-.004z" stroke="url(#paint2_linear_83_11984)"/><path d="M2372.83 366.308l72.99-11.296.17-.026c3.22-.498 5.04-.778 6.58-1.294 2.06-.686 3.77-1.672 4.96-2.86.89-.892 1.37-1.94 2.24-3.798l.04-.1 19.57-42.14.04-.1c.87-1.858 1.35-2.906 1.35-3.936 0-1.372-.62-2.72-1.81-3.908-.89-.892-2.22-1.66-4.58-3.02l-.12-.074-93.67-54.072-.03-.018c-1.69-.976-3-1.732-4.12-2.296-1.14-.574-2.15-.982-3.25-1.246a19.328 19.328 0 00-8.77 0c-1.11.264-2.11.672-3.25 1.246-1.12.566-2.43 1.32-4.12 2.296l-.03.018-96.98 55.986-.03.016c-1.69.976-3 1.732-3.98 2.38-.99.656-1.7 1.238-2.16 1.876-1.16 1.62-1.16 3.442 0 5.062.46.638 1.17 1.218 2.16 1.876.98.648 2.29 1.404 3.98 2.38l.03.016 93.67 54.074.12.074c2.36 1.36 3.69 2.126 5.23 2.642 2.06.686 4.4 1.046 6.77 1.046 1.79 0 3.6-.28 6.82-.778l.14-.022.04-.004z" stroke="url(#paint3_linear_83_11984)"/><path d="M2212.28 464.154l73-11.294.17-.026c3.22-.498 5.04-.778 6.58-1.294 2.06-.686 3.77-1.672 4.96-2.86.89-.892 1.38-1.94 2.24-3.798l.04-.1 19.57-42.14.04-.1c.87-1.858 1.35-2.906 1.35-3.936 0-1.372-.62-2.72-1.81-3.91-.89-.89-2.22-1.658-4.58-3.018l-.12-.074-93.67-54.074-.03-.016c-1.69-.976-3-1.732-4.12-2.298-1.14-.572-2.15-.98-3.25-1.246-2.81-.67-5.96-.67-8.77 0-1.11.266-2.11.674-3.25 1.246-1.12.566-2.43 1.322-4.12 2.298l-.03.016-96.98 55.986-.03.016c-1.69.978-3 1.732-3.98 2.382-.99.656-1.7 1.236-2.16 1.874-1.16 1.622-1.16 3.442 0 5.064.46.638 1.17 1.218 2.16 1.874.98.65 2.29 1.404 3.98 2.382l.03.016 93.67 54.074.12.072c2.36 1.362 3.69 2.128 5.23 2.644 2.06.686 4.4 1.046 6.77 1.046 1.79 0 3.6-.28 6.82-.778l.14-.022.03-.006z" stroke="url(#paint4_linear_83_11984)"/><path d="M2397.51 571.088h0l73-11.294.17-.026c3.22-.498 5.03-.78 6.58-1.294 2.06-.686 3.77-1.672 4.95-2.862.9-.89 1.38-1.938 2.24-3.796l.05-.1 19.56-42.14.05-.1c.86-1.858 1.35-2.906 1.35-3.936 0-1.372-.63-2.72-1.81-3.91-.9-.892-2.22-1.658-4.58-3.018l-.13-.074-93.66-54.074-.03-.016c-1.7-.976-3-1.732-4.13-2.298-1.13-.572-2.14-.982-3.25-1.246-2.8-.672-5.96-.672-8.76 0-1.11.264-2.12.674-3.25 1.246-1.13.566-2.43 1.322-4.13 2.298l-.03.016-96.97 55.986-.03.016c-1.69.978-3 1.732-3.98 2.382-.99.656-1.7 1.236-2.16 1.874-1.16 1.622-1.16 3.442 0 5.064.46.638 1.17 1.218 2.16 1.874.98.65 2.29 1.404 3.98 2.382l.03.016 93.66 54.074.13.072c2.36 1.36 3.68 2.128 5.23 2.642 2.06.686 4.39 1.048 6.77 1.048 1.78 0 3.6-.28 6.82-.778l.14-.022v-.002l.03-.004z" stroke="url(#paint5_linear_83_11984)"/><path d="M2045.1 560.674h0l72.99-11.294.18-.026c3.21-.498 5.03-.78 6.57-1.294 2.06-.686 3.77-1.672 4.96-2.862.89-.89 1.38-1.938 2.24-3.796l.05-.1 19.56-42.14.05-.1c.86-1.858 1.35-2.906 1.35-3.936 0-1.372-.63-2.722-1.82-3.91-.89-.892-2.22-1.658-4.58-3.018l-.12-.074-93.67-54.074-.03-.016c-1.69-.978-3-1.732-4.12-2.298-1.14-.572-2.14-.982-3.25-1.246a19.328 19.328 0 00-8.77 0c-1.1.264-2.11.674-3.25 1.246-1.12.566-2.43 1.322-4.12 2.298l-.03.016-96.98 55.986-.03.016c-1.69.978-3 1.732-3.98 2.382-.99.656-1.7 1.236-2.15 1.874-1.17 1.622-1.17 3.442 0 5.064.45.638 1.16 1.218 2.15 1.874.98.65 2.29 1.404 3.98 2.382l.03.016 93.67 54.074.13.072c2.35 1.36 3.68 2.128 5.23 2.642 2.05.686 4.39 1.048 6.77 1.048 1.78 0 3.6-.28 6.81-.78l.15-.022.03-.004z" stroke="url(#paint6_linear_83_11984)"/><path d="M2230.33 667.608l72.99-11.294.17-.028c3.22-.496 5.04-.778 6.58-1.292 2.06-.686 3.77-1.674 4.96-2.862.89-.892 1.37-1.938 2.24-3.796l.04-.1 19.57-42.142.04-.1c.87-1.858 1.35-2.906 1.35-3.934 0-1.374-.62-2.722-1.81-3.91-.89-.892-2.22-1.658-4.58-3.02l-.12-.072-93.67-54.074-.03-.016c-1.69-.978-3-1.732-4.12-2.298-1.14-.572-2.15-.982-3.25-1.246a19.328 19.328 0 00-8.77 0c-1.11.264-2.11.674-3.25 1.246-1.12.566-2.43 1.32-4.12 2.298l-.03.016-96.98 55.986-.03.016c-1.69.978-3 1.732-3.98 2.38-.99.658-1.7 1.238-2.16 1.876-1.16 1.62-1.16 3.442 0 5.062.46.638 1.17 1.22 2.16 1.876.98.648 2.29 1.404 3.98 2.38l.03.016 93.67 54.074.12.074c2.36 1.36 3.69 2.128 5.23 2.642 2.06.686 4.4 1.048 6.77 1.048 1.79 0 3.6-.282 6.82-.78l.14-.022.04-.004z" stroke="url(#paint7_linear_83_11984)"/><path d="M2515.25 28.03l72.99-11.294.17-.027c3.22-.498 5.04-.779 6.58-1.293 2.06-.687 3.77-1.673 4.96-2.862.89-.891 1.38-1.939 2.24-3.797l.04-.1 19.57-42.14.04-.1c.87-1.859 1.35-2.906 1.35-3.936 0-1.372-.62-2.72-1.81-3.909-.89-.892-2.22-1.659-4.58-3.02l-.12-.072-93.67-54.074-.03-.017c-1.69-.977-3-1.731-4.12-2.297-1.14-.573-2.15-.982-3.25-1.246a19.328 19.328 0 00-8.77 0c-1.11.264-2.11.673-3.25 1.246-1.12.566-2.43 1.32-4.12 2.298l-.03.016-96.98 55.986-.03.016c-1.69.977-3 1.732-3.98 2.38-.99.657-1.7 1.238-2.16 1.876-1.16 1.62-1.16 3.442 0 5.063.46.638 1.17 1.218 2.16 1.875.98.649 2.29 1.404 3.98 2.38l.03.017 93.67 54.074.12.073c2.36 1.36 3.69 2.127 5.23 2.642 2.06.686 4.4 1.048 6.77 1.048 1.79 0 3.6-.281 6.82-.78l.15-.022.03-.004z" stroke="url(#paint8_linear_83_11984)"/></g><g opacity=".75" fill="#000" stroke-width="1.701"><path d="M2154.01 53.788h0l73-11.295.17-.026c3.22-.498 5.03-.779 6.58-1.294 2.06-.686 3.77-1.673 4.95-2.861.9-.892 1.38-1.94 2.24-3.797l.05-.1 19.56-42.14.05-.1c.86-1.859 1.35-2.906 1.35-3.936 0-1.373-.63-2.72-1.81-3.91-.9-.891-2.22-1.658-4.58-3.018l-.13-.073-93.66-54.074-.03-.017c-1.7-.977-3-1.732-4.13-2.297-1.13-.573-2.14-.982-3.24-1.246-2.81-.672-5.97-.672-8.77 0-1.11.264-2.12.673-3.25 1.246-1.13.566-2.43 1.32-4.13 2.297l-.03.017-96.97 55.986-.03.016c-1.69.977-3 1.732-3.98 2.38-.99.657-1.7 1.238-2.16 1.876-1.16 1.62-1.16 3.442 0 5.063.46.638 1.17 1.218 2.16 1.875.98.649 2.29 1.404 3.98 2.38l.03.017 93.66 54.074.13.073c2.36 1.36 3.68 2.127 5.23 2.642 2.06.686 4.39 1.047 6.77 1.047 1.78 0 3.6-.28 6.82-.779l.14-.022h0l.03-.004z" stroke="url(#paint9_linear_83_11984)"/><path d="M1801.6 43.374h0l72.99-11.295.18-.026c3.21-.498 5.03-.779 6.57-1.294 2.06-.686 3.77-1.673 4.96-2.861.89-.892 1.38-1.94 2.24-3.797l.05-.1 19.56-42.14.05-.1c.86-1.859 1.35-2.907 1.35-3.936 0-1.373-.63-2.72-1.82-3.91-.89-.891-2.22-1.658-4.58-3.019l-.12-.073-93.67-54.073-.03-.017c-1.69-.977-3-1.732-4.12-2.298-1.14-.572-2.14-.981-3.25-1.246a19.347 19.347 0 00-8.77 0c-1.1.265-2.11.674-3.25 1.246-1.12.566-2.43 1.321-4.12 2.298l-.03.017-96.98 55.986-.03.016c-1.69.977-3 1.732-3.98 2.38-.99.657-1.7 1.238-2.15 1.876-1.17 1.62-1.17 3.442 0 5.063.45.637 1.16 1.218 2.15 1.875.98.649 2.29 1.403 3.98 2.38l.03.017 93.67 54.073.13.073c2.35 1.361 3.68 2.128 5.23 2.643 2.05.686 4.39 1.047 6.77 1.047 1.78 0 3.6-.28 6.81-.779l.15-.023.03-.003z" stroke="url(#paint10_linear_83_11984)"/><path d="M1986.82 150.307l73-11.294.17-.027c3.22-.498 5.04-.778 6.58-1.293 2.06-.686 3.77-1.673 4.96-2.861.89-.892 1.37-1.94 2.24-3.798l.04-.099 19.57-42.141.04-.1c.87-1.858 1.35-2.906 1.35-3.936 0-1.372-.62-2.72-1.81-3.909-.89-.892-2.22-1.659-4.58-3.019l-.12-.073-93.67-54.074-.03-.016c-1.69-.977-3-1.732-4.12-2.298-1.14-.573-2.15-.982-3.25-1.246a19.347 19.347 0 00-8.77 0c-1.11.264-2.11.673-3.25 1.246-1.12.566-2.43 1.321-4.12 2.298l-.03.016-96.98 55.986-.03.016c-1.69.977-3 1.732-3.98 2.381-.99.657-1.7 1.237-2.16 1.875-1.16 1.621-1.16 3.442 0 5.063.46.638 1.17 1.219 2.16 1.875.98.65 2.29 1.404 3.98 2.381l.03.016 93.67 54.074.12.073c2.36 1.361 3.69 2.128 5.23 2.643 2.06.686 4.4 1.047 6.77 1.047 1.79 0 3.6-.281 6.82-.779l.14-.022.03-.005z" stroke="url(#paint11_linear_83_11984)"/><path d="M1826.28 248.154l73-11.294.17-.026c3.22-.498 5.04-.778 6.58-1.294 2.06-.686 3.77-1.672 4.96-2.86.89-.892 1.38-1.94 2.24-3.798l.04-.1 19.57-42.14.04-.1c.87-1.859 1.35-2.906 1.35-3.936 0-1.372-.62-2.721-1.81-3.909-.89-.892-2.22-1.659-4.58-3.019l-.12-.073-93.67-54.074-.03-.017c-1.69-.977-3-1.731-4.12-2.297-1.14-.573-2.15-.982-3.25-1.246a19.328 19.328 0 00-8.77 0c-1.11.264-2.11.673-3.25 1.246-1.12.566-2.43 1.321-4.12 2.298l-.03.016-96.98 55.986-.03.016c-1.69.977-3 1.732-3.98 2.381-.99.656-1.7 1.237-2.16 1.875-1.16 1.621-1.16 3.442 0 5.063.46.638 1.17 1.218 2.16 1.875.98.649 2.29 1.404 3.98 2.381l.03.016 93.67 54.074.12.072c2.36 1.362 3.69 2.128 5.23 2.644 2.06.686 4.4 1.046 6.77 1.046 1.79 0 3.6-.28 6.82-.778l.14-.022.03-.006z" stroke="url(#paint12_linear_83_11984)"/><path d="M2011.51 355.088h0l73-11.294.17-.026c3.22-.498 5.03-.78 6.58-1.294 2.06-.686 3.77-1.672 4.95-2.862.9-.89 1.38-1.938 2.24-3.796l.05-.1 19.56-42.14.05-.1c.86-1.858 1.35-2.906 1.35-3.936 0-1.372-.63-2.72-1.81-3.91-.9-.892-2.22-1.658-4.58-3.018l-.13-.074-93.66-54.074-.03-.016c-1.7-.976-3-1.732-4.13-2.298-1.13-.572-2.14-.982-3.25-1.246-2.8-.672-5.96-.672-8.76 0-1.11.264-2.12.674-3.25 1.246-1.13.566-2.43 1.322-4.13 2.298l-.03.016-96.97 55.986-.03.016c-1.69.978-3 1.732-3.98 2.382-.99.656-1.7 1.236-2.16 1.874-1.16 1.622-1.16 3.442 0 5.064.46.638 1.17 1.218 2.16 1.874.98.65 2.29 1.404 3.98 2.382l.03.016 93.66 54.074.13.072c2.36 1.36 3.68 2.128 5.23 2.642 2.06.686 4.39 1.048 6.77 1.048 1.78 0 3.6-.28 6.82-.778l.14-.022v-.002l.03-.004z" stroke="url(#paint13_linear_83_11984)"/><path d="M1659.1 344.674h0l72.99-11.294.18-.026c3.21-.498 5.03-.78 6.57-1.294 2.06-.686 3.77-1.672 4.96-2.862.89-.89 1.38-1.938 2.24-3.796l.05-.1 19.56-42.14.05-.1c.86-1.858 1.35-2.906 1.35-3.936 0-1.372-.63-2.722-1.82-3.91-.89-.892-2.22-1.658-4.58-3.018l-.12-.074-93.67-54.074-.03-.016c-1.69-.978-3-1.732-4.12-2.298-1.14-.572-2.14-.982-3.25-1.246a19.328 19.328 0 00-8.77 0c-1.1.264-2.11.674-3.25 1.246-1.12.566-2.43 1.322-4.12 2.298l-.03.016-96.98 55.986-.03.016c-1.69.978-3 1.732-3.98 2.382-.99.656-1.7 1.236-2.15 1.874-1.17 1.622-1.17 3.442 0 5.064.45.638 1.16 1.218 2.15 1.874.98.65 2.29 1.404 3.98 2.382l.03.016 93.67 54.074.13.072c2.35 1.36 3.68 2.128 5.23 2.642 2.05.686 4.39 1.048 6.77 1.048 1.78 0 3.6-.28 6.81-.78l.15-.022h0l.03-.004z" stroke="url(#paint14_linear_83_11984)"/><path d="M1844.32 451.608l73-11.294.17-.028c3.22-.496 5.04-.778 6.58-1.292 2.06-.686 3.77-1.674 4.96-2.862.89-.892 1.37-1.938 2.24-3.796l.04-.1 19.57-42.142.04-.1c.87-1.858 1.35-2.906 1.35-3.934 0-1.374-.62-2.722-1.81-3.91-.89-.892-2.22-1.658-4.58-3.02l-.13-.072-93.66-54.074-.03-.016c-1.69-.978-3-1.732-4.12-2.298-1.14-.572-2.15-.982-3.25-1.246a19.328 19.328 0 00-8.77 0c-1.11.264-2.11.674-3.25 1.246-1.12.566-2.43 1.32-4.12 2.298l-.03.016-96.98 55.986-.03.016c-1.69.978-3 1.732-3.98 2.38-.99.658-1.7 1.238-2.16 1.876-1.16 1.62-1.16 3.442 0 5.062.46.638 1.17 1.22 2.16 1.876.98.648 2.29 1.404 3.98 2.38l.03.016 93.67 54.074.12.074c2.36 1.36 3.69 2.128 5.23 2.642 2.06.686 4.4 1.048 6.77 1.048 1.79 0 3.6-.282 6.82-.78l.14-.022.03-.004z" stroke="url(#paint15_linear_83_11984)"/></g><path d="M1655 214.998l110 62-25 54-90 14-111-65 116-65z" fill="url(#paint16_linear_83_11984)"/><path d="M1655 214.998l110 62-25 54-90 14-111-65 116-65z" fill="url(#paint17_radial_83_11984)" fill-opacity=".2"/><path d="M1814.24 122.534c4.76-2.668 12.33-2.662 17.08.014l96.34 54.303c3.17 1.785 4.42 4.417 3.28 6.885l-21.33 46.064c-1.12 2.438-4.42 4.344-8.64 5.002l-76.29 11.866c-4.26.664-8.8-.048-11.9-1.862l-97.32-56.99c-4.78-2.797-4.69-7.304.19-10.039l98.59-55.243z" fill="url(#paint18_linear_83_11984)"/><path d="M1814.24 122.534c4.76-2.668 12.33-2.662 17.08.014l96.34 54.303c3.17 1.785 4.42 4.417 3.28 6.885l-21.33 46.064c-1.12 2.438-4.42 4.344-8.64 5.002l-76.29 11.866c-4.26.664-8.8-.048-11.9-1.862l-97.32-56.99c-4.78-2.797-4.69-7.304.19-10.039l98.59-55.243z" fill="url(#paint19_radial_83_11984)" fill-opacity=".1"/><path d="M2198.23 340.534c4.76-2.668 12.34-2.662 17.09.014l96.34 54.302c3.17 1.786 4.42 4.418 3.28 6.886l-21.33 46.064c-1.13 2.438-4.42 4.344-8.64 5.002l-76.29 11.866c-4.26.664-8.81-.048-11.9-1.862l-97.33-56.99c-4.77-2.796-4.68-7.304.2-10.038l98.58-55.244z" fill="url(#paint20_linear_83_11984)"/><path d="M2198.23 340.534c4.76-2.668 12.34-2.662 17.09.014l96.34 54.302c3.17 1.786 4.42 4.418 3.28 6.886l-21.33 46.064c-1.13 2.438-4.42 4.344-8.64 5.002l-76.29 11.866c-4.26.664-8.81-.048-11.9-1.862l-97.33-56.99c-4.77-2.796-4.68-7.304.2-10.038l98.58-55.244z" fill="url(#paint21_radial_83_11984)" fill-opacity=".1"/><path d="M2342.23 36.534c4.76-2.668 12.34-2.662 17.09.014l96.34 54.303c3.17 1.785 4.42 4.417 3.28 6.886l-21.33 46.063c-1.13 2.438-4.42 4.345-8.64 5.001l-76.29 11.867c-4.26.663-8.81-.049-11.9-1.863l-97.33-56.989c-4.77-2.797-4.68-7.304.2-10.039l98.58-55.243z" fill="url(#paint22_linear_83_11984)"/><path d="M2342.23 36.534c4.76-2.668 12.34-2.662 17.09.014l96.34 54.303c3.17 1.785 4.42 4.417 3.28 6.886l-21.33 46.063c-1.13 2.438-4.42 4.345-8.64 5.001l-76.29 11.867c-4.26.663-8.81-.049-11.9-1.863l-97.33-56.989c-4.77-2.797-4.68-7.304.2-10.039l98.58-55.243z" fill="url(#paint23_radial_83_11984)" fill-opacity=".1"/><path d="M2184.79 129.74l110 62-25 54-90 14-111-64.999 116-65.001z" fill="url(#paint24_linear_83_11984)"/><path d="M2184.79 129.74l110 62-25 54-90 14-111-64.999 116-65.001z" fill="url(#paint25_radial_83_11984)" fill-opacity=".2"/><path d="M1800.79-90.26l110 62-25 54-90 14-111-65 116-65z" fill="url(#paint26_linear_83_11984)"/><path d="M1800.79-90.26l110 62-25 54-90 14-111-65 116-65z" fill="url(#paint27_radial_83_11984)" fill-opacity=".2"/><path d="M2040.79 431.74l110 62-25 54-90 14-111-65 116-65z" fill="url(#paint28_linear_83_11984)"/><path d="M2040.79 431.74l110 62-25 54-90 14-111-65 116-65z" fill="url(#paint29_radial_83_11984)" fill-opacity=".2"/></g><defs><linearGradient id="paint0_linear_83_11984" x1="2305.06" y1="141.38" x2="2364.59" y2="38.262" gradientUnits="userSpaceOnUse"><stop stop-color="#FFE58C"/><stop offset="1" stop-color="#F26B63"/></linearGradient><linearGradient id="paint1_linear_83_11984" x1="2490.28" y1="248.31" x2="2549.81" y2="145.191" gradientUnits="userSpaceOnUse"><stop stop-color="#FFB2B8"/><stop offset="1" stop-color="#C74FB8"/></linearGradient><linearGradient id="paint2_linear_83_11984" x1="2137.87" y1="237.896" x2="2197.4" y2="134.777" gradientUnits="userSpaceOnUse"><stop stop-color="#8CDEFF"/><stop offset="1" stop-color="#8763D9"/></linearGradient><linearGradient id="paint3_linear_83_11984" x1="2323.1" y1="344.83" x2="2382.63" y2="241.71" gradientUnits="userSpaceOnUse"><stop stop-color="#FFB2B8"/><stop offset="1" stop-color="#C74FB8"/></linearGradient><linearGradient id="paint4_linear_83_11984" x1="2162.56" y1="442.676" x2="2222.09" y2="339.558" gradientUnits="userSpaceOnUse"><stop stop-color="#FFE58C"/><stop offset="1" stop-color="#F26B63"/></linearGradient><linearGradient id="paint5_linear_83_11984" x1="2347.78" y1="549.61" x2="2407.31" y2="446.492" gradientUnits="userSpaceOnUse"><stop stop-color="#FFB2B8"/><stop offset="1" stop-color="#C74FB8"/></linearGradient><linearGradient id="paint6_linear_83_11984" x1="1995.37" y1="539.196" x2="2054.9" y2="436.078" gradientUnits="userSpaceOnUse"><stop stop-color="#8CDEFF"/><stop offset="1" stop-color="#8763D9"/></linearGradient><linearGradient id="paint7_linear_83_11984" x1="2180.6" y1="646.13" x2="2240.13" y2="543.012" gradientUnits="userSpaceOnUse"><stop stop-color="#FFB2B8"/><stop offset="1" stop-color="#C74FB8"/></linearGradient><linearGradient id="paint8_linear_83_11984" x1="2465.52" y1="6.552" x2="2525.05" y2="-96.567" gradientUnits="userSpaceOnUse"><stop stop-color="#FFB2B8"/><stop offset="1" stop-color="#C74FB8"/></linearGradient><linearGradient id="paint9_linear_83_11984" x1="2104.28" y1="32.31" x2="2163.81" y2="-70.809" gradientUnits="userSpaceOnUse"><stop stop-color="#FFB2B8"/><stop offset="1" stop-color="#C74FB8"/></linearGradient><linearGradient id="paint10_linear_83_11984" x1="1751.87" y1="21.896" x2="1811.4" y2="-81.223" gradientUnits="userSpaceOnUse"><stop stop-color="#8CDEFF"/><stop offset="1" stop-color="#8763D9"/></linearGradient><linearGradient id="paint11_linear_83_11984" x1="1937.1" y1="128.829" x2="1996.63" y2="25.711" gradientUnits="userSpaceOnUse"><stop stop-color="#FFB2B8"/><stop offset="1" stop-color="#C74FB8"/></linearGradient><linearGradient id="paint12_linear_83_11984" x1="1776.56" y1="226.676" x2="1836.09" y2="123.558" gradientUnits="userSpaceOnUse"><stop stop-color="#FFE58C"/><stop offset="1" stop-color="#F26B63"/></linearGradient><linearGradient id="paint13_linear_83_11984" x1="1961.78" y1="333.61" x2="2021.31" y2="230.492" gradientUnits="userSpaceOnUse"><stop stop-color="#FFB2B8"/><stop offset="1" stop-color="#C74FB8"/></linearGradient><linearGradient id="paint14_linear_83_11984" x1="1609.37" y1="323.196" x2="1668.9" y2="220.078" gradientUnits="userSpaceOnUse"><stop stop-color="#8CDEFF"/><stop offset="1" stop-color="#8763D9"/></linearGradient><linearGradient id="paint15_linear_83_11984" x1="1794.6" y1="430.13" x2="1854.13" y2="327.012" gradientUnits="userSpaceOnUse"><stop stop-color="#FFB2B8"/><stop offset="1" stop-color="#C74FB8"/></linearGradient><linearGradient id="paint16_linear_83_11984" x1="1686.89" y1="368.382" x2="1697.94" y2="257.944" gradientUnits="userSpaceOnUse"><stop stop-color="#1C1C1C"/><stop offset="1" stop-opacity="0"/></linearGradient><linearGradient id="paint18_linear_83_11984" x1="1827.89" y1="253.45" x2="1829.04" y2="167.674" gradientUnits="userSpaceOnUse"><stop stop-color="#1C1C1C"/><stop offset="1" stop-opacity="0"/></linearGradient><linearGradient id="paint20_linear_83_11984" x1="2211.88" y1="471.45" x2="2213.04" y2="385.674" gradientUnits="userSpaceOnUse"><stop stop-color="#1C1C1C"/><stop offset="1" stop-opacity="0"/></linearGradient><linearGradient id="paint22_linear_83_11984" x1="2355.88" y1="167.449" x2="2357.04" y2="81.674" gradientUnits="userSpaceOnUse"><stop stop-color="#1C1C1C"/><stop offset="1" stop-opacity="0"/></linearGradient><linearGradient id="paint24_linear_83_11984" x1="2216.68" y1="283.124" x2="2227.73" y2="172.686" gradientUnits="userSpaceOnUse"><stop stop-color="#1C1C1C"/><stop offset="1" stop-opacity="0"/></linearGradient><linearGradient id="paint26_linear_83_11984" x1="1832.68" y1="63.124" x2="1843.73" y2="-47.314" gradientUnits="userSpaceOnUse"><stop stop-color="#1C1C1C"/><stop offset="1" stop-opacity="0"/></linearGradient><linearGradient id="paint28_linear_83_11984" x1="2072.68" y1="585.124" x2="2083.73" y2="474.686" gradientUnits="userSpaceOnUse"><stop stop-color="#1C1C1C"/><stop offset="1" stop-opacity="0"/></linearGradient><radialGradient id="paint17_radial_83_11984" cx="0" cy="0" r="1" gradientUnits="userSpaceOnUse" gradientTransform="matrix(-67.58195 -225.53407 451.96091 -135.43142 1692.24 386.188)"><stop stop-color="#07ABF1" stop-opacity=".72"/><stop offset=".419" stop-color="#5E14D8" stop-opacity=".69"/><stop offset="1" stop-color="#000637" stop-opacity="0"/></radialGradient><radialGradient id="paint19_radial_83_11984" cx="0" cy="0" r="1" gradientUnits="userSpaceOnUse" gradientTransform="matrix(-7.37795 -182.1096 409.08241 -16.57348 1848.159 266.545)"><stop stop-color="#FFEC6A"/><stop offset=".339" stop-color="#FF4E54" stop-opacity=".54"/><stop offset="1" stop-color="#000637" stop-opacity="0"/></radialGradient><radialGradient id="paint21_radial_83_11984" cx="0" cy="0" r="1" gradientUnits="userSpaceOnUse" gradientTransform="matrix(-7.37795 -182.1096 409.08241 -16.57348 2232.162 484.544)"><stop stop-color="#FFEC6A"/><stop offset=".339" stop-color="#FF4E54" stop-opacity=".54"/><stop offset="1" stop-color="#000637" stop-opacity="0"/></radialGradient><radialGradient id="paint23_radial_83_11984" cx="0" cy="0" r="1" gradientUnits="userSpaceOnUse" gradientTransform="matrix(-7.37795 -182.1096 409.08241 -16.57348 2376.161 180.543)"><stop stop-color="#FFEC6A"/><stop offset=".339" stop-color="#FF4E54" stop-opacity=".54"/><stop offset="1" stop-color="#000637" stop-opacity="0"/></radialGradient><radialGradient id="paint25_radial_83_11984" cx="0" cy="0" r="1" gradientUnits="userSpaceOnUse" gradientTransform="matrix(-67.58195 -225.53407 451.96091 -135.43142 2222.03 300.93)"><stop stop-color="#07ABF1" stop-opacity=".72"/><stop offset=".419" stop-color="#5E14D8" stop-opacity=".69"/><stop offset="1" stop-color="#000637" stop-opacity="0"/></radialGradient><radialGradient id="paint27_radial_83_11984" cx="0" cy="0" r="1" gradientUnits="userSpaceOnUse" gradientTransform="matrix(-67.58195 -225.53407 451.96091 -135.43142 1838.02 80.93)"><stop stop-color="#07ABF1" stop-opacity=".72"/><stop offset=".419" stop-color="#5E14D8" stop-opacity=".69"/><stop offset="1" stop-color="#000637" stop-opacity="0"/></radialGradient><radialGradient id="paint29_radial_83_11984" cx="0" cy="0" r="1" gradientUnits="userSpaceOnUse" gradientTransform="matrix(-67.58195 -225.53407 451.96091 -135.43142 2078.03 602.93)"><stop stop-color="#07ABF1" stop-opacity=".72"/><stop offset=".419" stop-color="#5E14D8" stop-opacity=".69"/><stop offset="1" stop-color="#000637" stop-opacity="0"/></radialGradient></defs></svg>