<svg width="985" height="428" viewBox="0 0 985 428" fill="none" xmlns="http://www.w3.org/2000/svg"><g clip-path="url(#clip0_22107_228988)"><g filter="url(#filter0_f_22107_228988)"><rect width="63.019" height="63.019" rx="11.52" transform="scale(1.22477 .70706) rotate(-45 307.4 -417.83)" fill="#51579B"/></g><g filter="url(#filter1_f_22107_228988)"><rect width="63.019" height="63.019" rx="11.52" transform="scale(1.22477 .70706) rotate(-45 343.14 -330.28)" fill="#51579B"/></g><g opacity=".2"><rect x=".438" width="54.882" height="54.882" rx="9.872" transform="scale(1.22477 .70706) rotate(-45 587.06 156.285)" fill="#1A1B26" stroke="#1A1B26" stroke-width=".506"/><g clip-path="url(#clip1_22107_228988)" fill-rule="evenodd" clip-rule="evenodd" fill="#633691"><path d="M112.115 323.068l10.337-1.6 7.569 4.37-10.339 1.599-7.567-4.369zm11.055-2.015l7.569 4.37 2.768-5.968-7.567-4.368-2.77 5.966zm-22.55 3.774l7.567 4.369 10.337-1.598-7.567-4.369-10.337 1.598zm27.458 7.457l10.338-1.598-7.518-4.34-.05-.029-10.337 1.599 7.567 4.368z"/></g><rect x=".438" width="54.882" height="54.882" rx="9.872" transform="scale(1.22477 .70706) rotate(-45 599.175 -34.62)" fill="#1A1B26" stroke="#1A1B26" stroke-width=".506"/><g clip-path="url(#clip2_22107_228988)" fill-rule="evenodd" clip-rule="evenodd" fill="#633691"><path d="M281.794 289.59l10.337-1.6 7.569 4.369-10.339 1.6-7.567-4.369zm11.055-2.015l7.569 4.37 2.769-5.968-7.567-4.369-2.771 5.967zm-22.55 3.774l7.567 4.368 10.337-1.598-7.567-4.368-10.337 1.598zm27.458 7.457l10.338-1.598-7.518-4.34-.049-.029-10.338 1.598 7.567 4.369z"/></g><rect x=".438" width="54.882" height="54.882" rx="9.872" transform="scale(1.22477 .70706) rotate(-45 554.2 76.953)" fill="#1A1B26" stroke="#1A1B26" stroke-width=".506"/><g clip-path="url(#clip3_22107_228988)" fill="#237FA7"><path fill-rule="evenodd" clip-rule="evenodd" d="M163.659 291.799l12.28-1.896 16.582 9.573-12.28 1.895-16.582-9.572z"/><path d="M177.234 286.2l-13.335 2.071 3.381 1.951 9.081-1.403 10.152 5.861 4.262-.664c2.641-.409 3.442-1.529 1.758-2.501l-7.45-4.301c-1.676-.965-5.21-1.419-7.849-1.014z"/></g><rect x=".438" width="54.882" height="54.882" rx="9.872" transform="scale(1.22477 .70706) rotate(-45 566.315 -113.953)" fill="#1A1B26" stroke="#1A1B26" stroke-width=".506"/><g clip-path="url(#clip4_22107_228988)" fill="#237FA7"><path fill-rule="evenodd" clip-rule="evenodd" d="M333.338 258.32l12.28-1.895 16.582 9.572-12.28 1.896-16.582-9.573z"/><path d="M346.913 252.722l-13.335 2.07 3.381 1.952 9.081-1.403 10.152 5.861 4.262-.665c2.641-.409 3.443-1.528 1.758-2.5l-7.45-4.301c-1.676-.966-5.21-1.419-7.849-1.014z"/></g><rect x=".438" width="54.882" height="54.882" rx="9.872" transform="scale(1.22477 .70706) rotate(-45 521.338 -2.38)" fill="#1A1B26" stroke="#1A1B26" stroke-width=".506"/><g clip-path="url(#clip5_22107_228988)" fill="#830833"><path d="M247.945 266.144c-1.772 1.024-3.949 1.783-6.344 2.211a26.312 26.312 0 01-7.4.246c-2.464-.267-4.778-.877-6.742-1.777-1.963-.9-3.516-2.063-4.524-3.389-1.008-1.325-1.441-2.772-1.26-4.216.181-1.444.969-2.84 2.296-4.068 1.327-1.228 3.154-2.251 5.321-2.979 2.167-.728 4.609-1.14 7.114-1.199l.12 3.053c-1.957.058-3.842.442-5.428 1.105-1.586.664-2.805 1.579-3.508 2.634-.704 1.055-.862 2.206-.455 3.312.406 1.106 1.36 2.121 2.745 2.92 1.385.8 3.142 1.35 5.058 1.585 1.916.235 3.909.143 5.737-.263 1.829-.406 3.413-1.109 4.563-2.025 1.149-.915 1.814-2.004 1.913-3.133l5.291.069c-.159 2.227-1.764 4.338-4.497 5.914zm3.317-8.207a1.686 1.686 0 01-.646.199 2.12 2.12 0 01-.73-.041 1.35 1.35 0 01-.567-.269c-.138-.119-.212-.26-.212-.405 0-.144.074-.285.212-.405a1.35 1.35 0 01.567-.268c.231-.055.485-.07.73-.042.245.029.47.098.646.2.236.137.369.322.369.515 0 .194-.133.379-.369.516z"/><path d="M239.342 261.257c-.466.271-1.06.456-1.708.532a5.64 5.64 0 01-1.931-.106c-.612-.145-1.135-.392-1.503-.708-.369-.317-.566-.69-.567-1.072-.002-.381.194-.754.56-1.072.367-.317.889-.565 1.499-.711a5.64 5.64 0 011.931-.11c.648.074 1.244.258 1.711.528.622.361.973.85.974 1.359.002.509-.346.998-.966 1.36zm9.902-5.668a1.715 1.715 0 01-.647.2 2.146 2.146 0 01-.73-.042 1.357 1.357 0 01-.566-.268c-.139-.12-.213-.261-.213-.406 0-.144.074-.285.213-.405.138-.119.336-.213.566-.268.231-.055.485-.07.73-.042.245.029.47.098.647.2.236.137.368.322.368.515 0 .194-.132.379-.368.516zm-2.767 1.469a1.702 1.702 0 01-.648.199 2.15 2.15 0 01-.731-.042 1.352 1.352 0 01-.567-.271c-.138-.12-.211-.262-.21-.406.002-.145.078-.286.218-.405.141-.12.34-.213.572-.267.232-.054.487-.067.732-.038.245.03.469.101.644.204.233.137.362.322.36.514-.002.192-.135.376-.37.512zm-.243-3.206a1.686 1.686 0 01-.646.199 2.12 2.12 0 01-.73-.041 1.346 1.346 0 01-.566-.269c-.139-.119-.213-.26-.213-.405 0-.144.074-.285.213-.405.138-.119.336-.213.566-.268.231-.055.485-.07.73-.042.245.029.47.098.646.2.237.137.369.322.369.515 0 .194-.132.379-.369.516zm-2.553 1.591a1.687 1.687 0 01-.646.2 2.146 2.146 0 01-.73-.042 1.35 1.35 0 01-.567-.268c-.138-.12-.212-.261-.212-.405 0-.144.074-.285.212-.405a1.35 1.35 0 01.567-.269c.231-.055.485-.069.73-.041.245.028.47.097.646.199.237.137.37.322.37.516 0 .193-.133.379-.37.515zm-1.422-2.763a1.687 1.687 0 01-.646.2 2.146 2.146 0 01-.73-.041 1.354 1.354 0 01-.568-.268c-.139-.12-.213-.261-.214-.405 0-.144.074-.285.213-.405.138-.12.336-.214.566-.269.231-.055.485-.07.73-.042.245.028.471.098.647.2.237.136.37.321.37.514 0 .194-.132.379-.368.516z"/></g><rect x=".438" width="54.882" height="54.882" rx="9.872" transform="scale(1.22477 .70706) rotate(-45 533.454 -193.287)" fill="#1A1B26" stroke="#1A1B26" stroke-width=".506"/><g clip-path="url(#clip6_22107_228988)" fill="#830833"><path d="M417.624 232.665c-1.771 1.025-3.949 1.784-6.344 2.212a26.306 26.306 0 01-7.399.246c-2.465-.267-4.779-.877-6.742-1.777-1.964-.9-3.517-2.064-4.525-3.389-1.008-1.325-1.44-2.773-1.26-4.216.181-1.444.969-2.841 2.296-4.069 1.328-1.228 3.154-2.25 5.321-2.978 2.167-.728 4.609-1.14 7.115-1.2l.119 3.054c-1.956.058-3.842.441-5.428 1.105-1.586.664-2.804 1.578-3.508 2.634-.703 1.055-.861 2.206-.455 3.312.407 1.106 1.36 2.12 2.745 2.92 1.385.8 3.142 1.35 5.059 1.585 1.916.234 3.909.143 5.737-.263 1.828-.406 3.413-1.109 4.562-2.025 1.15-.916 1.814-2.004 1.914-3.133l5.29.068c-.159 2.228-1.764 4.339-4.497 5.914zm3.318-8.206a1.697 1.697 0 01-.647.199 2.146 2.146 0 01-.73-.041 1.358 1.358 0 01-.566-.269c-.139-.12-.213-.261-.213-.405 0-.144.074-.285.213-.405.138-.12.336-.213.566-.268a2.12 2.12 0 01.73-.042c.245.028.47.098.647.2.236.137.368.322.368.515s-.132.379-.368.516z"/><path d="M409.021 227.779c-.466.271-1.06.456-1.708.532a5.64 5.64 0 01-1.931-.106c-.612-.145-1.135-.392-1.503-.709-.369-.316-.566-.689-.567-1.071-.001-.381.194-.755.56-1.072.367-.318.889-.565 1.499-.711a5.615 5.615 0 011.931-.11c.648.074 1.244.258 1.711.528.623.361.973.849.975 1.359.001.509-.347.998-.967 1.36zm9.902-5.668a1.697 1.697 0 01-.647.199 2.138 2.138 0 01-.729-.041 1.35 1.35 0 01-.567-.269c-.139-.12-.213-.261-.213-.405 0-.144.074-.285.213-.405a1.35 1.35 0 01.567-.268c.23-.055.484-.07.729-.042.245.028.47.098.647.2.236.137.368.322.368.515s-.132.379-.368.516zm-2.767 1.468a1.697 1.697 0 01-.648.2c-.246.028-.5.013-.731-.043a1.34 1.34 0 01-.567-.27c-.138-.12-.211-.262-.209-.406.001-.145.077-.286.217-.406.141-.119.34-.212.572-.266.232-.054.487-.067.732-.038.245.03.469.101.644.204.233.137.362.322.36.514-.002.192-.135.376-.37.511zm-.242-3.205a1.697 1.697 0 01-.647.199 2.146 2.146 0 01-.73-.041 1.352 1.352 0 01-.566-.269c-.139-.12-.213-.261-.213-.405 0-.144.074-.285.213-.405.139-.12.336-.213.566-.268a2.12 2.12 0 01.73-.042c.245.028.47.098.647.2.236.137.368.322.368.515s-.132.379-.368.516zm-2.554 1.591a1.686 1.686 0 01-.646.199 2.12 2.12 0 01-.73-.041 1.346 1.346 0 01-.566-.269c-.139-.119-.213-.26-.213-.405 0-.144.074-.285.213-.405.138-.119.336-.213.566-.268.231-.055.485-.07.73-.042.245.029.47.098.646.2.237.137.37.322.37.515 0 .194-.133.379-.37.516zm-1.422-2.764a1.687 1.687 0 01-.646.201 2.146 2.146 0 01-.73-.041 1.36 1.36 0 01-.568-.268c-.139-.12-.213-.261-.213-.405-.001-.144.073-.285.212-.406a1.35 1.35 0 01.567-.268c.23-.056.484-.07.729-.042.246.028.471.098.647.2.237.136.37.321.37.514.001.193-.132.379-.368.515z"/></g><rect x=".438" width="54.882" height="54.882" rx="9.872" transform="scale(1.22477 .70706) rotate(-45 488.478 -81.712)" fill="#1A1B26" stroke="#1A1B26" stroke-width=".506"/><g clip-path="url(#clip7_22107_228988)"><path d="M272.826 227.656l32.404 6.009-10.329-18.753-22.075 12.744zm17.785-.456l-1.752 1.011-1.752-1.011 1.752-1.012 1.752 1.012zm-2.629-1.518l-1.752 1.012-1.75-1.011 1.752-1.011 1.75 1.01zm7.883 1.518l-1.752 1.011-1.752-1.011 1.752-1.012 1.752 1.012zm-2.627-1.517l-1.752 1.012-1.752-1.012 1.752-1.011 1.752 1.011zm-2.629-1.517l-1.752 1.011-1.75-1.01 1.752-1.012 1.75 1.011zm5.243.009l-1.753 1.011-1.752-1.011 1.752-1.012 1.753 1.012zm-4.382-.507l-1.75-1.01 1.752-1.011 1.75 1.01-1.752 1.011z" fill="#8F7D09"/></g><rect x=".438" width="54.882" height="54.882" rx="9.872" transform="scale(1.22477 .70706) rotate(-45 500.594 -272.62)" fill="#1A1B26" stroke="#1A1B26" stroke-width=".506"/><g clip-path="url(#clip8_22107_228988)"><path d="M442.506 194.178l32.404 6.009-10.329-18.753-22.075 12.744zm17.785-.456l-1.752 1.011-1.752-1.011 1.752-1.012 1.752 1.012zm-2.629-1.518l-1.752 1.012-1.75-1.011 1.752-1.011 1.75 1.01zm7.883 1.518l-1.752 1.011-1.752-1.011 1.752-1.012 1.752 1.012zm-2.627-1.517l-1.752 1.012-1.752-1.012 1.752-1.011 1.752 1.011zm-2.629-1.517l-1.752 1.011-1.75-1.01 1.752-1.012 1.75 1.011zm5.242.009l-1.752 1.011-1.752-1.011 1.752-1.012 1.752 1.012zm-4.381-.507l-1.75-1.01 1.752-1.011 1.75 1.01-1.752 1.011z" fill="#8F7D09"/></g><rect x=".438" width="54.882" height="54.882" rx="9.872" transform="scale(1.22477 .70706) rotate(-45 455.619 -161.045)" fill="#1A1B26" stroke="#1A1B26" stroke-width=".506"/><g clip-path="url(#clip9_22107_228988)" fill="#731316"><path d="M356.126 203.523l-1.644-.949 3.416-1.973-1.016-.586-1.656.956-1.655-.955 7.822-4.516-9.926-1.535-2.661-5.731-8.017 4.628 8.729 5.039-4.316 2.491-13.042-7.529 14.85-8.573 6.77 1.047 2.671 5.751 10.162 1.573 1.76 3.792-12.247 7.07z"/><path d="M352.475 200.648l-1.655.956 1.655.955 1.655-.955-1.655-.956zm.899 2.551l-1.655.956 1.655.955 1.655-.955-1.655-.956z"/></g><rect x=".438" width="54.882" height="54.882" rx="9.872" transform="scale(1.22477 .70706) rotate(-45 467.732 -351.952)" fill="#1A1B26" stroke="#1A1B26" stroke-width=".506"/><g clip-path="url(#clip10_22107_228988)" fill="#731316"><path d="M525.805 170.044l-1.644-.949 3.416-1.973-1.016-.586-1.657.956-1.654-.955 7.822-4.516-9.926-1.535-2.661-5.731-8.017 4.628 8.729 5.039-4.316 2.492-13.042-7.53 14.85-8.573 6.77 1.047 2.671 5.751 10.162 1.573 1.76 3.792-12.247 7.07z"/><path d="M522.154 167.17l-1.655.955 1.655.955 1.655-.955-1.655-.955zm.899 2.551l-1.655.955 1.655.955 1.655-.955-1.655-.955z"/></g><rect x=".438" width="54.882" height="54.882" rx="9.872" transform="scale(1.22477 .70706) rotate(-45 681.451 -64.609)" fill="#1A1B26" stroke="#1A1B26" stroke-width=".506"/><g clip-path="url(#clip11_22107_228988)" fill="#731316"><path d="M353.621 336.404l-1.645-.95 3.417-1.972-1.017-.587-1.656.957-1.655-.956 7.822-4.515-9.926-1.535-2.661-5.731-8.017 4.628 8.729 5.039-4.316 2.491-13.042-7.529 14.85-8.573 6.77 1.047 2.671 5.751 10.162 1.573 1.76 3.792-12.246 7.07z"/><path d="M349.969 333.529l-1.655.955 1.655.955 1.655-.955-1.655-.955zm.899 2.551l-1.654.955 1.654.955 1.655-.955-1.655-.955z"/></g><rect x=".438" width="54.882" height="54.882" rx="9.872" transform="scale(1.22477 .70706) rotate(-45 422.757 -240.379)" fill="#1A1B26" stroke="#1A1B26" stroke-width=".506"/><g clip-path="url(#clip12_22107_228988)"><path d="M396.208 154.706l-4.222 9.096 11.535 6.659 15.756-2.438 4.222-9.096-11.534-6.659-15.757 2.438zm17.135 4.753l-1.124 2.423-4.966.846 3.676 2.122-1.106 2.852-7.685-4.436.931-2.232 5.081-.908-3.752-2.167 1.274-2.938 7.671 4.438z" fill="#237FA7"/></g><rect x=".438" width="54.882" height="54.882" rx="9.872" transform="scale(1.22477 .70706) rotate(-45 434.871 -431.285)" fill="#1A1B26" stroke="#1A1B26" stroke-width=".506"/><g clip-path="url(#clip13_22107_228988)"><path d="M565.887 121.227l-4.222 9.096 11.535 6.659 15.756-2.437 4.223-9.096-11.535-6.659-15.757 2.437zm17.135 4.753l-1.124 2.424-4.965.846 3.675 2.122-1.106 2.851-7.684-4.436.93-2.232 5.082-.908-3.753-2.166 1.275-2.938 7.67 4.437z" fill="#237FA7"/></g><rect x=".438" width="54.882" height="54.882" rx="9.872" transform="scale(1.22477 .70706) rotate(-45 648.591 -143.941)" fill="#1A1B26" stroke="#1A1B26" stroke-width=".506"/><g clip-path="url(#clip14_22107_228988)"><path d="M393.702 287.586l-4.222 9.097 11.534 6.659 15.757-2.438 4.222-9.096-11.534-6.659-15.757 2.437zm17.135 4.753l-1.124 2.424-4.966.846 3.675 2.122-1.105 2.852-7.685-4.436.931-2.232 5.081-.908-3.753-2.167 1.275-2.938 7.671 4.437z" fill="#237FA7"/></g><rect x=".438" width="54.882" height="54.882" rx="9.872" transform="scale(1.22477 .70706) rotate(-45 402.011 -510.618)" fill="#1A1B26" stroke="#1A1B26" stroke-width=".506"/><g clip-path="url(#clip15_22107_228988)" fill="#1D7177"><path d="M639.376 83.624l2.266 4.883-8.457-1.309 6.191-3.574zM626.43 95.231l-2.066 1.193 14.107 2.183 1.513 3.257-25.398-3.928 10.33-5.964 14.111 2.183-.757-1.628-11.289-1.747 4.131-2.385 5.647.873 5.643.873 3.78 8.145-19.752-3.055z"/></g><rect x=".438" width="54.882" height="54.882" rx="9.872" transform="scale(1.22477 .70706) rotate(-45 615.73 -223.275)" fill="#1A1B26" stroke="#1A1B26" stroke-width=".506"/><g clip-path="url(#clip16_22107_228988)" fill="#1D7177"><path d="M467.191 249.984l2.266 4.882-8.457-1.308 6.191-3.574zm-12.946 11.607l-2.066 1.192 14.107 2.183 1.513 3.258-25.398-3.929 10.33-5.963 14.11 2.183-.756-1.629-11.289-1.747 4.131-2.385 5.647.873 5.643.873 3.78 8.146-19.752-3.055z"/></g><rect x=".438" width="54.882" height="54.882" rx="9.872" transform="scale(1.22477 .70706) rotate(-45 369.15 -589.95)" fill="#1A1B26" stroke="#1A1B26" stroke-width=".506"/><g clip-path="url(#clip17_22107_228988)"><path d="M688.886 53.011l-1.772 3.818 1.487.858 3.452 4.942-8.562-1.993-1.486-.858-6.612 1.023-1.076 2.323 1.711.987 19.585 4.75 5.706-.882 1.53-3.294-8.229-11.307-1.711-.987-4.023.62z" fill="#2354AA"/><path d="M692.909 52.39l-1.773 3.817 1.488.859 4.204 6.357-.719 1.548 5.21 3.008 1.53-3.294-8.229-11.307-1.711-.987zm-9.418 8.246l-1.486-.858-1.078 2.323 1.487.859 11.014 2.426.718-1.548-2.093-1.209-8.562-1.993z" fill="#0850C5"/></g><rect x=".438" width="54.882" height="54.882" rx="9.872" transform="scale(1.22477 .70706) rotate(-45 582.87 -302.607)" fill="#1A1B26" stroke="#1A1B26" stroke-width=".506"/><g clip-path="url(#clip18_22107_228988)"><path d="M516.701 219.371l-1.771 3.817 1.486.858 3.452 4.943-8.561-1.993-1.486-.858-6.613 1.023-1.075 2.322 1.71.988 19.585 4.75 5.706-.883 1.53-3.294-8.229-11.306-1.711-.988-4.023.621z" fill="#2354AA"/><path d="M520.724 218.75l-1.773 3.817 1.488.859 4.204 6.357-.719 1.548 5.21 3.007 1.53-3.294-8.229-11.306-1.711-.988zm-9.417 8.246l-1.486-.858-1.079 2.322 1.488.859 11.013 2.426.719-1.548-2.094-1.208-8.561-1.993z" fill="#0850C5"/></g><rect x=".438" width="54.882" height="54.882" rx="9.872" transform="scale(1.22477 .70706) rotate(-45 620.42 235.412)" fill="#1A1B26" stroke="#1A1B26" stroke-width=".506"/><g clip-path="url(#clip19_22107_228988)" fill="#B2B6BD"><path d="M53.935 353.402l-3.648 7.847.004.002 11.942 6.894 5.108-.79-11.946-6.896 2.276-4.901-3.736-2.156z"/><path d="M57.377 351.415l9.513 5.492-3.442 1.987-3.55-2.05-1.37 2.95 12.188 7.036 5.114-.789-9.486-5.476 3.441-1.986 3.527 2.035 1.368-2.948-12.196-7.041-5.107.79z"/><path d="M79.275 364.057l3.648-7.847-.003-.003-11.942-6.894-5.11.791 11.946 6.897-2.274 4.899 3.735 2.157z"/></g><rect x=".438" width="54.882" height="54.882" rx="9.872" transform="scale(1.22477 .70706) rotate(-45 632.536 44.506)" fill="#1A1B26" stroke="#1A1B26" stroke-width=".506"/><g clip-path="url(#clip20_22107_228988)" fill="#B2B6BD"><path d="M223.615 319.923l-3.649 7.847.004.003 11.942 6.894 5.108-.79-11.946-6.897 2.276-4.9-3.735-2.157z"/><path d="M227.056 317.937l9.513 5.491-3.441 1.987-3.55-2.049-1.37 2.95 12.187 7.036 5.114-.789-9.486-5.476 3.441-1.987 3.527 2.036 1.368-2.949-12.195-7.04-5.108.79z"/><path d="M248.954 330.578l3.649-7.847-.004-.002-11.942-6.894-5.11.791 11.946 6.896-2.274 4.9 3.735 2.156z"/></g><rect x=".438" width="54.882" height="54.882" rx="9.872" transform="scale(1.22477 .70706) rotate(-45 515.024 -463.13)" fill="#1A1B26" stroke="#1A1B26" stroke-width=".506"/><g clip-path="url(#clip21_22107_228988)" fill-rule="evenodd" clip-rule="evenodd" fill="#633691"><path d="M622.715 158.776l10.338-1.6 7.569 4.37-10.34 1.599-7.567-4.369zm11.056-2.015l7.569 4.37 2.768-5.968-7.567-4.368-2.77 5.966zm-22.551 3.774l7.567 4.369 10.338-1.598-7.567-4.369-10.338 1.598zm27.459 7.457l10.337-1.598-7.517-4.34-.05-.029-10.337 1.599 7.567 4.368z"/></g><rect x=".438" width="54.882" height="54.882" rx="9.872" transform="scale(1.22477 .70706) rotate(-45 527.14 -654.037)" fill="#1A1B26" stroke="#1A1B26" stroke-width=".506"/><g clip-path="url(#clip22_22107_228988)" fill-rule="evenodd" clip-rule="evenodd" fill="#633691"><path d="M792.394 125.298l10.338-1.601 7.569 4.37-10.34 1.599-7.567-4.368zm11.056-2.015l7.569 4.369 2.768-5.968-7.567-4.368-2.77 5.967zm-22.551 3.773l7.568 4.369 10.337-1.598-7.567-4.369-10.338 1.598zm27.459 7.457l10.337-1.598-7.517-4.34-.05-.028-10.337 1.598 7.567 4.368z"/></g><rect x=".438" width="54.882" height="54.882" rx="9.872" transform="scale(1.22477 .70706) rotate(-45 628.363 -415.493)" fill="#1A1B26" stroke="#1A1B26" stroke-width=".506"/><g clip-path="url(#clip23_22107_228988)" fill-rule="evenodd" clip-rule="evenodd" fill="#633691"><path d="M622.116 225.307l10.338-1.6 7.569 4.37-10.339 1.599-7.568-4.369zm11.056-2.015l7.569 4.37 2.768-5.968-7.567-4.368-2.77 5.966zm-22.55 3.774l7.567 4.369 10.337-1.598-7.567-4.369-10.337 1.598zm27.458 7.457l10.338-1.598-7.518-4.34-.05-.029-10.337 1.599 7.567 4.368z"/></g><rect x=".438" width="54.882" height="54.882" rx="9.872" transform="scale(1.22477 .70706) rotate(-45 482.165 -542.464)" fill="#1A1B26" stroke="#1A1B26" stroke-width=".506"/><g clip-path="url(#clip24_22107_228988)" fill="#237FA7"><path fill-rule="evenodd" clip-rule="evenodd" d="M674.259 127.506l12.281-1.895 16.582 9.572-12.281 1.896-16.582-9.573z"/><path d="M687.834 121.908l-13.334 2.07 3.381 1.952 9.08-1.403 10.153 5.861 4.262-.665c2.641-.409 3.442-1.528 1.758-2.5l-7.45-4.301c-1.677-.966-5.211-1.419-7.85-1.014z"/></g><rect x=".438" width="54.882" height="54.882" rx="9.872" transform="scale(1.22477 .70706) rotate(-45 494.278 -733.37)" fill="#1A1B26" stroke="#1A1B26" stroke-width=".506"/><g clip-path="url(#clip25_22107_228988)" fill="#237FA7"><path fill-rule="evenodd" clip-rule="evenodd" d="M843.939 94.028l12.28-1.896 16.582 9.573-12.28 1.895-16.582-9.572z"/><path d="M857.514 88.43l-13.335 2.07 3.381 1.951 9.081-1.403 10.152 5.861 4.262-.664c2.641-.41 3.443-1.529 1.758-2.501l-7.45-4.3c-1.676-.966-5.21-1.42-7.849-1.014z"/></g><rect x=".438" width="54.882" height="54.882" rx="9.872" transform="scale(1.22477 .70706) rotate(-45 595.503 -494.826)" fill="#1A1B26" stroke="#1A1B26" stroke-width=".506"/><g clip-path="url(#clip26_22107_228988)" fill="#237FA7"><path fill-rule="evenodd" clip-rule="evenodd" d="M673.66 194.038l12.281-1.896 16.582 9.573-12.281 1.896-16.582-9.573z"/><path d="M687.235 188.44l-13.334 2.07 3.381 1.952 9.08-1.403 10.153 5.861 4.262-.665c2.641-.409 3.442-1.528 1.758-2.501l-7.45-4.3c-1.677-.966-5.211-1.42-7.85-1.014z"/></g><rect x=".438" width="54.882" height="54.882" rx="9.872" transform="scale(1.22477 .70706) rotate(-45 449.303 -621.797)" fill="#1A1B26" stroke="#1A1B26" stroke-width=".506"/><g clip-path="url(#clip27_22107_228988)" fill="#830833"><path d="M758.546 101.851c-1.771 1.024-3.949 1.784-6.344 2.212a26.35 26.35 0 01-7.4.246c-2.464-.267-4.778-.877-6.742-1.777-1.963-.901-3.516-2.064-4.524-3.39-1.008-1.325-1.441-2.772-1.26-4.216.181-1.443.969-2.84 2.296-4.068 1.328-1.228 3.154-2.25 5.321-2.978 2.167-.728 4.609-1.14 7.114-1.2l.12 3.054c-1.957.057-3.842.441-5.428 1.105-1.586.663-2.805 1.578-3.508 2.634-.703 1.055-.861 2.206-.455 3.312.407 1.106 1.36 2.12 2.745 2.92 1.385.799 3.142 1.35 5.058 1.585 1.917.234 3.909.143 5.738-.263 1.828-.406 3.413-1.11 4.562-2.025 1.149-.916 1.814-2.004 1.914-3.134l5.29.07c-.159 2.227-1.764 4.338-4.497 5.913zm3.317-8.207a1.688 1.688 0 01-.646.2 2.136 2.136 0 01-.73-.042 1.352 1.352 0 01-.567-.268c-.138-.12-.212-.26-.212-.405 0-.144.074-.285.212-.405.139-.12.336-.213.567-.269a2.12 2.12 0 01.73-.041c.245.028.47.097.646.2.237.136.369.322.369.515s-.132.378-.369.515z"/><path d="M749.943 96.965c-.466.27-1.06.456-1.708.532a5.647 5.647 0 01-1.931-.107c-.612-.145-1.135-.391-1.503-.708-.369-.317-.566-.69-.567-1.071-.001-.382.194-.755.56-1.072.367-.318.889-.565 1.499-.712a5.647 5.647 0 011.931-.11c.648.075 1.244.259 1.711.529.623.36.973.85.974 1.358.002.51-.346.999-.966 1.36zm9.902-5.669a1.699 1.699 0 01-.647.2 2.138 2.138 0 01-.73-.041 1.348 1.348 0 01-.566-.269c-.139-.12-.213-.26-.213-.405 0-.144.074-.285.213-.405.138-.12.336-.213.566-.269a2.12 2.12 0 01.73-.041 1.7 1.7 0 01.647.2c.236.136.368.322.368.515s-.132.379-.368.515zm-2.767 1.469a1.699 1.699 0 01-.648.2c-.246.028-.5.013-.731-.043a1.352 1.352 0 01-.567-.27c-.138-.12-.211-.262-.209-.407.001-.144.077-.285.217-.405.141-.12.34-.212.572-.266.232-.055.487-.068.732-.038.245.03.469.1.644.204.233.137.362.322.36.514-.002.191-.135.375-.37.511zm-.242-3.205a1.7 1.7 0 01-.647.199 2.138 2.138 0 01-.73-.041 1.349 1.349 0 01-.566-.269c-.139-.12-.213-.26-.213-.405 0-.144.074-.285.213-.405.138-.12.336-.213.566-.269a2.12 2.12 0 01.73-.041c.245.028.47.098.647.2.236.136.368.322.368.515s-.132.379-.368.515zm-2.554 1.59a1.69 1.69 0 01-.646.2 2.138 2.138 0 01-.73-.041 1.353 1.353 0 01-.567-.269c-.138-.12-.212-.26-.212-.405 0-.144.074-.285.212-.405a1.35 1.35 0 01.567-.268 2.12 2.12 0 01.73-.042c.245.028.47.098.646.2.237.136.37.322.37.515 0 .194-.133.379-.37.516zm-1.422-2.763a1.688 1.688 0 01-.646.2 2.133 2.133 0 01-.73-.04 1.356 1.356 0 01-.568-.268c-.139-.12-.213-.261-.213-.405-.001-.145.073-.286.212-.406a1.35 1.35 0 01.566-.269 2.12 2.12 0 01.73-.041c.245.028.471.097.647.2.237.136.37.32.37.514.001.193-.132.378-.368.515z"/></g><rect x=".438" width="54.882" height="54.882" rx="9.872" transform="scale(1.22477 .70706) rotate(-45 461.418 -812.703)" fill="#1A1B26" stroke="#1A1B26" stroke-width=".506"/><g clip-path="url(#clip28_22107_228988)" fill="#830833"><path d="M928.225 68.373c-1.771 1.024-3.949 1.783-6.344 2.212a26.336 26.336 0 01-7.399.246c-2.465-.267-4.779-.877-6.742-1.778-1.964-.9-3.517-2.063-4.525-3.388-1.008-1.326-1.44-2.773-1.26-4.217.181-1.444.969-2.84 2.296-4.068 1.328-1.228 3.154-2.25 5.321-2.979 2.167-.728 4.609-1.14 7.115-1.2l.119 3.055c-1.956.057-3.842.44-5.428 1.105-1.586.663-2.804 1.578-3.508 2.633-.703 1.056-.861 2.206-.455 3.312.407 1.107 1.36 2.12 2.745 2.92 1.385.8 3.142 1.35 5.059 1.585 1.916.235 3.909.144 5.737-.262 1.828-.406 3.413-1.11 4.562-2.026 1.15-.915 1.814-2.004 1.914-3.133l5.29.069c-.158 2.227-1.764 4.339-4.497 5.914zm3.318-8.207a1.699 1.699 0 01-.647.2 2.138 2.138 0 01-.73-.042 1.35 1.35 0 01-.566-.268c-.139-.12-.213-.261-.213-.405 0-.145.074-.286.213-.405.138-.12.336-.214.566-.269a2.12 2.12 0 01.73-.041c.245.028.47.097.647.2.236.136.368.321.368.515 0 .193-.132.378-.368.515z"/><path d="M919.622 63.486c-.465.271-1.06.457-1.707.532a5.652 5.652 0 01-1.932-.106c-.611-.145-1.134-.391-1.503-.708-.368-.317-.566-.69-.567-1.071-.001-.382.194-.755.561-1.073.366-.317.888-.565 1.499-.71a5.646 5.646 0 011.931-.11c.648.074 1.243.258 1.71.528.623.36.973.849.975 1.358.001.51-.346.998-.967 1.36zm9.902-5.668a1.699 1.699 0 01-.647.2 2.13 2.13 0 01-.729-.042 1.355 1.355 0 01-.567-.268c-.139-.12-.213-.261-.213-.405 0-.145.074-.285.213-.405a1.35 1.35 0 01.567-.269c.23-.055.484-.07.729-.041a1.7 1.7 0 01.647.2c.236.136.369.322.369.515s-.133.378-.369.515zm-2.766 1.469a1.698 1.698 0 01-.649.2c-.245.027-.5.013-.731-.043a1.343 1.343 0 01-.566-.27c-.138-.12-.211-.262-.21-.407.001-.144.077-.285.218-.405.14-.12.339-.212.571-.267.232-.054.487-.067.732-.037.245.03.47.1.645.203.232.138.361.322.36.514-.002.192-.135.376-.37.512zm-.243-3.206a1.7 1.7 0 01-.647.2 2.132 2.132 0 01-.729-.042 1.353 1.353 0 01-.567-.268c-.139-.12-.213-.261-.213-.405 0-.145.074-.285.213-.405a1.35 1.35 0 01.567-.269c.231-.055.484-.07.729-.041.245.028.47.097.647.2.236.136.369.322.369.515s-.133.378-.369.515zm-2.553 1.591a1.7 1.7 0 01-.647.2 2.138 2.138 0 01-.73-.041 1.349 1.349 0 01-.566-.269c-.139-.12-.213-.26-.213-.405 0-.144.074-.285.213-.405.138-.12.336-.213.566-.269a2.12 2.12 0 01.73-.041c.245.028.47.097.647.2.236.136.369.322.369.515s-.133.379-.369.516zm-1.423-2.763a1.692 1.692 0 01-.646.2 2.136 2.136 0 01-.73-.04 1.352 1.352 0 01-.567-.269c-.14-.12-.214-.26-.214-.405-.001-.144.073-.285.212-.405a1.35 1.35 0 01.567-.269c.23-.055.484-.07.73-.041.245.028.47.097.646.199.237.137.37.322.37.515.001.193-.132.378-.368.515z"/></g><rect x=".438" width="54.882" height="54.882" rx="9.872" transform="scale(1.22477 .70706) rotate(-45 675.137 -525.359)" fill="#1A1B26" stroke="#1A1B26" stroke-width=".506"/><g clip-path="url(#clip29_22107_228988)" fill="#830833"><path d="M756.04 234.732c-1.772 1.025-3.949 1.784-6.344 2.212a26.312 26.312 0 01-7.4.246c-2.464-.267-4.778-.877-6.742-1.777-1.963-.9-3.516-2.064-4.524-3.389-1.008-1.325-1.441-2.773-1.26-4.216.18-1.444.969-2.841 2.296-4.069 1.327-1.228 3.154-2.25 5.321-2.978 2.167-.728 4.609-1.14 7.114-1.2l.12 3.054c-1.957.058-3.842.441-5.428 1.105-1.586.664-2.805 1.579-3.508 2.634-.704 1.055-.862 2.206-.455 3.312.406 1.106 1.36 2.121 2.745 2.92 1.385.8 3.142 1.35 5.058 1.585 1.916.235 3.909.143 5.737-.263 1.829-.406 3.413-1.109 4.563-2.025 1.149-.916 1.814-2.004 1.913-3.133l5.29.069c-.158 2.227-1.763 4.338-4.496 5.913zm3.317-8.206a1.686 1.686 0 01-.646.199 2.146 2.146 0 01-.73-.041 1.35 1.35 0 01-.567-.269c-.138-.12-.212-.261-.212-.405 0-.144.074-.285.212-.405a1.35 1.35 0 01.567-.268c.231-.055.485-.07.73-.042.245.028.47.098.646.2.236.137.369.322.369.515s-.133.379-.369.516z"/><path d="M747.437 229.846c-.466.271-1.06.456-1.708.532a5.64 5.64 0 01-1.931-.106c-.612-.145-1.135-.392-1.504-.709-.368-.316-.565-.689-.566-1.071-.002-.381.194-.755.56-1.072.367-.318.889-.565 1.499-.711a5.64 5.64 0 011.931-.11c.648.074 1.244.258 1.711.528.622.361.973.849.974 1.359.002.509-.346.998-.966 1.36zm9.901-5.668a1.686 1.686 0 01-.646.199 2.146 2.146 0 01-.73-.041 1.346 1.346 0 01-.566-.269c-.139-.12-.213-.26-.213-.405 0-.144.074-.285.213-.405.138-.12.336-.213.566-.268.231-.055.485-.07.73-.042.245.028.47.098.646.2.237.137.369.322.369.515 0 .194-.132.379-.369.516zm-2.766 1.468a1.685 1.685 0 01-.648.2 2.15 2.15 0 01-.731-.042 1.346 1.346 0 01-.567-.271c-.138-.12-.211-.262-.21-.406.002-.145.078-.286.218-.405.141-.12.34-.213.572-.267.232-.054.487-.067.732-.038.245.03.469.101.644.204.233.137.362.322.36.514-.002.192-.135.376-.37.511zm-.243-3.205a1.686 1.686 0 01-.646.199 2.146 2.146 0 01-.73-.041 1.346 1.346 0 01-.566-.269c-.139-.12-.213-.261-.213-.405 0-.144.074-.285.213-.405.138-.12.336-.213.566-.268.231-.055.485-.07.73-.042.245.028.47.098.646.2.237.137.369.322.369.515 0 .194-.132.379-.369.516zm-2.553 1.591a1.704 1.704 0 01-.646.2 2.146 2.146 0 01-.73-.042 1.35 1.35 0 01-.567-.268c-.138-.12-.213-.261-.213-.405 0-.145.075-.286.213-.405a1.35 1.35 0 01.567-.269 2.12 2.12 0 01.73-.041c.245.028.47.097.646.199.237.137.37.322.37.516 0 .193-.133.378-.37.515zm-1.422-2.764a1.687 1.687 0 01-.646.201 2.146 2.146 0 01-.73-.041 1.354 1.354 0 01-.568-.268c-.139-.12-.213-.261-.214-.405 0-.144.074-.285.213-.405.138-.12.336-.214.566-.269a2.12 2.12 0 01.73-.042c.245.028.47.098.647.2.237.136.37.321.37.514s-.132.379-.368.515z"/></g><rect x=".438" width="54.882" height="54.882" rx="9.872" transform="scale(1.22477 .70706) rotate(-45 416.443 -701.13)" fill="#1A1B26" stroke="#1A1B26" stroke-width=".506"/><g clip-path="url(#clip30_22107_228988)"><path d="M783.427 63.364l32.404 6.009-10.329-18.753-22.075 12.744zm17.785-.456l-1.752 1.011-1.752-1.011 1.752-1.012 1.752 1.012zm-2.629-1.518l-1.752 1.011-1.75-1.01 1.752-1.011 1.75 1.01zm7.883 1.518l-1.752 1.011-1.752-1.011 1.752-1.012 1.752 1.012zm-2.627-1.517l-1.752 1.012-1.752-1.012 1.752-1.011 1.752 1.011zm-2.629-1.518l-1.752 1.012-1.75-1.01 1.752-1.012 1.75 1.01zm5.242.01l-1.752 1.011-1.752-1.011 1.752-1.012 1.752 1.011zm-4.381-.507l-1.75-1.01 1.752-1.012 1.75 1.01-1.752 1.012z" fill="#8F7D09"/></g><rect x=".438" width="54.882" height="54.882" rx="9.872" transform="scale(1.22477 .70706) rotate(-45 642.276 -604.692)" fill="#1A1B26" stroke="#1A1B26" stroke-width=".506"/><g clip-path="url(#clip31_22107_228988)"><path d="M780.921 196.244l32.405 6.01-10.33-18.754-22.075 12.744zm17.785-.455l-1.752 1.011-1.752-1.011 1.752-1.012 1.752 1.012zm-2.629-1.518l-1.752 1.011-1.75-1.01 1.752-1.012 1.75 1.011zm7.884 1.518l-1.752 1.011-1.752-1.011 1.752-1.012 1.752 1.012zm-2.627-1.517l-1.753 1.011-1.752-1.011 1.752-1.012 1.753 1.012zm-2.63-1.518l-1.752 1.012-1.75-1.011 1.752-1.011 1.75 1.01zm5.243.009l-1.752 1.012-1.752-1.012 1.752-1.011 1.752 1.011zm-4.381-.506l-1.751-1.01 1.753-1.012 1.75 1.011-1.752 1.011z" fill="#8F7D09"/></g><rect x=".438" width="54.882" height="54.882" rx="9.872" transform="scale(1.22477 .70706) rotate(-45 383.582 -780.462)" fill="#1A1B26" stroke="#1A1B26" stroke-width=".506"/><g clip-path="url(#clip32_22107_228988)" fill="#731316"><path d="M866.727 39.23l-1.644-.949 3.416-1.972-1.016-.587-1.657.956-1.654-.955 7.821-4.515-9.925-1.535-2.661-5.732-8.017 4.628 8.729 5.04-4.316 2.49-13.042-7.528 14.85-8.573 6.77 1.047 2.67 5.75 10.163 1.573 1.76 3.793-12.247 7.07z"/><path d="M863.076 36.356l-1.655.955 1.655.955 1.654-.955-1.654-.955zm.899 2.551l-1.655.955 1.655.955 1.655-.955-1.655-.955z"/></g><rect x=".438" width="54.882" height="54.882" rx="9.872" transform="scale(1.22477 .70706) rotate(-45 609.416 -684.025)" fill="#1A1B26" stroke="#1A1B26" stroke-width=".506"/><g clip-path="url(#clip33_22107_228988)" fill="#731316"><path d="M864.222 172.111l-1.645-.949 3.417-1.973-1.017-.586-1.656.956-1.655-.955 7.822-4.516-9.926-1.535-2.661-5.731-8.016 4.628 8.728 5.039-4.315 2.491-13.043-7.529 14.85-8.573 6.77 1.047 2.671 5.751 10.162 1.573 1.76 3.792-12.246 7.07z"/><path d="M860.57 169.236l-1.654.956 1.654.955 1.655-.955-1.655-.956zm.899 2.551l-1.654.956 1.654.955 1.655-.955-1.655-.956z"/></g><rect x=".438" width="54.882" height="54.882" rx="9.872" transform="scale(1.22477 .70706) rotate(-45 576.555 -763.359)" fill="#1A1B26" stroke="#1A1B26" stroke-width=".506"/><g clip-path="url(#clip34_22107_228988)"><path d="M904.303 123.294l-4.222 9.097 11.534 6.658 15.757-2.437 4.222-9.096-11.534-6.659-15.757 2.437zm17.135 4.753l-1.124 2.424-4.966.846 3.676 2.122-1.106 2.852-7.685-4.437.931-2.232 5.081-.908-3.752-2.166 1.274-2.938 7.671 4.437z" fill="#237FA7"/></g><rect x=".438" width="54.882" height="54.882" rx="9.872" transform="scale(1.22477 .70706) rotate(-45 548.384 -384.006)" fill="#1A1B26" stroke="#1A1B26" stroke-width=".506"/><g clip-path="url(#clip35_22107_228988)" fill="#B2B6BD"><path d="M564.536 189.109l-3.648 7.847.004.002 11.942 6.895 5.108-.79-11.946-6.897 2.276-4.901-3.736-2.156z"/><path d="M567.978 187.122l9.513 5.492-3.442 1.987-3.55-2.049-1.37 2.949 12.188 7.037 5.114-.789-9.486-5.477 3.441-1.986 3.527 2.036 1.368-2.949-12.196-7.041-5.107.79z"/><path d="M589.876 199.764l3.648-7.847-.004-.002-11.942-6.894-5.109.791 11.946 6.896-2.275 4.9 3.736 2.156z"/></g><rect x=".438" width="54.882" height="54.882" rx="9.872" transform="scale(1.22477 .70706) rotate(-45 560.499 -574.91)" fill="#1A1B26" stroke="#1A1B26" stroke-width=".506"/><g clip-path="url(#clip36_22107_228988)" fill="#B2B6BD"><path d="M734.215 155.631l-3.648 7.847.004.002 11.942 6.894 5.108-.79-11.946-6.896 2.276-4.901-3.736-2.156z"/><path d="M737.657 153.644l9.513 5.492-3.442 1.987-3.549-2.05-1.371 2.95 12.188 7.036 5.114-.789-9.486-5.476 3.441-1.986 3.527 2.035 1.368-2.948-12.195-7.041-5.108.79z"/><path d="M759.555 166.286l3.649-7.847-.004-.003-11.942-6.894-5.11.791 11.946 6.897-2.274 4.899 3.735 2.157z"/></g><rect x=".438" width="54.882" height="54.882" rx="9.872" transform="scale(1.22477 .70706) rotate(-45 661.326 -334.106)" fill="#1A1B26" stroke="#1A1B26" stroke-width=".506"/><g clip-path="url(#clip37_22107_228988)" fill="#B2B6BD"><path d="M561.837 255.909l-3.649 7.848.004.002 11.942 6.894 5.108-.79-11.946-6.896 2.276-4.901-3.735-2.157z"/><path d="M565.278 253.923l9.513 5.492-3.441 1.986-3.55-2.049-1.371 2.95 12.188 7.036 5.114-.789-9.486-5.476 3.441-1.987 3.527 2.036 1.368-2.949-12.195-7.04-5.108.79z"/><path d="M587.176 266.565l3.649-7.847-.004-.003-11.942-6.894-5.11.791 11.946 6.897-2.274 4.899 3.735 2.157z"/></g></g><rect x=".499" width="62.424" height="62.424" rx="11.232" transform="scale(1.22477 .70706) rotate(-45 308.19 -418.582)" fill="#0C0C0E" stroke="#1A1B26" stroke-width=".576"/><path fill-rule="evenodd" clip-rule="evenodd" d="M527.5 96.867V235.79l49.5-28.418V69.759c-.382 1.72-1.724 3.382-4.024 4.703l-34.905 20.037c-2.906 1.668-6.764 2.458-10.571 2.368z" fill="url(#paint0_linear_22107_228988)" fill-opacity=".6"/><path fill-rule="evenodd" clip-rule="evenodd" d="M527.5 96.867V235.79L478 207.372V69.759c.382 1.72 1.724 3.382 4.024 4.703l34.905 20.037c2.906 1.668 6.764 2.458 10.571 2.368z" fill="url(#paint1_linear_22107_228988)" fill-opacity=".6"/><path fill-rule="evenodd" clip-rule="evenodd" d="M466.5 132.76v138.923l49.5-28.418V105.652c-.382 1.72-1.724 3.382-4.024 4.702l-34.905 20.037c-2.906 1.669-6.764 2.459-10.571 2.369z" fill="url(#paint2_linear_22107_228988)" fill-opacity=".6"/><path fill-rule="evenodd" clip-rule="evenodd" d="M466.5 132.76v138.923L417 243.265V105.652c.382 1.72 1.724 3.382 4.024 4.702l34.905 20.037c2.906 1.669 6.764 2.459 10.571 2.369z" fill="url(#paint3_linear_22107_228988)" fill-opacity=".6"/><rect x=".499" width="62.424" height="62.424" rx="11.232" transform="scale(1.22477 .70706) rotate(-45 344.747 -333.005)" fill="#0C0C0E" stroke="#1A1B26" stroke-width=".576"/><path fill-rule="evenodd" clip-rule="evenodd" d="M456.791 101.812l1.455.84 3.661-2.114-1.454-.84c-1.768-1.02-1.698-2.715.156-3.785 1.853-1.07 4.789-1.11 6.556-.09 1.768 1.02 1.698 2.715-.156 3.785l-1.526.881 3.492 2.015 1.525-.88c1.854-1.071 4.789-1.111 6.557-.091 1.767 1.021 1.697 2.715-.157 3.785-1.853 1.071-4.789 1.111-6.556.091l-1.455-.84-3.661 2.114 1.454.839c1.768 1.021 1.698 2.715-.156 3.785-1.853 1.071-4.789 1.111-6.556.091-1.768-1.021-1.698-2.715.156-3.785l1.526-.881-3.492-2.016-1.525.881c-1.854 1.07-4.789 1.111-6.557.09-1.767-1.02-1.697-2.715.157-3.785 1.853-1.07 4.789-1.11 6.556-.09zm-4.811 1.098c-.842.486-.874 1.257-.071 1.72.803.464 2.138.446 2.98-.041l1.526-.88-1.455-.84c-.803-.464-2.137-.445-2.98.041zm18.74.602l1.455.84c.803.463 2.137.445 2.98-.041.843-.487.874-1.257.071-1.721-.803-.464-2.138-.445-2.98.041l-1.526.881zm-3.576.049l-3.491-2.015-3.662 2.114 3.491 2.015 3.662-2.114zm-5.273 5.059l1.526-.881 1.455.84c.803.464.771 1.234-.071 1.721-.843.486-2.177.505-2.981.041-.803-.464-.771-1.234.071-1.721zm1.867-9.139l1.526-.88c.842-.487.874-1.257.071-1.721-.804-.464-2.138-.445-2.981.04-.842.487-.874 1.258-.071 1.721l1.455.84z" fill="#EFEFF1"/><path d="M534.532 72.519l-5.431-3.136-.248-2.255 12.972 1.18 3.161-1.825-16.066-1.375-.767-7.717-2.992 1.727.959 8.336-.18.104-7.7-4.445-2.529 1.46 16.292 9.406 2.529-1.46z" fill="#EFEFF1"/></g><defs><clipPath id="clip0_22107_228988"><path fill="#fff" d="M0 0h985v428H0z"/></clipPath><clipPath id="clip1_22107_228988"><path fill="#fff" transform="scale(1.22477 .70706) rotate(-45 594.553 137.137)" d="M0 0h33.067v33.067H0z"/></clipPath><clipPath id="clip2_22107_228988"><path fill="#fff" transform="scale(1.22477 .70706) rotate(-45 606.669 -53.77)" d="M0 0h33.067v33.067H0z"/></clipPath><clipPath id="clip3_22107_228988"><path fill="#fff" transform="scale(1.22477 .70706) rotate(-45 561.693 57.804)" d="M0 0h33.067v33.067H0z"/></clipPath><clipPath id="clip4_22107_228988"><path fill="#fff" transform="scale(1.22477 .70706) rotate(-45 573.807 -133.103)" d="M0 0h33.067v33.067H0z"/></clipPath><clipPath id="clip5_22107_228988"><path fill="#fff" transform="scale(1.22477 .70706) rotate(-45 528.832 -21.529)" d="M0 0h33.067v33.067H0z"/></clipPath><clipPath id="clip6_22107_228988"><path fill="#fff" transform="scale(1.22477 .70706) rotate(-45 540.948 -212.435)" d="M0 0h33.067v33.067H0z"/></clipPath><clipPath id="clip7_22107_228988"><path fill="#fff" transform="scale(1.22477 .70706) rotate(-45 495.972 -100.861)" d="M0 0h33.067v33.067H0z"/></clipPath><clipPath id="clip8_22107_228988"><path fill="#fff" transform="scale(1.22477 .70706) rotate(-45 508.087 -291.767)" d="M0 0h33.067v33.067H0z"/></clipPath><clipPath id="clip9_22107_228988"><path fill="#fff" transform="scale(1.22477 .70706) rotate(-45 463.11 -180.195)" d="M0 0h33.067v33.067H0z"/></clipPath><clipPath id="clip10_22107_228988"><path fill="#fff" transform="scale(1.22477 .70706) rotate(-45 475.226 -371.1)" d="M0 0h33.067v33.067H0z"/></clipPath><clipPath id="clip11_22107_228988"><path fill="#fff" transform="scale(1.22477 .70706) rotate(-45 688.945 -83.758)" d="M0 0h33.067v33.067H0z"/></clipPath><clipPath id="clip12_22107_228988"><path fill="#fff" transform="scale(1.22477 .70706) rotate(-45 430.251 -259.528)" d="M0 0h33.067v33.067H0z"/></clipPath><clipPath id="clip13_22107_228988"><path fill="#fff" transform="scale(1.22477 .70706) rotate(-45 442.365 -450.434)" d="M0 0h33.067v33.067H0z"/></clipPath><clipPath id="clip14_22107_228988"><path fill="#fff" transform="scale(1.22477 .70706) rotate(-45 656.083 -163.091)" d="M0 0h33.067v33.067H0z"/></clipPath><clipPath id="clip15_22107_228988"><path fill="#fff" transform="scale(1.22477 .70706) rotate(-45 411.464 -533.501)" d="M0 0h28.934v28.934H0z"/></clipPath><clipPath id="clip16_22107_228988"><path fill="#fff" transform="scale(1.22477 .70706) rotate(-45 625.184 -246.158)" d="M0 0h28.934v28.934H0z"/></clipPath><clipPath id="clip17_22107_228988"><path fill="#fff" transform="scale(1.22477 .70706) rotate(-45 378.604 -612.833)" d="M0 0h28.934v28.934H0z"/></clipPath><clipPath id="clip18_22107_228988"><path fill="#fff" transform="scale(1.22477 .70706) rotate(-45 592.325 -325.49)" d="M0 0h28.934v28.934H0z"/></clipPath><clipPath id="clip19_22107_228988"><path fill="#fff" transform="scale(1.22477 .70706) rotate(-45 627.914 216.263)" d="M0 0h33.067v33.067H0z"/></clipPath><clipPath id="clip20_22107_228988"><path fill="#fff" transform="scale(1.22477 .70706) rotate(-45 640.028 25.357)" d="M0 0h33.067v33.067H0z"/></clipPath><clipPath id="clip21_22107_228988"><path fill="#fff" transform="scale(1.22477 .70706) rotate(-45 522.518 -482.28)" d="M0 0h33.067v33.067H0z"/></clipPath><clipPath id="clip22_22107_228988"><path fill="#fff" transform="scale(1.22477 .70706) rotate(-45 534.632 -673.186)" d="M0 0h33.067v33.067H0z"/></clipPath><clipPath id="clip23_22107_228988"><path fill="#fff" transform="scale(1.22477 .70706) rotate(-45 635.857 -434.642)" d="M0 0h33.067v33.067H0z"/></clipPath><clipPath id="clip24_22107_228988"><path fill="#fff" transform="scale(1.22477 .70706) rotate(-45 489.656 -561.612)" d="M0 0h33.067v33.067H0z"/></clipPath><clipPath id="clip25_22107_228988"><path fill="#fff" transform="scale(1.22477 .70706) rotate(-45 501.772 -752.52)" d="M0 0h33.067v33.067H0z"/></clipPath><clipPath id="clip26_22107_228988"><path fill="#fff" transform="scale(1.22477 .70706) rotate(-45 602.997 -513.975)" d="M0 0h33.067v33.067H0z"/></clipPath><clipPath id="clip27_22107_228988"><path fill="#fff" transform="scale(1.22477 .70706) rotate(-45 456.796 -640.945)" d="M0 0h33.067v33.067H0z"/></clipPath><clipPath id="clip28_22107_228988"><path fill="#fff" transform="matrix(.86604 -.49997 .86604 .49997 888.63 62.17)" d="M0 0h33.067v33.067H0z"/></clipPath><clipPath id="clip29_22107_228988"><path fill="#fff" transform="scale(1.22477 .70706) rotate(-45 682.63 -544.508)" d="M0 0h33.067v33.067H0z"/></clipPath><clipPath id="clip30_22107_228988"><path fill="#fff" transform="matrix(.86604 -.49997 .86604 .49997 775.87 62.79)" d="M0 0h33.067v33.067H0z"/></clipPath><clipPath id="clip31_22107_228988"><path fill="#fff" transform="scale(1.22477 .70706) rotate(-45 649.77 -623.841)" d="M0 0h33.067v33.067H0z"/></clipPath><clipPath id="clip32_22107_228988"><path fill="#fff" transform="scale(1.22477 .70706) rotate(-45 391.076 -799.611)" d="M0 0h33.067v33.067H0z"/></clipPath><clipPath id="clip33_22107_228988"><path fill="#fff" transform="scale(1.22477 .70706) rotate(-45 616.91 -703.174)" d="M0 0h33.067v33.067H0z"/></clipPath><clipPath id="clip34_22107_228988"><path fill="#fff" transform="scale(1.22477 .70706) rotate(-45 584.048 -782.508)" d="M0 0h33.067v33.067H0z"/></clipPath><clipPath id="clip35_22107_228988"><path fill="#fff" transform="scale(1.22477 .70706) rotate(-45 555.877 -403.154)" d="M0 0h33.067v33.067H0z"/></clipPath><clipPath id="clip36_22107_228988"><path fill="#fff" transform="scale(1.22477 .70706) rotate(-45 567.993 -594.06)" d="M0 0h33.067v33.067H0z"/></clipPath><clipPath id="clip37_22107_228988"><path fill="#fff" transform="scale(1.22477 .70706) rotate(-45 668.819 -353.254)" d="M0 0h33.067v33.067H0z"/></clipPath><linearGradient id="paint0_linear_22107_228988" x1="547.963" y1="39.952" x2="548.129" y2="111.154" gradientUnits="userSpaceOnUse"><stop offset=".575" stop-color="#1D3672"/><stop offset="1" stop-color="#0C0C0E" stop-opacity="0"/></linearGradient><linearGradient id="paint1_linear_22107_228988" x1="507.037" y1="39.952" x2="507.38" y2="105.651" gradientUnits="userSpaceOnUse"><stop offset=".201" stop-color="#2F59EF"/><stop offset="1" stop-color="#3059E9" stop-opacity="0"/></linearGradient><linearGradient id="paint2_linear_22107_228988" x1="486.963" y1="75.845" x2="487.129" y2="147.047" gradientUnits="userSpaceOnUse"><stop offset=".575" stop-color="#1D3672"/><stop offset="1" stop-color="#0C0C0E" stop-opacity="0"/></linearGradient><linearGradient id="paint3_linear_22107_228988" x1="446.037" y1="75.845" x2="446.38" y2="141.543" gradientUnits="userSpaceOnUse"><stop offset=".201" stop-color="#2F59EF"/><stop offset="1" stop-color="#3059E9" stop-opacity="0"/></linearGradient><filter id="filter0_f_22107_228988" x="452.975" y="14.026" width="147.466" height="106.267" filterUnits="userSpaceOnUse" color-interpolation-filters="sRGB"><feFlood flood-opacity="0" result="BackgroundImageFix"/><feBlend in="SourceGraphic" in2="BackgroundImageFix" result="shape"/><feGaussianBlur stdDeviation="12.5" result="effect1_foregroundBlur_22107_228988"/></filter><filter id="filter1_f_22107_228988" x="389.975" y="50.026" width="147.466" height="106.267" filterUnits="userSpaceOnUse" color-interpolation-filters="sRGB"><feFlood flood-opacity="0" result="BackgroundImageFix"/><feBlend in="SourceGraphic" in2="BackgroundImageFix" result="shape"/><feGaussianBlur stdDeviation="12.5" result="effect1_foregroundBlur_22107_228988"/></filter></defs></svg>