<svg fill="none" height="221" viewBox="0 0 340 221" width="340" xmlns="http://www.w3.org/2000/svg"><filter id="b" color-interpolation-filters="sRGB" filterUnits="userSpaceOnUse" height="185.35" width="300" x="40" y="41"><feFlood flood-opacity="0" result="BackgroundImageFix"/><feBlend in="SourceGraphic" in2="BackgroundImageFix" result="shape"/><feColorMatrix in="SourceAlpha" result="hardAlpha" values="0 0 0 0 0 0 0 0 0 0 0 0 0 0 0 0 0 0 127 0"/><feOffset dy="5.35"/><feGaussianBlur stdDeviation="17.6"/><feComposite in2="hardAlpha" k2="-1" k3="1" operator="arithmetic"/><feColorMatrix values="0 0 0 0 0.0674653 0 0 0 0 0.179197 0 0 0 0 0.279167 0 0 0 0.15 0"/><feBlend in2="shape" result="effect1_innerShadow_16651_206727"/></filter><filter id="d" color-interpolation-filters="sRGB" filterUnits="userSpaceOnUse" height="33.338" width="300" x="40" y="41"><feFlood flood-opacity="0" result="BackgroundImageFix"/><feBlend in="SourceGraphic" in2="BackgroundImageFix" result="shape"/><feColorMatrix in="SourceAlpha" result="hardAlpha" values="0 0 0 0 0 0 0 0 0 0 0 0 0 0 0 0 0 0 127 0"/><feOffset dy="1.338"/><feGaussianBlur stdDeviation="4.013"/><feComposite in2="hardAlpha" k2="-1" k3="1" operator="arithmetic"/><feColorMatrix values="0 0 0 0 0 0 0 0 0 0 0 0 0 0 0 0 0 0 0.15 0"/><feBlend in2="shape" result="effect1_innerShadow_16651_206727"/></filter><linearGradient id="e" gradientUnits="userSpaceOnUse" x1="69.189" x2="70.954" y1="69.538" y2="26.418"><stop offset="0" stop-color="#111214"/><stop offset="1" stop-color="#424242"/></linearGradient><clipPath id="a"><path d="M40 41h300v180H40z"/></clipPath><clipPath id="c"><path d="M55 215h113v6H55z"/></clipPath><g clip-path="url(#a)"><path d="M40 41h300v180H40z" fill="#fff"/><g filter="url(#b)"><path d="M340 41H45a5 5 0 00-5 5v175h300z" fill="#fff"/><path d="M340 41H40v180h300z" fill="#fff"/><g fill="#000001"><path clip-rule="evenodd" d="M55.884 87.35c0-.623.505-1.128 1.128-1.128h3.26c.624 0 1.13.505 1.13 1.128v1.06l1.028.728c.299.212.476.555.476.921v2.558c0 .346-.28.627-.627.627h-1.254a.375.375 0 01-.376-.376V87.35a.376.376 0 00-.376-.376h-3.26a.376.376 0 00-.377.376v5.518a.376.376 0 11-.752 0zm5.517 5.142v-3.16l.594.42c.1.071.159.185.159.307v2.433z" fill-rule="evenodd"/><path d="M57.765 91.012a.351.351 0 00-.351.351v1.505a.351.351 0 00.702 0v-1.154h1.053v1.154a.351.351 0 00.703 0v-1.505a.351.351 0 00-.351-.351zm-.251-2.909c0-.208.168-.376.376-.376h.125a.376.376 0 110 .752h-.125a.376.376 0 01-.376-.376zm1.756-.376a.376.376 0 100 .752h.125a.376.376 0 100-.752zm-1.756 1.379c0-.208.168-.376.376-.376h.125a.376.376 0 110 .752h-.125a.376.376 0 01-.376-.376zm1.756-.376a.376.376 0 100 .752h.125a.376.376 0 100-.752zm-1.756 1.38c0-.209.168-.377.376-.377h.125a.376.376 0 110 .752h-.125a.376.376 0 01-.376-.376zm1.756-.377a.376.376 0 100 .752h.125a.376.376 0 100-.752z"/></g><path d="M70.554 91.72v-4.712h-.729V89h-2.42v-1.992h-.73v4.712h.73v-2.086h2.42v2.086zm2.083.059c.467 0 .856-.202 1.068-.562h.056v.503h.675v-2.426c0-.745-.502-1.189-1.394-1.189-.807 0-1.381.389-1.453.986h.68c.077-.258.348-.405.74-.405.48 0 .729.22.729.608v.31l-.964.059c-.846.052-1.322.421-1.322 1.058 0 .647.5 1.058 1.185 1.058zm.18-.565c-.382 0-.66-.193-.66-.522 0-.324.222-.497.712-.53l.869-.058v.307c0 .457-.392.803-.921.803zm2.537-2.047c0 .525.314.826.99.982l.62.147c.356.085.523.229.523.451 0 .29-.31.493-.748.493-.425 0-.686-.173-.774-.45h-.702c.062.617.614.999 1.46.999.849 0 1.472-.448 1.472-1.107 0-.516-.317-.807-.992-.964l-.592-.137c-.385-.091-.565-.228-.565-.447 0-.287.298-.48.69-.48.398 0 .653.173.718.437h.673c-.069-.614-.591-.986-1.391-.986-.804 0-1.382.444-1.382 1.062zm3.72 2.553h.702v-2.077c0-.555.32-.924.895-.924.496 0 .76.29.76.875v2.126h.703v-2.292c0-.84-.467-1.32-1.225-1.32-.536 0-.911.236-1.084.63h-.056v-1.955h-.695zm4.412-4.18a.444.444 0 00.444-.44.445.445 0 00-.889 0c0 .241.2.44.444.44zm-.35 4.18h.699v-3.546h-.699zm3.746.115c1.051 0 1.825-.605 1.956-1.522h-.728c-.131.535-.604.872-1.228.872-.85 0-1.378-.7-1.378-1.82s.529-1.821 1.374-1.821c.621 0 1.094.372 1.232.956h.728c-.118-.943-.921-1.606-1.96-1.606-1.309 0-2.122.947-2.122 2.472 0 1.522.816 2.469 2.126 2.469zm4.34-.046c1.038 0 1.675-.696 1.675-1.842 0-1.146-.64-1.842-1.675-1.842-1.039 0-1.679.699-1.679 1.842 0 1.146.637 1.842 1.679 1.842zm0-.598c-.61 0-.954-.454-.954-1.244s.343-1.247.954-1.247c.607 0 .953.457.953 1.247 0 .787-.346 1.244-.953 1.244zm2.52.53h.703V89.6c0-.5.376-.843.908-.843.124 0 .333.023.392.04v-.66a1.761 1.761 0 00-.314-.026c-.463 0-.859.251-.96.6h-.052v-.538h-.676zm4.576-3.61c-.483 0-.901.246-1.117.65h-.052v-.587h-.676v4.728h.702v-1.717h.056c.186.375.587.594 1.093.594.899 0 1.47-.712 1.47-1.832 0-1.127-.571-1.835-1.476-1.835zm-.2 3.067c-.587 0-.956-.473-.956-1.231 0-.76.369-1.234.96-1.234.594 0 .95.463.95 1.234s-.356 1.231-.953 1.231z" fill="#3c434d" fill-opacity=".75"/><path d="M107.073 92.739l1.695-5.944h-.62l-1.692 5.944z" fill="#3c434d" fill-opacity=".25"/><path d="M117.501 91.733l1.675-4.712h-.777l-1.264 3.837h-.055l-1.271-3.837h-.797l1.685 4.712zm3.04.059c.467 0 .856-.203 1.068-.562h.055v.503h.676v-2.426c0-.745-.502-1.189-1.394-1.189-.807 0-1.381.389-1.453.986h.679c.078-.258.35-.405.741-.405.48 0 .729.22.729.608v.31l-.964.059c-.846.052-1.322.421-1.322 1.058 0 .646.499 1.058 1.185 1.058zm.18-.565c-.382 0-.66-.193-.66-.522 0-.324.222-.497.712-.53l.869-.058v.307c0 .457-.392.803-.921.803zm4.118 1.861c1.005 0 1.642-.512 1.642-1.319v-3.582h-.672v.565h-.056c-.199-.386-.627-.627-1.117-.627-.908 0-1.476.715-1.476 1.79 0 1.064.562 1.766 1.47 1.766.49 0 .881-.212 1.097-.598h.052v.683c0 .48-.346.767-.931.767-.473 0-.77-.17-.829-.437h-.718c.075.597.649.992 1.538.992zm-.01-1.988c-.604 0-.944-.46-.944-1.186 0-.725.34-1.188.944-1.188.597 0 .963.463.963 1.188 0 .725-.362 1.186-.963 1.186zm2.671.633h.702v-2.12c0-.499.376-.842.908-.842.124 0 .333.023.392.04v-.66a1.762 1.762 0 00-.314-.026c-.463 0-.858.251-.96.6h-.052v-.538h-.676zm3.635.059c.467 0 .855-.203 1.068-.562h.055v.503h.676v-2.426c0-.745-.503-1.189-1.394-1.189-.807 0-1.382.389-1.453.986h.679c.078-.258.349-.405.741-.405.48 0 .728.22.728.608v.31l-.963.059c-.846.052-1.323.421-1.323 1.058 0 .646.5 1.058 1.186 1.058zm.179-.565c-.382 0-.659-.193-.659-.522 0-.324.222-.497.712-.53l.868-.058v.307c0 .457-.392.803-.921.803zm2.619.506h.703v-2.08c0-.572.329-.924.849-.924.519 0 .767.287.767.875v2.13h.702v-2.297c0-.845-.437-1.319-1.231-1.319-.536 0-.888.239-1.061.63h-.053v-.561h-.676zm4.259-4.441v.905h-.565v.561h.565V90.8c0 .683.31.957 1.091.957.137 0 .267-.016.382-.036v-.558c-.098.01-.16.016-.268.016-.35 0-.503-.167-.503-.549v-1.87h.771v-.562h-.771v-.905z" fill="#3c434d" fill-opacity=".75"/><path d="M55.917 118h1.71v-3.727c0-.858.494-1.44 1.353-1.44.775 0 1.193.47 1.193 1.387V118h1.71v-4.168c0-1.551-.828-2.427-2.222-2.427-.952 0-1.657.446-1.957 1.181h-.106v-3.533h-1.681zm8.803.1c.84 0 1.546-.359 1.881-.958h.106V118h1.658v-4.42c0-1.382-.97-2.193-2.687-2.193-1.628 0-2.727.747-2.839 1.934h1.575c.141-.406.553-.623 1.17-.623.705 0 1.093.323 1.093.882v.535l-1.569.094c-1.61.094-2.51.776-2.51 1.945 0 1.182.876 1.946 2.122 1.946zm.564-1.252c-.593 0-1.01-.3-1.01-.8 0-.476.358-.752 1.093-.799l1.31-.088v.482c0 .682-.6 1.205-1.393 1.205zm4.013-3.433c0 .993.611 1.587 1.869 1.863l1.176.265c.57.129.817.329.817.658 0 .429-.459.723-1.123.723-.682 0-1.1-.264-1.228-.711h-1.67c.118 1.223 1.152 1.922 2.863 1.922 1.699 0 2.857-.834 2.857-2.116 0-.964-.565-1.493-1.823-1.769l-1.216-.265c-.6-.135-.876-.341-.876-.67 0-.423.452-.711 1.064-.711.634 0 1.028.264 1.116.693h1.582c-.094-1.222-1.064-1.91-2.71-1.91-1.617 0-2.698.817-2.698 2.028zM75.719 118h1.71v-3.727c0-.858.494-1.44 1.353-1.44.776 0 1.193.47 1.193 1.387V118h1.71v-4.168c0-1.551-.828-2.427-2.221-2.427-.953 0-1.658.446-1.958 1.181H77.4v-3.533h-1.68zm7.898-7.465a.958.958 0 00.964-.952.96.96 0 00-.964-.959.965.965 0 00-.97.959c0 .529.441.952.97.952zM82.76 118h1.71v-6.472h-1.71zm8.58-4.215c-.141-1.446-1.17-2.398-2.887-2.398-2.028 0-3.168 1.229-3.168 3.362 0 2.158 1.146 3.386 3.168 3.386 1.687 0 2.745-.929 2.887-2.351h-1.6c-.129.647-.587.993-1.287.993-.917 0-1.44-.723-1.44-2.028 0-1.287.517-1.998 1.44-1.998.73 0 1.17.411 1.288 1.034zm3.612 4.35c1.993 0 3.192-1.258 3.192-3.374 0-2.098-1.217-3.374-3.192-3.374s-3.192 1.282-3.192 3.374c0 2.11 1.2 3.374 3.192 3.374zm0-1.352c-.917 0-1.434-.74-1.434-2.022 0-1.27.523-2.016 1.434-2.016.906 0 1.435.746 1.435 2.016 0 1.282-.524 2.022-1.435 2.022zm3.99 1.217h1.71v-3.621c0-.911.64-1.469 1.575-1.469.276 0 .676.047.811.094v-1.505c-.147-.047-.435-.077-.67-.077-.823 0-1.493.488-1.663 1.135h-.106v-1.029H98.94zm8.444-6.578c-.894 0-1.629.441-1.981 1.17h-.106v-1.064h-1.658v8.618h1.711v-3.134h.106c.317.682 1.028 1.088 1.957 1.088 1.622 0 2.616-1.258 2.616-3.339 0-2.087-1.005-3.339-2.645-3.339zm-.582 5.297c-.905 0-1.47-.741-1.47-1.952s.565-1.957 1.476-1.957 1.463.734 1.463 1.951c0 1.223-.546 1.958-1.469 1.958zm16.831-5.297c-.893 0-1.628.441-1.981 1.17h-.106v-1.064h-1.657v8.618h1.71v-3.134h.106c.318.682 1.029 1.088 1.958 1.088 1.622 0 2.615-1.258 2.615-3.339 0-2.087-1.005-3.339-2.645-3.339zm-.582 5.297c-.905 0-1.469-.741-1.469-1.952s.564-1.957 1.475-1.957 1.464.734 1.464 1.951c0 1.223-.547 1.958-1.47 1.958zm4.019 1.281h1.71v-3.621c0-.911.641-1.469 1.575-1.469.277 0 .676.047.812.094v-1.505c-.147-.047-.435-.077-.671-.077-.822 0-1.493.488-1.663 1.135h-.106v-1.029h-1.657zm8.679-1.828c-.182.441-.646.688-1.322.688-.894 0-1.458-.618-1.482-1.605v-.088h4.45v-.512c0-2.045-1.129-3.268-3.039-3.268-1.928 0-3.115 1.305-3.115 3.409 0 2.093 1.164 3.339 3.139 3.339 1.587 0 2.709-.758 2.962-1.963zm-1.387-3.509c.799 0 1.317.552 1.352 1.44h-2.763c.059-.87.617-1.44 1.411-1.44zm9.573 1.122c-.141-1.446-1.17-2.398-2.886-2.398-2.028 0-3.168 1.229-3.168 3.362 0 2.158 1.146 3.386 3.168 3.386 1.687 0 2.745-.929 2.886-2.351h-1.599c-.129.647-.588.993-1.287.993-.917 0-1.44-.723-1.44-2.028 0-1.287.517-1.998 1.44-1.998.729 0 1.17.411 1.287 1.034zm1.608-3.25a.958.958 0 00.964-.952c0-.535-.435-.959-.964-.959s-.97.424-.97.959c0 .529.441.952.97.952zm-.858 7.465h1.711v-6.472h-1.711zm2.696-4.585c0 .993.611 1.587 1.869 1.863l1.176.265c.57.129.817.329.817.658 0 .429-.459.723-1.123.723-.682 0-1.099-.264-1.229-.711h-1.669c.118 1.223 1.152 1.922 2.863 1.922 1.699 0 2.856-.834 2.856-2.116 0-.964-.564-1.493-1.822-1.769l-1.216-.265c-.6-.135-.876-.341-.876-.67 0-.423.452-.711 1.064-.711.634 0 1.028.264 1.116.693h1.582c-.094-1.222-1.064-1.91-2.71-1.91-1.617 0-2.698.817-2.698 2.028zm10.555 2.757c-.183.441-.647.688-1.323.688-.893 0-1.458-.618-1.481-1.605v-.088h4.449v-.512c0-2.045-1.128-3.268-3.039-3.268-1.928 0-3.115 1.305-3.115 3.409 0 2.093 1.164 3.339 3.139 3.339 1.587 0 2.71-.758 2.963-1.963zm-1.388-3.509c.8 0 1.317.552 1.352 1.44h-2.762c.058-.87.617-1.44 1.41-1.44zm7.222 5.549c1.899 0 3.245-1.247 3.245-3.004 0-1.622-1.182-2.804-2.792-2.804-.988 0-1.775.447-2.163 1.246h-.106c0-1.881.682-2.939 1.857-2.939.688 0 1.199.359 1.335.952h1.757c-.206-1.404-1.446-2.363-3.115-2.363-2.169 0-3.527 1.699-3.527 4.527 0 2.933 1.475 4.385 3.509 4.385zm-.017-1.405c-.882 0-1.535-.688-1.535-1.581 0-.882.629-1.529 1.54-1.529.912 0 1.535.641 1.535 1.552 0 .876-.659 1.558-1.54 1.558zm8.232 1.193h1.693v-1.558h1.111v-1.422h-1.111v-5.502h-2.486a97.066 97.066 0 00-3.357 5.531v1.393h4.15zm-2.557-3.027a73.745 73.745 0 012.505-4.109h.094v4.203h-2.599z" fill="#1060ff"/><path d="M114.063 119.822l3.039-10.769h-1.575l-3.039 10.769z" fill="#0c0c0e"/><path d="M182.717 118l1.675-4.712h-.777l-1.264 3.837h-.055l-1.271-3.837h-.796l1.685 4.712zm3.04.059c.467 0 .856-.203 1.068-.562h.056V118h.676v-2.426c0-.745-.503-1.189-1.395-1.189-.806 0-1.381.389-1.453.986h.679c.079-.258.35-.405.742-.405.48 0 .728.219.728.608v.31l-.964.059c-.845.052-1.322.421-1.322 1.058 0 .646.5 1.058 1.185 1.058zm.18-.565c-.382 0-.66-.193-.66-.523 0-.323.222-.496.712-.529l.869-.058v.306c0 .458-.392.804-.921.804zm4.118 1.861c1.006 0 1.642-.512 1.642-1.319v-3.582h-.672v.564h-.056c-.199-.385-.627-.627-1.117-.627-.907 0-1.476.716-1.476 1.79 0 1.065.562 1.767 1.47 1.767.49 0 .882-.213 1.097-.598h.052v.683c0 .48-.346.767-.93.767-.474 0-.771-.17-.83-.438h-.718c.075.598.65.993 1.538.993zm-.01-1.989c-.604 0-.944-.46-.944-1.185s.34-1.189.944-1.189c.598 0 .963.464.963 1.189s-.362 1.185-.963 1.185zm2.671.634h.702v-2.119c0-.5.376-.843.908-.843.124 0 .333.023.392.039v-.659a1.69 1.69 0 00-.313-.027c-.464 0-.859.252-.96.601h-.053v-.538h-.676zm3.635.059c.467 0 .856-.203 1.068-.562h.055V118h.676v-2.426c0-.745-.503-1.189-1.394-1.189-.807 0-1.381.389-1.453.986h.679c.078-.258.349-.405.741-.405.48 0 .728.219.728.608v.31l-.963.059c-.846.052-1.322.421-1.322 1.058 0 .646.499 1.058 1.185 1.058zm.18-.565c-.382 0-.66-.193-.66-.523 0-.323.222-.496.712-.529l.868-.058v.306c0 .458-.391.804-.92.804zm2.619.506h.702v-2.08c0-.572.33-.924.849-.924s.767.287.767.875V118h.702v-2.296c0-.846-.437-1.319-1.231-1.319-.535 0-.888.238-1.061.63h-.052v-.561h-.676zm4.258-4.441v.904h-.565v.562h.565v2.041c0 .683.31.957 1.091.957.137 0 .267-.016.382-.036v-.558c-.098.009-.16.016-.268.016-.349 0-.503-.167-.503-.549v-1.871h.771v-.562h-.771v-.904zm6.012 4.5c.898 0 1.47-.715 1.47-1.832 0-1.127-.569-1.836-1.47-1.836-.487 0-.905.239-1.094.624h-.055v-1.953h-.703V118h.676v-.562h.053c.212.392.627.621 1.123.621zm-.202-3.067c.594 0 .95.467.95 1.235 0 .767-.356 1.231-.95 1.231-.592 0-.957-.47-.961-1.231.004-.761.373-1.235.961-1.235zm4.02 3.077c1.038 0 1.675-.696 1.675-1.842s-.64-1.842-1.675-1.842c-1.039 0-1.679.699-1.679 1.842 0 1.146.637 1.842 1.679 1.842zm0-.598c-.611 0-.954-.454-.954-1.244 0-.791.343-1.248.954-1.248.607 0 .953.457.953 1.248 0 .787-.346 1.244-.953 1.244zm3.67-.741l.777 1.277h.807l-1.186-1.793 1.173-1.754h-.784l-.758 1.267h-.055l-.764-1.267h-.82l1.189 1.78-1.179 1.767h.771l.777-1.277z" fill="#3c434d" fill-opacity=".75"/><g clip-path="url(#c)"><path d="M88.52 219.593c-.091-.689-.63-1.208-1.521-1.208-1.036 0-1.666.702-1.666 1.829 0 1.149.634 1.855 1.669 1.855.878 0 1.427-.494 1.518-1.192h-.682c-.092.385-.395.594-.84.594-.584 0-.947-.474-.947-1.257 0-.768.36-1.231.947-1.231.47 0 .758.264.84.61zm3.801-1.139h-.702v2.08c0 .571-.31.917-.878.917-.516 0-.748-.28-.748-.868v-2.129h-.702v2.302c0 .833.437 1.313 1.224 1.313.54 0 .902-.229 1.075-.631h.055V222h.676zm1.02 3.546h.701v-2.119c0-.5.376-.843.908-.843.124 0 .333.023.392.039v-.659a1.692 1.692 0 00-.313-.027c-.464 0-.86.252-.96.601h-.053v-.538h-.676zm2.73 0h.702v-2.119c0-.5.375-.843.907-.843.124 0 .333.023.392.039v-.659a1.692 1.692 0 00-.313-.027c-.464 0-.86.252-.96.601h-.053v-.538h-.676zm4.917-.95c-.13.287-.421.444-.845.444-.562 0-.925-.405-.947-1.048v-.033h2.511v-.242c0-1.11-.598-1.786-1.587-1.786-1.003 0-1.64.722-1.64 1.848 0 1.133.624 1.836 1.643 1.836.813 0 1.388-.392 1.541-1.019zm-.871-2.094c.519 0 .858.376.875.951h-1.796c.039-.572.401-.951.921-.951zm2.432 3.044h.703v-2.08c0-.572.329-.924.849-.924.519 0 .767.287.767.875V222h.702v-2.296c0-.846-.437-1.319-1.231-1.319-.536 0-.888.238-1.061.63h-.053v-.561h-.676zm4.259-4.441v.904h-.565v.562h.565v2.041c0 .683.31.957 1.091.957.137 0 .267-.016.382-.036v-.558c-.098.009-.16.016-.268.016-.35 0-.503-.167-.503-.549v-1.871h.771v-.562h-.771v-.904zm2.331 4.441h.703v-4.938h-.703zm2.11 1.287c.725 0 1.061-.271 1.365-1.124l1.326-3.709h-.745l-.888 2.841h-.055l-.892-2.841h-.764l1.287 3.556-.053.183c-.12.375-.31.516-.643.516-.065 0-.173-.004-.229-.013v.574c.066.01.232.017.291.017zm5.238-1.287h.702v-2.119c0-.5.376-.843.908-.843.124 0 .333.023.392.039v-.659a1.693 1.693 0 00-.314-.027c-.463 0-.858.252-.96.601h-.052v-.538h-.676zm4.918-.95c-.13.287-.421.444-.846.444-.561 0-.924-.405-.947-1.048v-.033h2.512v-.242c0-1.11-.598-1.786-1.587-1.786-1.003 0-1.64.722-1.64 1.848 0 1.133.624 1.836 1.643 1.836.813 0 1.388-.392 1.541-1.019zm-.872-2.094c.519 0 .859.376.875.951h-1.796c.04-.572.402-.951.921-.951zm2.466 3.044h.702v-4.938h-.702zm4.088-.95c-.13.287-.421.444-.845.444-.562 0-.925-.405-.947-1.048v-.033h2.511v-.242c0-1.11-.598-1.786-1.587-1.786-1.003 0-1.64.722-1.64 1.848 0 1.133.624 1.836 1.643 1.836.813 0 1.388-.392 1.541-1.019zm-.872-2.094c.52 0 .859.376.876.951h-1.796c.039-.572.401-.951.92-.951zm3.416 3.103c.467 0 .856-.203 1.068-.562h.056V222h.676v-2.426c0-.745-.503-1.189-1.395-1.189-.806 0-1.381.389-1.453.986h.679c.079-.258.35-.405.742-.405.48 0 .728.219.728.608v.31l-.964.059c-.845.052-1.322.421-1.322 1.058 0 .646.5 1.058 1.185 1.058zm.18-.565c-.382 0-.66-.193-.66-.523 0-.323.222-.496.712-.529l.869-.058v.306c0 .458-.392.804-.921.804zm2.537-2.048c0 .526.314.826.99.983l.62.147c.356.085.523.229.523.451 0 .29-.31.493-.748.493-.425 0-.686-.173-.774-.451h-.702c.062.618.614 1 1.46 1 .849 0 1.472-.448 1.472-1.107 0-.516-.316-.807-.992-.964l-.591-.137c-.386-.091-.565-.229-.565-.447 0-.288.297-.48.689-.48.398 0 .653.173.718.437h.673c-.069-.614-.591-.986-1.391-.986-.804 0-1.382.444-1.382 1.061zm6.019 1.604c-.131.287-.421.444-.846.444-.562 0-.924-.405-.947-1.048v-.033h2.511v-.242c0-1.11-.597-1.786-1.587-1.786-1.002 0-1.639.722-1.639 1.848 0 1.133.624 1.836 1.642 1.836.814 0 1.388-.392 1.542-1.019zm-.872-2.094c.519 0 .859.376.875.951h-1.796c.039-.572.402-.951.921-.951zm3.733 3.103c.489 0 .904-.232 1.116-.621h.056V222h.673v-4.938h-.703v1.953h-.052c-.192-.388-.604-.624-1.09-.624-.899 0-1.477.716-1.477 1.833 0 1.123.572 1.835 1.477 1.835zm.199-3.067c.588 0 .957.477.957 1.235 0 .764-.366 1.231-.957 1.231-.595 0-.951-.461-.951-1.231 0-.768.36-1.235.951-1.235zm7.54-.538h-.745l-.881 2.828h-.056l-.885-2.828h-.751l1.284 3.546h.754zm2.906 2.596c-.13.287-.421.444-.845.444-.562 0-.925-.405-.947-1.048v-.033h2.511v-.242c0-1.11-.598-1.786-1.587-1.786-1.003 0-1.64.722-1.64 1.848 0 1.133.624 1.836 1.643 1.836.813 0 1.388-.392 1.541-1.019zm-.871-2.094c.519 0 .858.376.875.951h-1.796c.039-.572.401-.951.921-.951zm2.432 3.044h.703v-2.119c0-.5.375-.843.907-.843.124 0 .333.023.392.039v-.659a1.69 1.69 0 00-.313-.027c-.464 0-.859.252-.96.601h-.053v-.538h-.676zm2.525-2.554c0 .526.313.826.989.983l.621.147c.356.085.522.229.522.451 0 .29-.31.493-.748.493-.424 0-.685-.173-.774-.451h-.702c.062.618.614 1 1.46 1 .849 0 1.473-.448 1.473-1.107 0-.516-.317-.807-.993-.964l-.591-.137c-.385-.091-.565-.229-.565-.447 0-.288.297-.48.689-.48.399 0 .653.173.719.437h.672c-.068-.614-.591-.986-1.391-.986-.803 0-1.381.444-1.381 1.061zm4.049-1.626a.444.444 0 00.444-.441.444.444 0 00-.888 0c0 .242.199.441.444.441zm-.349 4.18h.699v-3.546h-.699zm3.233.069c1.038 0 1.675-.696 1.675-1.842s-.64-1.842-1.675-1.842c-1.039 0-1.679.699-1.679 1.842 0 1.146.637 1.842 1.679 1.842zm0-.598c-.611 0-.954-.454-.954-1.244 0-.791.343-1.248.954-1.248.607 0 .953.457.953 1.248 0 .787-.346 1.244-.953 1.244zm2.521.529h.702v-2.08c0-.572.33-.924.849-.924s.767.287.767.875V222h.702v-2.296c0-.846-.437-1.319-1.231-1.319-.535 0-.888.238-1.061.63h-.052v-.561h-.676z" fill="#3c434d" fill-opacity=".75"/><path d="M60.603 216.603h-1.505l-1.108 4.059h-.088l-1.118-4.059H55.25L57.128 222h1.608zM62.778 222h1.48v-7.074h-1.475l-1.829 1.27v1.333l1.736-1.206h.088zm3.7.123c.529 0 .867-.353.867-.834 0-.48-.338-.828-.868-.828-.524 0-.867.348-.867.828 0 .481.343.834.867.834zm3.15-.123h1.48v-7.074h-1.475l-1.83 1.27v1.333l1.736-1.206h.089zm3.699.123c.53 0 .868-.353.868-.834 0-.48-.339-.828-.868-.828-.525 0-.868.348-.868.828 0 .481.343.834.868.834zm4.21.058c1.75 0 2.808-1.382 2.808-3.725 0-2.349-1.074-3.711-2.809-3.711-1.74 0-2.809 1.362-2.809 3.706 0 2.348 1.059 3.73 2.81 3.73zm0-1.171c-.81 0-1.31-.863-1.31-2.559 0-1.682.505-2.535 1.31-2.535.808 0 1.308.848 1.308 2.535 0 1.696-.495 2.559-1.309 2.559z" fill="#1060ff"/></g><g filter="url(#d)"><path d="M340 41H45a5 5 0 00-5 5v27h300z" fill="url(#e)"/></g><path d="M173.591 54.288V59h1.701c1.405 0 2.218-.869 2.218-2.368 0-1.482-.82-2.344-2.218-2.344zm.732.63h.888c.976 0 1.554.637 1.554 1.724 0 1.097-.568 1.728-1.554 1.728h-.888zm5.068 4.14c.467 0 .855-.202 1.068-.56h.055V59h.676v-2.426c0-.745-.503-1.189-1.394-1.189-.807 0-1.382.389-1.453.986h.679c.078-.258.349-.405.741-.405.48 0 .728.219.728.608v.31l-.963.059c-.846.052-1.323.42-1.323 1.058 0 .646.5 1.058 1.186 1.058zm.179-.564c-.382 0-.659-.193-.659-.523 0-.323.222-.496.712-.529l.868-.059v.307c0 .458-.392.804-.921.804zm2.538-2.048c0 .526.313.827.989.983l.621.147c.356.085.522.229.522.45 0 .291-.31.494-.748.494-.424 0-.685-.173-.774-.45h-.702c.062.617.614.999 1.46.999.849 0 1.473-.448 1.473-1.107 0-.516-.317-.807-.993-.964l-.591-.137c-.385-.091-.565-.229-.565-.447 0-.288.297-.48.689-.48.399 0 .653.173.719.437h.672c-.068-.614-.591-.986-1.391-.986-.803 0-1.381.444-1.381 1.061zM185.827 59h.702v-2.077c0-.555.321-.924.895-.924.497 0 .761.29.761.875V59h.702v-2.292c0-.84-.467-1.32-1.224-1.32-.536 0-.911.235-1.085.63h-.055v-1.956h-.696zm5.934.059c.898 0 1.47-.715 1.47-1.832 0-1.127-.569-1.835-1.47-1.835-.487 0-.905.238-1.094.623h-.055v-1.953h-.703V59h.676v-.562h.053c.212.392.627.62 1.123.62zm-.202-3.067c.594 0 .95.467.95 1.235 0 .767-.356 1.23-.95 1.23-.592 0-.957-.47-.961-1.23.004-.761.373-1.235.961-1.235zm4.02 3.077c1.038 0 1.675-.696 1.675-1.842 0-1.146-.64-1.842-1.675-1.842-1.039 0-1.679.699-1.679 1.842 0 1.146.637 1.842 1.679 1.842zm0-.598c-.611 0-.954-.454-.954-1.244s.343-1.248.954-1.248c.607 0 .953.457.953 1.248 0 .787-.346 1.244-.953 1.244zm3.504.588c.467 0 .855-.203 1.067-.562h.056V59h.676v-2.426c0-.745-.503-1.189-1.395-1.189-.806 0-1.381.389-1.453.986h.68c.078-.258.349-.405.741-.405.48 0 .728.219.728.608v.31l-.963.059c-.846.052-1.323.42-1.323 1.058 0 .646.5 1.058 1.186 1.058zm.179-.565c-.382 0-.66-.193-.66-.523 0-.323.223-.496.712-.529l.869-.059v.307c0 .458-.392.804-.921.804zm2.619.506h.702v-2.12c0-.499.376-.842.908-.842.124 0 .333.023.392.04v-.66a1.759 1.759 0 00-.313-.026c-.464 0-.859.25-.961.6h-.052v-.538h-.676zm3.886.059c.49 0 .905-.232 1.117-.62h.056V59h.672v-4.938h-.702v1.953h-.052c-.193-.388-.604-.624-1.091-.624-.898 0-1.476.716-1.476 1.833 0 1.123.572 1.835 1.476 1.835zm.199-3.067c.588 0 .957.477.957 1.235 0 .764-.365 1.23-.957 1.23-.594 0-.95-.46-.95-1.23 0-.768.359-1.235.95-1.235zm17.403 1.751c.052.836.754 1.371 1.799 1.371 1.117 0 1.816-.561 1.816-1.453 0-.705-.398-1.094-1.365-1.326l-.519-.127c-.614-.15-.862-.346-.862-.69 0-.44.385-.724.963-.724.549 0 .927.274.996.722h.712c-.043-.787-.741-1.343-1.698-1.343-1.029 0-1.715.556-1.715 1.385 0 .686.389 1.09 1.241 1.296l.608.147c.623.15.898.38.898.748 0 .431-.431.742-1.019.742-.63 0-1.068-.291-1.13-.748zm6.828.307c-.13.287-.421.444-.845.444-.562 0-.925-.405-.947-1.048v-.033h2.511v-.242c0-1.11-.598-1.786-1.587-1.786-1.003 0-1.64.722-1.64 1.848 0 1.134.624 1.836 1.643 1.836.813 0 1.388-.392 1.541-1.02zm-.871-2.094c.519 0 .858.376.875.95h-1.796c.039-.57.401-.95.921-.95zm3.415 3.103c.467 0 .856-.203 1.068-.562h.056V59h.676v-2.426c0-.745-.503-1.189-1.395-1.189-.806 0-1.381.389-1.453.986h.679c.079-.258.35-.405.742-.405.48 0 .728.219.728.608v.31l-.963.059c-.846.052-1.323.42-1.323 1.058 0 .646.5 1.058 1.185 1.058zm.18-.565c-.382 0-.66-.193-.66-.523 0-.323.222-.496.712-.529l.869-.058v.307c0 .457-.392.803-.921.803zm2.619.506h.702v-2.12c0-.499.376-.842.908-.842.124 0 .333.023.392.04v-.66a1.762 1.762 0 00-.314-.026c-.463 0-.859.25-.96.6h-.052v-.538h-.676zm5.597-2.407c-.091-.689-.63-1.208-1.521-1.208-1.036 0-1.666.702-1.666 1.829 0 1.15.634 1.855 1.669 1.855.878 0 1.427-.493 1.518-1.192h-.682c-.092.385-.395.594-.839.594-.585 0-.948-.473-.948-1.257 0-.768.36-1.231.948-1.231.47 0 .757.264.839.61zm.836 2.407h.702v-2.077c0-.555.32-.924.895-.924.497 0 .761.29.761.875V59h.702v-2.292c0-.84-.467-1.32-1.224-1.32-.536 0-.912.235-1.085.63h-.055v-1.956h-.696zm18.618-4.712V59h.732v-1.61h1.09c.924 0 1.578-.633 1.578-1.541 0-.928-.634-1.561-1.555-1.561zm.732.617h.92c.644 0 1 .333 1 .944 0 .59-.369.927-1 .927h-.92zm3.53 4.095h.702v-2.12c0-.499.375-.842.908-.842.124 0 .333.023.392.04v-.66a1.77 1.77 0 00-.314-.026c-.464 0-.859.251-.96.6h-.052v-.538h-.676zm3.04-4.18c.245 0 .444-.2.444-.44a.444.444 0 00-.888 0c0 .24.199.44.444.44zm-.349 4.18h.698v-3.546h-.698zm4.741-2.407c-.091-.689-.63-1.208-1.522-1.208-1.035 0-1.665.702-1.665 1.829 0 1.15.634 1.855 1.669 1.855.878 0 1.427-.493 1.518-1.192h-.682c-.092.385-.395.594-.84.594-.584 0-.947-.473-.947-1.257 0-.768.36-1.231.947-1.231.471 0 .758.264.84.61zm1.166-1.773c.245 0 .444-.2.444-.44a.444.444 0 00-.888 0c0 .24.199.44.444.44zm-.349 4.18h.699v-3.546h-.699zm1.73 0h.703v-2.08c0-.572.329-.924.849-.924.519 0 .767.287.767.875V59h.702v-2.297c0-.845-.437-1.319-1.231-1.319-.536 0-.888.238-1.061.63h-.053v-.561h-.676zm5.51 1.355c1.005 0 1.642-.512 1.642-1.319v-3.582h-.673v.565h-.055c-.199-.386-.627-.627-1.117-.627-.908 0-1.476.715-1.476 1.79 0 1.064.562 1.766 1.47 1.766.489 0 .881-.212 1.097-.598h.052v.683c0 .48-.346.767-.931.767-.473 0-.77-.17-.829-.437h-.719c.076.597.65.992 1.539.992zm-.01-1.988c-.604 0-.944-.46-.944-1.186 0-.725.34-1.188.944-1.188.597 0 .963.463.963 1.188 0 .725-.362 1.186-.963 1.186z" fill="#fff" fill-opacity=".75"/><path d="M61.008 50.903l-2.612 1.507v.926l-1.591 3.742-1.591-3.742v-.926l-2.612-1.507-1.588.918v1.065l3.537 8.664 2.254 1.3 2.254-1.3 3.537-8.664v-1.065z" fill="#1868f2"/><path d="M62.596 51.82l-2.611 1.508v.926l-2.12 4.74-1.06.611v3.246l2.254-1.301 3.537-8.664zm-7.382 1.516v-.926l-1.59.917v.927l2.122 4.74 1.059-.612v-1.304z" fill="#0850c5"/><path d="M74.437 61l2.828-8.482h-1.91L73.46 59.06h-.105l-1.928-6.542h-2.005L72.292 61zm4.542.1c.84 0 1.546-.359 1.88-.958h.106V61h1.658v-4.42c0-1.382-.97-2.193-2.686-2.193-1.628 0-2.728.747-2.84 1.934h1.576c.141-.406.552-.623 1.17-.623.705 0 1.093.323 1.093.882v.535l-1.57.094c-1.61.094-2.51.775-2.51 1.945 0 1.182.876 1.946 2.123 1.946zm.564-1.252c-.594 0-1.011-.3-1.011-.8 0-.476.358-.752 1.093-.799l1.311-.088v.482c0 .682-.6 1.205-1.393 1.205zm7.016 3.603c1.958 0 3.198-.952 3.198-2.463v-6.46h-1.658v1.035h-.106c-.347-.706-1.093-1.14-1.969-1.14-1.646 0-2.657 1.28-2.657 3.285 0 1.94 1.005 3.198 2.622 3.198.911 0 1.593-.37 1.951-1.052h.106v1.205c0 .746-.535 1.181-1.452 1.181-.74 0-1.222-.258-1.31-.67H83.59c.105 1.135 1.246 1.881 2.968 1.881zm.024-3.856c-.93 0-1.458-.729-1.458-1.893 0-1.164.535-1.892 1.457-1.892.923 0 1.482.728 1.482 1.892s-.553 1.893-1.481 1.893zM90.87 61h1.71v-3.62c0-.912.641-1.47 1.576-1.47.276 0 .676.047.811.094v-1.505c-.147-.047-.435-.077-.67-.077-.823 0-1.493.488-1.663 1.135h-.106v-1.029H90.87zm6.3.1c.84 0 1.545-.359 1.88-.958h.106V61h1.658v-4.42c0-1.382-.97-2.193-2.687-2.193-1.628 0-2.727.747-2.839 1.934h1.576c.14-.406.552-.623 1.17-.623.705 0 1.093.323 1.093.882v.535l-1.57.094c-1.61.094-2.51.775-2.51 1.945 0 1.182.876 1.946 2.122 1.946zm.564-1.252c-.594 0-1.011-.3-1.011-.8 0-.476.358-.752 1.093-.799l1.31-.088v.482c0 .682-.599 1.205-1.392 1.205zm4.16 1.152h1.711v-3.744c0-.876.487-1.44 1.281-1.44.811 0 1.193.476 1.193 1.387V61h1.711v-4.185c0-1.546-.776-2.428-2.216-2.428-.958 0-1.617.453-1.917 1.182h-.105v-1.04h-1.658zm7.445-8.018v1.605h-1.011v1.299h1.011v3.368c0 1.258.623 1.77 2.199 1.77.329 0 .646-.036.858-.077v-1.264c-.165.018-.282.03-.506.03-.582 0-.84-.27-.84-.853v-2.974h1.346v-1.299h-1.346v-1.605zm10.159 8.235c2.045 0 3.538-1.24 3.685-3.05h-1.728c-.17.934-.934 1.534-1.951 1.534-1.341 0-2.169-1.129-2.169-2.945s.828-2.945 2.163-2.945c1.011 0 1.781.647 1.951 1.628h1.729c-.13-1.822-1.67-3.139-3.68-3.139-2.463 0-3.98 1.7-3.98 4.456s1.523 4.461 3.98 4.461zm4.606-.217h1.71v-8.947h-1.71zm5.764.135c1.993 0 3.192-1.258 3.192-3.374 0-2.098-1.217-3.374-3.192-3.374s-3.192 1.281-3.192 3.374c0 2.11 1.199 3.374 3.192 3.374zm0-1.352c-.917 0-1.434-.74-1.434-2.022 0-1.27.523-2.016 1.434-2.016.905 0 1.434.746 1.434 2.016 0 1.282-.523 2.022-1.434 2.022zm9.855-5.255h-1.71v3.739c0 .887-.459 1.434-1.311 1.434-.788 0-1.193-.464-1.193-1.381v-3.792h-1.711v4.215c0 1.505.87 2.392 2.269 2.392.982 0 1.587-.423 1.893-1.175h.106V61h1.657zm3.437 6.572c.899 0 1.634-.417 1.981-1.117h.105V61h1.658v-8.947h-1.711v3.51h-.099c-.336-.717-1.059-1.14-1.934-1.14-1.629 0-2.64 1.275-2.64 3.332 0 2.063 1.005 3.345 2.64 3.345zm.582-5.29c.911 0 1.469.746 1.469 1.957s-.552 1.952-1.469 1.952-1.464-.735-1.464-1.958c0-1.217.552-1.951 1.464-1.951z" fill="#fff"/><path d="M55 137a6 6 0 016-6h279v72H61a6 6 0 01-6-6z" fill="#0c0c0e"/><path d="M69.406 153.336l1.371-5.168h.817L69.887 154h-.957l-1.707-5.832h.816zm5.156-1.535h-.238c-.42 0-.735.074-.949.222-.21.146-.316.365-.316.657 0 .263.079.467.238.613.159.146.379.219.66.219.396 0 .707-.137.934-.41.226-.276.34-.657.343-1.141v-.16zm1.395-.297V154h-.723v-.648c-.153.26-.347.453-.582.578-.231.122-.514.183-.847.183-.446 0-.801-.125-1.067-.375-.265-.252-.398-.59-.398-1.011 0-.487.163-.857.488-1.11.328-.252.809-.379 1.441-.379h.965v-.113c-.002-.349-.09-.602-.265-.758-.175-.159-.453-.238-.836-.238a2.74 2.74 0 00-.742.105c-.25.071-.494.174-.73.309v-.719c.265-.101.519-.177.76-.226.246-.052.483-.078.712-.078.362 0 .67.053.926.16.257.106.466.267.625.48.099.13.169.292.21.485.042.19.063.476.063.859zm4.035.273c0-.539-.088-.948-.265-1.226a.847.847 0 00-.766-.422c-.352 0-.62.141-.805.422-.185.278-.277.687-.277 1.226s.092.951.277 1.235c.188.281.459.422.813.422a.84.84 0 00.758-.426c.177-.284.265-.694.265-1.231zm.719 1.942c0 .656-.155 1.153-.465 1.492-.31.338-.765.508-1.367.508-.198 0-.405-.018-.621-.055a4.51 4.51 0 01-.649-.16v-.711c.256.12.487.208.696.266.208.057.4.086.574.086.388 0 .67-.106.848-.317.177-.211.265-.545.265-1.004v-.519c-.114.244-.27.427-.469.547a1.378 1.378 0 01-.722.179c-.51 0-.918-.204-1.223-.613s-.457-.956-.457-1.641c0-.687.152-1.235.457-1.644s.712-.613 1.223-.613c.281 0 .52.056.715.168.195.111.354.285.476.519v-.566h.719zm5.262-3.192a1.627 1.627 0 00-.47-.261 1.59 1.59 0 00-.523-.082c-.447 0-.79.14-1.027.421-.237.282-.355.688-.355 1.219V154h-.723v-4.375h.723v.855c.12-.309.303-.546.55-.71.25-.167.546-.25.887-.25.177 0 .343.022.496.066.154.044.301.113.442.207zm3.05 1.274h-.238c-.42 0-.736.074-.95.222-.21.146-.315.365-.315.657 0 .263.079.467.238.613.159.146.379.219.66.219.396 0 .707-.137.934-.41.226-.276.34-.657.343-1.141v-.16zm1.395-.297V154h-.723v-.648c-.153.26-.347.453-.582.578-.232.122-.514.183-.847.183-.446 0-.801-.125-1.067-.375-.265-.252-.398-.59-.398-1.011 0-.487.162-.857.488-1.11.328-.252.809-.379 1.441-.379h.965v-.113c-.002-.349-.09-.602-.265-.758-.175-.159-.453-.238-.836-.238a2.74 2.74 0 00-.742.105c-.25.071-.494.174-.73.309v-.719c.265-.101.519-.177.76-.226a3.42 3.42 0 01.712-.078c.362 0 .67.053.925.16.258.106.467.267.625.48.1.13.17.292.211.485.042.19.063.476.063.859zm4.789-.215V154h-.723v-2.711c0-.393-.069-.682-.207-.867-.138-.185-.354-.277-.648-.277-.336 0-.595.119-.777.359-.18.237-.27.578-.27 1.023V154h-.719v-4.375h.719v.656c.128-.25.3-.439.52-.566a1.49 1.49 0 01.777-.195c.445 0 .777.147.996.441.221.292.332.734.332 1.328zm3.113-2.906v1.242h1.633v.559H98.32v2.375c0 .323.061.548.184.675.122.128.336.192.64.192h.81V154h-.88c-.539 0-.92-.108-1.14-.324-.222-.216-.332-.589-.332-1.117v-2.375h-1.168v-.559h1.168v-1.242zm3.942 4.039h1.375V154h-1.375zm7.445 1.355a2.403 2.403 0 01-.598.25 2.261 2.261 0 01-.625.086c-.677 0-1.207-.203-1.589-.609-.381-.406-.571-.969-.571-1.688 0-.718.19-1.281.571-1.687.382-.406.912-.609 1.589-.609.211 0 .417.027.618.082.2.054.402.139.605.253v.754a1.945 1.945 0 00-.574-.367 1.755 1.755 0 00-.649-.113c-.45 0-.796.146-1.039.437-.242.292-.363.709-.363 1.25 0 .539.121.956.363 1.25.245.292.591.438 1.039.438.25 0 .474-.038.672-.113.198-.079.382-.198.551-.36zm3.082-3.648c-.365 0-.641.142-.828.426-.188.284-.281.704-.281 1.261 0 .555.093.976.281 1.262.187.284.463.426.828.426.367 0 .645-.142.832-.426.188-.286.281-.707.281-1.262 0-.557-.093-.977-.281-1.261-.187-.284-.465-.426-.832-.426zm0-.609c.607 0 1.07.196 1.391.589.323.394.484.963.484 1.707 0 .748-.16 1.318-.48 1.711-.321.391-.786.586-1.395.586-.607 0-1.07-.195-1.391-.586-.32-.393-.48-.963-.48-1.711 0-.744.16-1.313.48-1.707.321-.393.784-.589 1.391-.589zm6.52 1.769V154h-.723v-2.711c0-.393-.069-.682-.207-.867s-.354-.277-.649-.277c-.335 0-.595.119-.777.359-.18.237-.269.578-.269 1.023V154h-.719v-4.375h.719v.656c.127-.25.3-.439.519-.566.219-.13.478-.195.777-.195.446 0 .778.147.997.441.221.292.332.734.332 1.328zm4.867-3.367v.598h-.817c-.257 0-.437.053-.539.16-.099.104-.148.29-.148.558v.387h1.504v.559h-1.504V154h-.719v-3.816h-1.168v-.559h1.168v-.305c0-.479.109-.832.328-1.058.222-.227.565-.34 1.031-.34zm1.902 1.719h1.84v3.8h1.426V154h-3.571v-.559h1.426v-3.242h-1.121zm1.121-1.7h.719v.907h-.719zm5.817 3.836c0-.539-.089-.948-.266-1.226a.847.847 0 00-.766-.422c-.351 0-.619.141-.804.422-.185.278-.278.687-.278 1.226s.093.951.278 1.235c.187.281.458.422.812.422a.837.837 0 00.758-.426c.177-.284.266-.694.266-1.231zm.718 1.942c0 .656-.155 1.153-.464 1.492-.31.338-.766.508-1.368.508-.198 0-.405-.018-.621-.055a4.505 4.505 0 01-.648-.16v-.711c.255.12.487.208.695.266.208.057.4.086.574.086.388 0 .671-.106.848-.317s.266-.545.266-1.004v-.519a1.229 1.229 0 01-.469.547 1.38 1.38 0 01-.723.179c-.51 0-.918-.204-1.222-.613-.305-.409-.457-.956-.457-1.641 0-.687.152-1.235.457-1.644a1.446 1.446 0 011.222-.613c.281 0 .52.056.715.168.195.111.354.285.477.519v-.566h.718zm1.512-1.375v-2.711h.719v2.711c0 .393.069.682.207.867.14.185.357.277.648.277.339 0 .598-.118.778-.355.179-.24.269-.582.269-1.028v-2.472h.723V154h-.723v-.656a1.353 1.353 0 01-.523.574c-.219.13-.476.195-.77.195-.448 0-.781-.146-1-.437-.219-.294-.328-.738-.328-1.332zm8.57-1.817a1.613 1.613 0 00-.468-.261 1.595 1.595 0 00-.524-.082c-.448 0-.79.14-1.027.421-.237.282-.356.688-.356 1.219V154h-.722v-4.375h.722v.855c.12-.309.304-.546.551-.71.25-.167.546-.25.887-.25.177 0 .342.022.496.066s.301.113.441.207zm4.684.926v.352h-3.113v.023c-.021.596.092 1.025.34 1.285.25.261.601.391 1.054.391a2.6 2.6 0 00.719-.109 4.39 4.39 0 00.801-.333v.715a4.65 4.65 0 01-.793.25 3.283 3.283 0 01-.735.086c-.679 0-1.211-.203-1.593-.609-.383-.409-.575-.971-.575-1.688 0-.698.188-1.255.563-1.671.375-.417.875-.625 1.5-.625.557 0 .996.188 1.316.566.323.378.495.833.516 1.367zm-.719-.211a1.376 1.376 0 00-.332-.781c-.187-.221-.458-.332-.812-.332-.347 0-.632.114-.856.344a1.212 1.212 0 00-.367.773zm4.504-3.703a7.948 7.948 0 00-.777 1.777 6.433 6.433 0 00-.254 1.782c0 .596.085 1.19.254 1.781.172.591.431 1.186.777 1.785h-.625a8.186 8.186 0 01-.879-1.809 5.637 5.637 0 01-.289-1.757c0-.581.097-1.166.289-1.754.193-.589.486-1.19.879-1.805zm5.172.418v2.391h-.875v-2.391zm-2.082 0v2.391h-.875v-2.391zm4.668 5.379h2.68V154h-3.543v-.664c.487-.513.912-.966 1.277-1.359.365-.394.616-.671.754-.832.26-.318.436-.575.527-.77.091-.198.137-.4.137-.605 0-.326-.096-.581-.289-.766-.19-.185-.452-.277-.785-.277-.237 0-.486.043-.746.128a4.187 4.187 0 00-.828.391v-.797c.268-.127.531-.224.789-.289.26-.065.517-.098.769-.098.57 0 1.029.153 1.375.458.349.302.524.699.524 1.191 0 .25-.059.5-.176.75-.115.25-.302.526-.563.828-.146.169-.358.404-.636.703-.276.3-.698.748-1.266 1.344zm7.055-5.379v2.391h-.875v-2.391zm-2.082 0v2.391h-.875v-2.391zm4.57-.418h.625c.393.615.686 1.216.879 1.805.193.588.289 1.173.289 1.754 0 .586-.096 1.173-.289 1.761a7.995 7.995 0 01-.879 1.805h-.625a8.096 8.096 0 00.773-1.793 6.318 6.318 0 00.258-1.773c0-.594-.086-1.187-.258-1.778a7.858 7.858 0 00-.773-1.781zm11.633 2.645v-2.262h.719V154h-.719v-.551c-.12.216-.28.382-.481.496a1.371 1.371 0 01-.687.168c-.529 0-.946-.204-1.25-.613-.302-.411-.453-.978-.453-1.699 0-.711.152-1.268.457-1.672.304-.406.72-.609 1.246-.609.263 0 .495.057.695.171.201.112.358.276.473.493zm-2.114 1.632c0 .558.089.978.266 1.262s.439.426.785.426c.347 0 .61-.143.789-.43.183-.286.274-.706.274-1.258 0-.554-.091-.974-.274-1.257a.872.872 0 00-.789-.43c-.346 0-.608.142-.785.426s-.266.704-.266 1.261zm5.989-1.687c-.365 0-.641.142-.828.426-.188.284-.282.704-.282 1.261 0 .555.094.976.282 1.262.187.284.463.426.828.426.367 0 .644-.142.832-.426.187-.286.281-.707.281-1.262 0-.557-.094-.977-.281-1.261-.188-.284-.465-.426-.832-.426zm0-.609c.607 0 1.07.196 1.39.589.323.394.485.963.485 1.707 0 .748-.16 1.318-.481 1.711-.32.391-.785.586-1.394.586-.607 0-1.071-.195-1.391-.586-.32-.393-.48-.963-.48-1.711 0-.744.16-1.313.48-1.707.32-.393.784-.589 1.391-.589zm10.133-1.633v8h-.672v-8zm6.066 5.89a2.403 2.403 0 01-.598.25 2.261 2.261 0 01-.625.086c-.677 0-1.207-.203-1.59-.609-.38-.406-.57-.969-.57-1.688 0-.718.19-1.281.57-1.687.383-.406.913-.609 1.59-.609.211 0 .417.027.618.082.2.054.402.139.605.253v.754a1.957 1.957 0 00-.574-.367 1.76 1.76 0 00-.649-.113c-.45 0-.797.146-1.039.437-.242.292-.363.709-.363 1.25 0 .539.121.956.363 1.25.245.292.591.438 1.039.438.25 0 .474-.038.672-.113.198-.079.382-.198.551-.36zm3.082-3.648c-.365 0-.641.142-.828.426-.188.284-.281.704-.281 1.261 0 .555.093.976.281 1.262.187.284.463.426.828.426.367 0 .645-.142.832-.426.188-.286.281-.707.281-1.262 0-.557-.093-.977-.281-1.261-.187-.284-.465-.426-.832-.426zm0-.609c.607 0 1.07.196 1.391.589.323.394.484.963.484 1.707 0 .748-.16 1.318-.48 1.711-.321.391-.786.586-1.395.586-.607 0-1.07-.195-1.391-.586-.32-.393-.48-.963-.48-1.711 0-.744.16-1.313.48-1.707.321-.393.784-.589 1.391-.589zm6.52 1.769V154h-.723v-2.711c0-.393-.069-.682-.207-.867s-.354-.277-.649-.277c-.336 0-.595.119-.777.359-.18.237-.269.578-.269 1.023V154h-.719v-4.375h.719v.656c.127-.25.3-.439.519-.566.219-.13.478-.195.777-.195.446 0 .778.147.996.441.222.292.333.734.333 1.328zm4.867-3.367v.598h-.817c-.257 0-.437.053-.539.16-.099.104-.148.29-.148.558v.387h1.504v.559h-1.504V154h-.719v-3.816h-1.168v-.559h1.168v-.305c0-.479.109-.832.328-1.058.222-.227.565-.34 1.031-.34zm1.902 1.719h1.84v3.8h1.426V154h-3.571v-.559h1.426v-3.242h-1.121zm1.121-1.7h.719v.907h-.719zm5.817 3.836c0-.539-.089-.948-.266-1.226a.848.848 0 00-.766-.422c-.351 0-.619.141-.804.422-.185.278-.278.687-.278 1.226s.093.951.278 1.235c.187.281.458.422.812.422a.839.839 0 00.758-.426c.177-.284.266-.694.266-1.231zm.718 1.942c0 .656-.155 1.153-.465 1.492-.309.338-.765.508-1.367.508-.198 0-.405-.018-.621-.055a4.505 4.505 0 01-.648-.16v-.711c.255.12.487.208.695.266.208.057.4.086.574.086.388 0 .671-.106.848-.317s.266-.545.266-1.004v-.519a1.229 1.229 0 01-.469.547 1.38 1.38 0 01-.723.179c-.51 0-.918-.204-1.222-.613-.305-.409-.458-.956-.458-1.641 0-.687.153-1.235.458-1.644a1.446 1.446 0 011.222-.613c.281 0 .52.056.715.168.195.111.354.285.477.519v-.566h.718zm3.649-5.832v8h-.672v-8zm-148.184 21.89a2.403 2.403 0 01-.597.25 2.264 2.264 0 01-.626.086c-.677 0-1.206-.203-1.59-.609-.38-.406-.57-.969-.57-1.688 0-.718.19-1.281.57-1.687.384-.406.913-.609 1.59-.609.211 0 .417.027.618.082.2.054.402.139.605.253v.754a1.95 1.95 0 00-.574-.367 1.756 1.756 0 00-.648-.113c-.451 0-.797.146-1.04.437-.242.292-.363.709-.363 1.25 0 .539.121.956.363 1.25.245.292.592.438 1.04.438.25 0 .474-.038.671-.113a1.71 1.71 0 00.551-.36zm3.082-3.648c-.364 0-.64.142-.828.426s-.281.704-.281 1.261c0 .555.094.976.281 1.262.188.284.464.426.828.426.367 0 .645-.142.832-.426.188-.286.281-.707.281-1.262 0-.557-.093-.977-.28-1.261s-.466-.426-.833-.426zm0-.609c.607 0 1.07.196 1.39.589.324.394.485.963.485 1.707 0 .748-.16 1.318-.48 1.711-.32.391-.785.586-1.395.586-.607 0-1.07-.195-1.39-.586-.32-.393-.48-.963-.48-1.711 0-.744.16-1.313.48-1.707.32-.393.783-.589 1.39-.589zm6.52 1.769V170h-.723v-2.711c0-.393-.069-.682-.207-.867-.138-.185-.354-.277-.648-.277-.336 0-.595.119-.778.359-.18.237-.27.578-.27 1.023V170h-.718v-4.375h.719v.656c.127-.25.3-.439.52-.566a1.49 1.49 0 01.777-.195c.445 0 .777.147.996.441.221.292.332.734.332 1.328zm4.867-3.367v.598h-.817c-.257 0-.437.053-.539.16-.099.104-.148.29-.148.558v.387h1.504v.559H93.75V170h-.719v-3.816h-1.168v-.559h1.168v-.305c0-.479.11-.832.328-1.058.222-.227.565-.34 1.032-.34zm1.902 1.719h1.84v3.8h1.426V170h-3.57v-.559h1.425v-3.242h-1.12zm1.121-1.7h.72v.907h-.72zm5.817 3.836c0-.539-.089-.948-.266-1.226a.847.847 0 00-.766-.422c-.351 0-.619.141-.804.422-.185.278-.278.687-.278 1.226s.093.951.278 1.235c.187.281.458.422.812.422a.837.837 0 00.758-.426c.177-.284.266-.694.266-1.231zm.718 1.942c0 .656-.154 1.153-.464 1.492-.31.338-.766.508-1.368.508-.197 0-.404-.018-.621-.055a4.505 4.505 0 01-.648-.16v-.711c.255.12.487.208.695.266.209.057.4.086.574.086.388 0 .671-.106.848-.317s.266-.545.266-1.004v-.519a1.229 1.229 0 01-.469.547 1.38 1.38 0 01-.723.179c-.51 0-.918-.204-1.222-.613-.305-.409-.457-.956-.457-1.641 0-.687.152-1.235.457-1.644a1.446 1.446 0 011.222-.613c.282 0 .52.056.715.168.195.111.354.285.477.519v-.566h.718zm2.27-1.297h1.375V170h-1.375zm3.691-2.797h.747l1.269 3.672 1.273-3.672h.747L113.254 170h-.926zm7.071.445a.972.972 0 01.336-.414.88.88 0 01.496-.136c.351 0 .599.136.742.41.146.271.219.782.219 1.535V170h-.657v-2.504c0-.617-.035-1-.105-1.148-.068-.151-.193-.227-.375-.227-.208 0-.352.081-.43.242-.075.159-.113.537-.113 1.133V170h-.656v-2.504c0-.625-.038-1.01-.113-1.156-.073-.146-.206-.219-.399-.219-.19 0-.323.081-.398.242-.073.159-.11.537-.11 1.133V170h-.652v-4.375h.652V166a.943.943 0 01.321-.355.794.794 0 01.441-.125c.198 0 .362.045.492.136a.87.87 0 01.309.414zm3.699 2.352h1.375V170h-1.375zm6.887-.606c0-.557-.089-.977-.266-1.261s-.439-.426-.785-.426c-.349 0-.613.143-.793.43-.18.283-.27.703-.27 1.257 0 .552.09.972.27 1.258.18.287.444.43.793.43.346 0 .608-.142.785-.426s.266-.704.266-1.262zm-2.114-1.632c.115-.214.273-.378.473-.493.203-.114.438-.171.703-.171.526 0 .94.203 1.242.609.302.404.454.961.454 1.672 0 .721-.153 1.288-.458 1.699-.302.409-.717.613-1.246.613-.26 0-.491-.056-.691-.168a1.267 1.267 0 01-.477-.496V170h-.718v-6.078h.718zm5.754-.055c-.364 0-.64.142-.828.426-.187.284-.281.704-.281 1.261 0 .555.094.976.281 1.262.188.284.464.426.828.426.368 0 .645-.142.832-.426.188-.286.282-.707.282-1.262 0-.557-.094-.977-.282-1.261-.187-.284-.464-.426-.832-.426zm0-.609c.607 0 1.071.196 1.391.589.323.394.484.963.484 1.707 0 .748-.16 1.318-.48 1.711-.32.391-.785.586-1.395.586-.606 0-1.07-.195-1.39-.586-.321-.393-.481-.963-.481-1.711 0-.744.16-1.313.481-1.707.32-.393.784-.589 1.39-.589zm6.782.105l-1.567 2.094 1.719 2.281h-.832l-1.281-1.754-1.278 1.754h-.832l1.719-2.281-1.566-2.094h.796l1.161 1.582 1.152-1.582zm5.617 2.422h4.129v.66h-4.129zm0-1.84h4.129v.66h-4.129zm12.988-2.25v2.391h-.875v-2.391zm-2.082 0v2.391h-.875v-2.391zm7.316 3.332V170h-.722v-2.711c0-.393-.069-.682-.207-.867s-.354-.277-.649-.277c-.336 0-.595.119-.777.359-.18.237-.27.578-.27 1.023V170h-.718v-6.078h.718v2.359c.128-.25.301-.439.52-.566.219-.13.478-.195.777-.195.446 0 .778.147.996.441.222.292.332.734.332 1.328zm3.457.512h-.238c-.419 0-.736.074-.949.222-.211.146-.316.365-.316.657 0 .263.079.467.238.613s.379.219.66.219c.396 0 .707-.137.934-.41.226-.276.341-.657.343-1.141v-.16zm1.395-.297V170h-.723v-.648c-.153.26-.347.453-.582.578-.231.122-.514.183-.847.183-.446 0-.801-.125-1.067-.375-.265-.252-.398-.59-.398-1.011 0-.487.163-.857.488-1.11.328-.252.809-.379 1.441-.379h.965v-.113c-.002-.349-.091-.602-.265-.758-.175-.159-.453-.238-.836-.238a2.74 2.74 0 00-.742.105c-.25.071-.494.174-.731.309v-.719c.266-.101.52-.177.762-.226.245-.052.482-.078.711-.078.362 0 .67.053.926.16.257.106.466.267.625.48.098.13.169.292.21.485.042.19.063.476.063.859zm4.484-1.727v.703a2.749 2.749 0 00-.621-.269c-.208-.06-.42-.09-.636-.09-.326 0-.569.053-.731.16-.159.104-.238.265-.238.481 0 .195.06.341.179.437.12.097.418.19.895.281l.289.055c.357.068.626.203.809.406.185.204.277.468.277.793 0 .433-.154.771-.461 1.016-.307.242-.734.363-1.281.363-.216 0-.443-.023-.68-.07a5.935 5.935 0 01-.769-.203v-.742c.268.138.524.242.769.312.245.068.477.102.695.102.318 0 .564-.064.739-.192a.64.64 0 00.261-.543c0-.333-.319-.563-.957-.691l-.031-.008-.269-.055c-.414-.08-.717-.216-.907-.406-.19-.193-.285-.454-.285-.785 0-.419.142-.742.426-.969.284-.229.689-.343 1.215-.343.234 0 .459.022.676.066.216.042.428.105.636.191zm5.125 1.512V170h-.722v-2.711c0-.393-.069-.682-.207-.867s-.355-.277-.649-.277c-.336 0-.595.119-.777.359-.18.237-.27.578-.27 1.023V170h-.718v-6.078h.718v2.359c.128-.25.301-.439.52-.566.219-.13.478-.195.777-.195.446 0 .778.147.996.441.222.292.332.734.332 1.328zm1.95-1.648h1.839v3.8h1.426V170h-3.57v-.559h1.426v-3.242h-1.121zm1.121-1.7h.718v.907h-.718zm6.609 5.836a2.403 2.403 0 01-.598.25 2.261 2.261 0 01-.625.086c-.677 0-1.207-.203-1.589-.609-.381-.406-.571-.969-.571-1.688 0-.718.19-1.281.571-1.687.382-.406.912-.609 1.589-.609.211 0 .417.027.618.082.2.054.402.139.605.253v.754a1.945 1.945 0 00-.574-.367 1.755 1.755 0 00-.649-.113c-.45 0-.797.146-1.039.437-.242.292-.363.709-.363 1.25 0 .539.121.956.363 1.25.245.292.591.438 1.039.438.25 0 .474-.038.672-.113.198-.079.382-.198.551-.36zm3.082-3.648c-.365 0-.641.142-.828.426-.188.284-.281.704-.281 1.261 0 .555.093.976.281 1.262.187.284.463.426.828.426.367 0 .645-.142.832-.426.188-.286.281-.707.281-1.262 0-.557-.093-.977-.281-1.261-.187-.284-.465-.426-.832-.426zm0-.609c.607 0 1.07.196 1.391.589.323.394.484.963.484 1.707 0 .748-.16 1.318-.48 1.711-.321.391-.786.586-1.395.586-.607 0-1.07-.195-1.391-.586-.32-.393-.48-.963-.48-1.711 0-.744.16-1.313.48-1.707.321-.393.784-.589 1.391-.589zm6.926 1.007a1.63 1.63 0 00-.469-.261 1.59 1.59 0 00-.523-.082c-.448 0-.791.14-1.028.421-.237.282-.355.688-.355 1.219V170h-.723v-4.375h.723v.855c.12-.309.303-.546.551-.71.25-.167.545-.25.886-.25.177 0 .343.022.496.066.154.044.301.113.442.207zm1.773 2.922v2.215h-.722v-6.039h.722v.559c.12-.217.279-.381.477-.493.2-.114.431-.171.691-.171.529 0 .943.204 1.242.613.303.409.454.975.454 1.699 0 .711-.151 1.27-.454 1.676-.302.403-.716.605-1.242.605-.265 0-.498-.056-.699-.168a1.215 1.215 0 01-.469-.496zm2.11-1.633c0-.557-.089-.977-.266-1.261-.174-.284-.435-.426-.781-.426-.349 0-.614.143-.793.43-.18.283-.27.703-.27 1.257 0 .552.09.972.27 1.258.179.287.444.43.793.43.346 0 .607-.142.781-.426.177-.284.266-.704.266-1.262zm4.718-3.648h.743l-3.071 6.574h-.746zm2.813 5.281v2.215h-.723v-6.039h.723v.559c.12-.217.279-.381.476-.493.201-.114.431-.171.692-.171.529 0 .943.204 1.242.613.302.409.453.975.453 1.699 0 .711-.151 1.27-.453 1.676-.302.403-.716.605-1.242.605-.266 0-.499-.056-.699-.168a1.209 1.209 0 01-.469-.496zm2.109-1.633c0-.557-.088-.977-.265-1.261-.175-.284-.435-.426-.782-.426-.349 0-.613.143-.793.43-.179.283-.269.703-.269 1.257 0 .552.09.972.269 1.258.18.287.444.43.793.43.347 0 .607-.142.782-.426.177-.284.265-.704.265-1.262zm5.758-1.289a1.63 1.63 0 00-.469-.261 1.59 1.59 0 00-.523-.082c-.448 0-.79.14-1.027.421-.237.282-.356.688-.356 1.219V170h-.723v-4.375h.723v.855c.12-.309.303-.546.551-.71.25-.167.545-.25.887-.25.177 0 .342.022.496.066.153.044.3.113.441.207zm4.684.926v.352h-3.114v.023c-.02.596.093 1.025.34 1.285.25.261.602.391 1.055.391a2.6 2.6 0 00.719-.109c.25-.073.517-.184.8-.333v.715a4.595 4.595 0 01-.793.25 3.268 3.268 0 01-.734.086c-.68 0-1.211-.203-1.594-.609-.382-.409-.574-.971-.574-1.688 0-.698.188-1.255.563-1.671.375-.417.875-.625 1.5-.625.557 0 .996.188 1.316.566.323.378.495.833.516 1.367zm-.719-.211a1.376 1.376 0 00-.332-.781c-.188-.221-.458-.332-.813-.332-.346 0-.631.114-.855.344a1.212 1.212 0 00-.367.773zm5.309 2.535a2.403 2.403 0 01-.598.25 2.267 2.267 0 01-.625.086c-.677 0-1.207-.203-1.59-.609-.38-.406-.57-.969-.57-1.688 0-.718.19-1.281.57-1.687.383-.406.913-.609 1.59-.609.211 0 .417.027.617.082.201.054.402.139.606.253v.754a1.961 1.961 0 00-.575-.367 1.754 1.754 0 00-.648-.113c-.451 0-.797.146-1.039.437-.242.292-.363.709-.363 1.25 0 .539.121.956.363 1.25.245.292.591.438 1.039.438.25 0 .474-.038.672-.113.198-.079.381-.198.551-.36zm1.91-4.136h1.84v3.8h1.425V170H227v-.559h1.426v-3.242h-1.121zm1.121-1.7h.719v.907h-.719zm6.265 1.836v.703a2.749 2.749 0 00-.621-.269c-.208-.06-.42-.09-.636-.09-.326 0-.569.053-.731.16-.159.104-.238.265-.238.481 0 .195.06.341.18.437.119.097.417.19.894.281l.289.055c.357.068.626.203.809.406.185.204.277.468.277.793 0 .433-.154.771-.461 1.016-.307.242-.734.363-1.281.363-.216 0-.443-.023-.68-.07a5.935 5.935 0 01-.769-.203v-.742c.268.138.524.242.769.312.245.068.477.102.696.102.317 0 .563-.064.738-.192a.64.64 0 00.262-.543c0-.333-.32-.563-.958-.691l-.031-.008-.269-.055c-.414-.08-.716-.216-.907-.406-.19-.193-.285-.454-.285-.785 0-.419.142-.742.426-.969.284-.229.689-.343 1.215-.343.234 0 .46.022.676.066.216.042.428.105.636.191zm5.395 1.676v.352h-3.113v.023c-.021.596.092 1.025.339 1.285.25.261.602.391 1.055.391a2.6 2.6 0 00.719-.109 4.39 4.39 0 00.801-.333v.715a4.65 4.65 0 01-.793.25 3.283 3.283 0 01-.735.086c-.679 0-1.211-.203-1.593-.609-.383-.409-.575-.971-.575-1.688 0-.698.188-1.255.563-1.671.375-.417.875-.625 1.5-.625.557 0 .996.188 1.316.566.323.378.495.833.516 1.367zm-.719-.211a1.376 1.376 0 00-.332-.781c-.187-.221-.458-.332-.812-.332-.347 0-.632.114-.856.344a1.212 1.212 0 00-.367.773zm5.035-2.945v.726a2.09 2.09 0 00-.523-.218 2.128 2.128 0 00-.578-.078c-.5 0-.879.188-1.137.566-.258.375-.387.928-.387 1.66a1.4 1.4 0 01.52-.598c.221-.14.475-.21.762-.21.562 0 .997.173 1.304.519.31.344.465.832.465 1.465 0 .63-.159 1.118-.476 1.465-.318.346-.765.519-1.34.519-.677 0-1.173-.242-1.489-.726-.315-.487-.472-1.253-.472-2.297 0-.985.189-1.735.566-2.25.38-.518.93-.778 1.649-.778.192 0 .385.021.578.063.192.039.379.096.558.172zm-1.406 2.465c-.336 0-.6.121-.793.363s-.289.577-.289 1.004.096.762.289 1.004.457.363.793.363c.349 0 .612-.114.789-.344.177-.231.266-.573.266-1.023 0-.453-.089-.794-.266-1.024-.177-.229-.44-.343-.789-.343zm5.227-1.875l-1.84 3.082h1.84zm-.129-.719h.914v3.801h.777v.64h-.777V170h-.785v-1.391h-2.473v-.746zm5.769-.211v2.391h-.875v-2.391zm-2.082 0v2.391h-.875v-2.391zM71.375 183.453v.352h-3.113v.023c-.021.596.092 1.025.34 1.285.25.261.601.391 1.054.391.23 0 .469-.037.719-.109.25-.073.517-.184.8-.333v.715a4.631 4.631 0 01-.792.25 3.275 3.275 0 01-.735.086c-.68 0-1.21-.203-1.593-.609-.383-.409-.575-.971-.575-1.688 0-.698.188-1.255.563-1.671.375-.417.875-.625 1.5-.625.557 0 .996.188 1.316.566.323.378.495.833.516 1.367zm-.719-.211a1.377 1.377 0 00-.332-.781c-.187-.221-.458-.332-.812-.332-.347 0-.632.114-.856.344a1.212 1.212 0 00-.367.773zm5.27.047V186h-.723v-2.711c0-.393-.069-.682-.207-.867s-.354-.277-.648-.277c-.336 0-.595.119-.778.359-.18.237-.27.578-.27 1.023V186h-.718v-4.375h.719v.656c.127-.25.3-.439.52-.566a1.49 1.49 0 01.777-.195c.445 0 .777.147.996.441.221.292.332.734.332 1.328zm4.066-1.105v-2.262h.719V186h-.719v-.551a1.26 1.26 0 01-.48.496 1.372 1.372 0 01-.688.168c-.528 0-.945-.204-1.25-.613-.302-.411-.453-.978-.453-1.699 0-.711.152-1.268.457-1.672.305-.406.72-.609 1.246-.609.263 0 .495.057.695.171.201.112.359.276.473.493zm-2.113 1.632c0 .558.088.978.265 1.262s.44.426.786.426c.346 0 .61-.143.789-.43.182-.286.273-.706.273-1.258 0-.554-.091-.974-.273-1.257a.874.874 0 00-.79-.43c-.346 0-.607.142-.784.426s-.266.704-.266 1.261z" fill="#fff"/></g></g></svg>