<svg width="432" height="86" viewBox="0 0 432 86" fill="none" xmlns="http://www.w3.org/2000/svg"><g clip-path="url(#clip0_302_23694)"><mask id="a" style="mask-type:alpha" maskUnits="userSpaceOnUse" x="82" y="-94" width="350" height="274"><path d="M82.5-74c0-10.77 8.73-19.5 19.5-19.5h310c10.77 0 19.5 8.73 19.5 19.5v234c0 10.77-8.73 19.5-19.5 19.5H102c-10.77 0-19.5-8.73-19.5-19.5V-74z" fill="#16181D" stroke="#5D5F65"/></mask><g mask="url(#a)"><g opacity=".9" fill-rule="evenodd" clip-rule="evenodd"><path d="M429.503-36.762L385.51 24.8l-.165-43.806 44.158-17.756z" fill="url(#paint0_linear_302_23694)"/><path d="M429.503-36.762L385.51 24.8l-.165-43.806 44.158-17.756z" fill="url(#paint1_linear_302_23694)" fill-opacity=".1"/></g><path opacity=".9" fill-rule="evenodd" clip-rule="evenodd" d="M341.053-36.428L385.511 24.8l-.166-43.806-44.292-17.42z" fill="url(#paint2_linear_302_23694)"/><path d="M341.508 42.83l-44.329-17.717L341.3 6.93l44.328 17.672-44.12 18.228z" fill="#FFE27D"/><path d="M341.508 42.83l-44.329-17.717L341.3 6.93l44.328 17.672-44.12 18.228z" fill="url(#paint3_linear_302_23694)" fill-opacity=".7"/><mask id="b" style="mask-type:alpha" maskUnits="userSpaceOnUse" x="297" y="6" width="89" height="37"><path d="M341.507 42.83l-44.329-17.717L341.299 6.93l44.328 17.672-44.12 18.228z" fill="#F4C212"/><path d="M341.507 42.83l-44.329-17.717L341.299 6.93l44.328 17.672-44.12 18.228z" fill="url(#paint4_linear_302_23694)" fill-opacity=".7"/></mask><g filter="url(#filter0_f_302_23694)" mask="url(#b)"><path d="M302.229 22.526l39.145-17.245 16.235 6.67-55.38 10.575z" fill="#DE7226" fill-opacity=".8"/></g><path opacity=".9" fill-rule="evenodd" clip-rule="evenodd" d="M297.179 25.173l43.87-61.65.253 43.806-44.123 17.844z" fill="url(#paint5_radial_302_23694)"/><g opacity=".9" fill-rule="evenodd" clip-rule="evenodd"><path d="M385.629 24.662l-43.87 61.65-.253-43.806 44.123-17.844z" fill="url(#paint6_linear_302_23694)"/><path d="M385.629 24.662l-43.87 61.65-.253-43.806 44.123-17.844z" fill="url(#paint7_linear_302_23694)" fill-opacity=".1"/></g><path opacity=".9" fill-rule="evenodd" clip-rule="evenodd" d="M385.628 24.662l-44.579-61.14.253 43.807 44.326 17.333z" fill="url(#paint8_radial_302_23694)"/><path opacity=".9" fill-rule="evenodd" clip-rule="evenodd" d="M297.179 25.172l44.579 61.14-.253-43.807-44.326-17.333z" fill="url(#paint9_linear_302_23694)"/><path d="M385.208 103.339l-44.225-17.972 44.225-17.928 44.225 17.928-44.225 17.972z" fill="#FFE27D"/><path d="M385.208 103.339l-44.225-17.972 44.225-17.928 44.225 17.928-44.225 17.972z" fill="url(#paint10_linear_302_23694)" fill-opacity=".7"/><mask id="c" style="mask-type:alpha" maskUnits="userSpaceOnUse" x="340" y="67" width="90" height="37"><path d="M385.208 103.339l-44.225-17.972 44.225-17.928 44.225 17.928-44.225 17.972z" fill="#FFE27D"/><path d="M385.208 103.339l-44.225-17.972 44.225-17.928 44.225 17.928-44.225 17.972z" fill="url(#paint11_linear_302_23694)" fill-opacity=".7"/></mask><g filter="url(#filter1_f_302_23694)" mask="url(#c)"><path d="M346.047 82.81l39.243-17.019 16.197 6.764-55.44 10.255z" fill="#DE7226" fill-opacity=".8"/></g><path opacity=".9" fill-rule="evenodd" clip-rule="evenodd" d="M340.982 85.427l44.226-61.395v43.806l-44.226 17.589z" fill="url(#paint12_radial_302_23694)"/><g opacity=".9" fill-rule="evenodd" clip-rule="evenodd"><path d="M429.434 85.427l-44.226 61.395v-43.807l44.226-17.588z" fill="url(#paint13_linear_302_23694)"/><path d="M429.434 85.427l-44.226 61.395v-43.807l44.226-17.588z" fill="url(#paint14_linear_302_23694)" fill-opacity=".1"/></g><path opacity=".9" fill-rule="evenodd" clip-rule="evenodd" d="M429.434 85.427l-44.226-61.395v43.806l44.226 17.589z" fill="url(#paint15_radial_302_23694)"/><path opacity=".9" fill-rule="evenodd" clip-rule="evenodd" d="M340.982 85.427l44.226 61.395v-43.807l-44.226-17.588z" fill="url(#paint16_linear_302_23694)"/></g></g><defs><linearGradient id="paint0_linear_302_23694" x1="461.115" y1="17.977" x2="439.991" y2="-39.714" gradientUnits="userSpaceOnUse"><stop offset=".426" stop-color="#C54A4F"/><stop offset="1" stop-color="#953134"/></linearGradient><linearGradient id="paint1_linear_302_23694" x1="387.861" y1="2.51" x2="398.758" y2="-52.217" gradientUnits="userSpaceOnUse"><stop/><stop offset="1" stop-opacity="0"/></linearGradient><linearGradient id="paint2_linear_302_23694" x1="348.245" y1="-44.385" x2="392.517" y2="-15.309" gradientUnits="userSpaceOnUse"><stop stop-color="#EBA67C"/><stop offset=".526" stop-color="#FCCAAE"/><stop offset="1" stop-color="#E5846D"/></linearGradient><linearGradient id="paint3_linear_302_23694" x1="328.626" y1="13.507" x2="353.5" y2="41.12" gradientUnits="userSpaceOnUse"><stop offset=".017" stop-color="#FFA24D"/><stop offset="1" stop-color="#F7D5AC"/></linearGradient><linearGradient id="paint4_linear_302_23694" x1="328.625" y1="13.507" x2="353.499" y2="41.12" gradientUnits="userSpaceOnUse"><stop offset=".017" stop-color="#FFA24D"/><stop offset="1" stop-color="#FDF5EA"/></linearGradient><linearGradient id="paint6_linear_302_23694" x1="417.35" y1="79.338" x2="396.111" y2="21.689" gradientUnits="userSpaceOnUse"><stop offset=".426" stop-color="#C54A4F"/><stop offset="1" stop-color="#953134"/></linearGradient><linearGradient id="paint7_linear_302_23694" x1="344.065" y1="64.017" x2="354.854" y2="9.268" gradientUnits="userSpaceOnUse"><stop/><stop offset="1" stop-opacity="0"/></linearGradient><linearGradient id="paint9_linear_302_23694" x1="304.355" y1="17.201" x2="348.685" y2="46.189" gradientUnits="userSpaceOnUse"><stop stop-color="#EBA67C"/><stop offset=".526" stop-color="#FCCAAE"/><stop offset="1" stop-color="#E5846D"/></linearGradient><linearGradient id="paint10_linear_302_23694" x1="372.496" y1="73.943" x2="397.21" y2="101.699" gradientUnits="userSpaceOnUse"><stop offset=".017" stop-color="#FFA24D"/><stop offset="1" stop-color="#F7D5AC"/></linearGradient><linearGradient id="paint11_linear_302_23694" x1="372.496" y1="73.943" x2="397.21" y2="101.699" gradientUnits="userSpaceOnUse"><stop offset=".017" stop-color="#FFA24D"/><stop offset="1" stop-color="#FDF5EA"/></linearGradient><linearGradient id="paint13_linear_302_23694" x1="460.838" y1="140.285" x2="439.932" y2="82.514" gradientUnits="userSpaceOnUse"><stop offset=".426" stop-color="#C54A4F"/><stop offset="1" stop-color="#953134"/></linearGradient><linearGradient id="paint14_linear_302_23694" x1="387.643" y1="124.541" x2="398.747" y2="69.855" gradientUnits="userSpaceOnUse"><stop/><stop offset="1" stop-opacity="0"/></linearGradient><linearGradient id="paint16_linear_302_23694" x1="348.204" y1="77.497" x2="392.366" y2="106.74" gradientUnits="userSpaceOnUse"><stop stop-color="#EBA67C"/><stop offset=".526" stop-color="#FCCAAE"/><stop offset="1" stop-color="#E5846D"/></linearGradient><radialGradient id="paint5_radial_302_23694" cx="0" cy="0" r="1" gradientUnits="userSpaceOnUse" gradientTransform="rotate(-178.594 169.833 1.912) scale(143.661 165.724)"><stop stop-color="#EE995B"/><stop offset=".385" stop-color="#FFD9C7"/></radialGradient><radialGradient id="paint8_radial_302_23694" cx="0" cy="0" r="1" gradientUnits="userSpaceOnUse" gradientTransform="rotate(-31.639 185.587 -601.372) scale(82.0534 115.934)"><stop stop-color="#F9C1A3"/><stop offset=".385" stop-color="#E6B18A"/></radialGradient><radialGradient id="paint12_radial_302_23694" cx="0" cy="0" r="1" gradientUnits="userSpaceOnUse" gradientTransform="rotate(-178.263 192.254 31.339) scale(143.661 165.724)"><stop stop-color="#EE995B"/><stop offset=".385" stop-color="#FFD9C7"/></radialGradient><radialGradient id="paint15_radial_302_23694" cx="0" cy="0" r="1" gradientUnits="userSpaceOnUse" gradientTransform="matrix(70.1053 -42.6381 60.24376 99.05242 386.942 68.491)"><stop stop-color="#F9C1A3"/><stop offset=".385" stop-color="#E6B18A"/></radialGradient><filter id="filter0_f_302_23694" x="297.564" y=".615" width="64.711" height="26.577" filterUnits="userSpaceOnUse" color-interpolation-filters="sRGB"><feFlood flood-opacity="0" result="BackgroundImageFix"/><feBlend in="SourceGraphic" in2="BackgroundImageFix" result="shape"/><feGaussianBlur stdDeviation="2.333" result="effect1_foregroundBlur_302_23694"/></filter><filter id="filter1_f_302_23694" x="341.381" y="61.126" width="64.771" height="26.35" filterUnits="userSpaceOnUse" color-interpolation-filters="sRGB"><feFlood flood-opacity="0" result="BackgroundImageFix"/><feBlend in="SourceGraphic" in2="BackgroundImageFix" result="shape"/><feGaussianBlur stdDeviation="2.333" result="effect1_foregroundBlur_302_23694"/></filter><clipPath id="clip0_302_23694"><path fill="#fff" d="M0 0h432v86H0z"/></clipPath></defs></svg>